<svg version="1.1" id="Layer_1" xmlns="http://www.w3.org/2000/svg" xmlns:xlink="http://www.w3.org/1999/xlink" x="0px" y="0px"
	 width="100%" viewBox="0 0 512 512" enable-background="new 0 0 512 512" xml:space="preserve">
<path fill="#000000" opacity="1.000000" stroke="none" 
	d="
M304.000000,513.000000 
	C202.691269,513.000000 101.882530,513.000000 1.036899,513.000000 
	C1.036899,342.399567 1.036899,171.799149 1.036899,1.099354 
	C171.558746,1.099354 342.117554,1.099354 512.838196,1.099354 
	C512.838196,171.666550 512.838196,342.333252 512.838196,513.000000 
	C443.465790,513.000000 373.982880,513.000000 304.000000,513.000000 
M376.063080,377.018707 
	C369.050659,377.018707 362.038239,377.018707 353.951141,377.018707 
	C361.889557,386.353760 368.969727,394.679596 376.283051,403.629547 
	C376.746368,403.641663 377.451752,403.857635 377.638000,403.636475 
	C384.857239,395.063324 392.029083,386.450256 399.771606,377.165527 
	C391.486725,377.165527 384.237762,377.165527 376.063080,377.018707 
M216.283081,403.629669 
	C216.746399,403.641754 217.451797,403.857697 217.638062,403.636475 
	C224.857315,395.063263 232.029175,386.450195 239.771667,377.165497 
	C231.486481,377.165497 224.237396,377.165497 216.062714,377.018707 
	C209.050385,377.018707 202.038055,377.018707 193.951019,377.018707 
	C201.889557,386.353882 208.969727,394.679657 216.283081,403.629669 
M257.912079,408.953552 
	C291.432068,408.953552 324.952057,408.953552 359.492889,408.953552 
	C357.886475,406.816711 356.984314,405.507538 355.972961,404.289001 
	C349.386139,396.352783 342.665344,388.524170 336.235931,380.462921 
	C334.146179,377.842804 331.927887,376.911682 328.634979,376.933228 
	C308.338745,377.066162 288.037842,377.203125 267.746399,376.864899 
	C262.293518,376.774017 258.434357,378.094635 255.462372,383.378601 
	C248.586899,391.619690 241.711426,399.860779 234.222549,408.837097 
	C242.784271,408.837097 249.881393,408.837097 257.912079,408.953552 
M256.123901,345.023621 
	C247.165100,345.252686 239.765457,341.570557 232.782745,336.285461 
	C219.867386,326.509918 211.021194,326.785339 197.845169,336.084778 
	C193.300491,339.292358 188.263382,342.427094 182.981659,343.840576 
	C170.459152,347.191864 159.200775,343.966125 148.885666,335.862518 
	C136.567444,326.185211 127.464867,326.699524 115.065559,336.204559 
	C105.623108,343.442932 94.850975,346.970612 83.189346,343.947479 
	C75.682884,342.001495 68.687798,338.082947 60.872360,334.800232 
	C57.284901,339.082397 55.847122,344.760468 58.518509,351.045807 
	C61.169125,357.282318 66.095642,360.737396 72.882423,360.925629 
	C80.874855,361.147308 88.878967,360.906494 96.875626,361.026215 
	C110.560738,361.231079 120.759583,371.462311 120.973808,385.189392 
	C121.085609,392.352905 120.995667,399.519501 120.997673,406.684723 
	C121.000046,415.182983 120.914192,423.682587 121.040619,432.179016 
	C121.113007,437.044434 124.135513,440.378815 128.406525,440.792633 
	C132.619720,441.200836 135.877411,438.345337 136.748596,433.265625 
	C137.055710,431.475037 137.035797,429.615417 137.036774,427.787292 
	C137.043869,414.623505 137.006348,401.459717 137.005341,388.295929 
	C137.003952,370.336334 146.412460,361.024323 164.510544,360.999176 
	C195.334351,360.956299 226.158142,360.892975 257.913666,360.968231 
	C318.353210,360.979248 378.792725,360.990906 439.232269,360.996460 
	C440.396729,360.996552 441.573547,361.019897 442.723602,360.870544 
	C449.216675,360.027130 454.447144,355.441772 456.139954,349.069916 
	C457.716370,343.136322 456.261414,338.080383 451.972626,333.742279 
	C430.977142,348.726654 415.802551,348.651642 395.711365,333.751587 
	C386.477844,326.903809 375.497589,327.446228 365.898193,335.224335 
	C350.117096,348.011230 332.096039,348.431732 315.980896,336.389038 
	C302.570343,326.367554 294.332825,326.216888 280.858093,336.446686 
	C273.703583,341.878296 266.014648,345.194519 256.123901,345.023621 
M257.765259,328.878784 
	C262.860229,326.743011 268.631226,325.508301 272.916382,322.293182 
	C283.436432,314.400024 294.651093,311.243347 307.511139,314.050812 
	C309.082214,314.393829 310.660034,314.705933 312.860077,315.161987 
	C312.860077,305.636719 313.202148,296.693542 312.718384,287.795258 
	C312.469757,283.221802 308.888245,281.014984 304.299896,281.020996 
	C288.522614,281.041565 272.745361,281.109985 256.040558,281.050537 
	C196.407623,281.034363 136.774704,281.017944 77.141769,281.004395 
	C76.309319,281.004211 75.472565,280.992096 74.645050,281.066254 
	C60.977154,282.290802 51.958344,298.220825 59.417881,309.115204 
	C65.614380,318.164917 74.608841,324.609406 85.038460,328.123901 
	C93.993942,331.141693 101.461456,326.659149 108.518341,321.433502 
	C124.318626,309.733185 140.107193,309.811951 155.860123,321.442352 
	C169.440750,331.468933 178.341400,332.054840 191.468536,321.362640 
	C207.044205,308.676086 229.152130,311.671143 241.471985,322.985138 
	C245.756546,326.919891 250.947525,329.117554 257.765259,328.878784 
M256.062988,233.018692 
	C190.569382,233.012512 125.075790,233.005997 59.582188,233.002701 
	C58.416054,233.002655 57.240978,232.955322 56.085232,233.075668 
	C48.316223,233.884567 41.625881,240.596115 41.038719,248.122849 
	C40.452190,255.641541 45.811089,262.799713 53.565628,264.554932 
	C55.644024,265.025360 57.864338,264.982452 60.019585,264.983276 
	C114.347626,265.004456 168.675674,265.009125 223.003723,264.992401 
	C234.332062,264.988922 245.660385,264.889618 257.917450,264.979950 
	C273.416443,264.987183 288.915894,264.925690 304.414337,265.021851 
	C318.680481,265.110382 328.863953,275.375732 328.983276,289.709076 
	C329.063751,299.374542 328.974457,309.041351 329.008331,318.707367 
	C329.031372,325.278046 332.024323,328.814728 337.431824,328.795013 
	C342.010254,328.778320 344.967743,324.977844 344.991394,318.943451 
	C345.026062,310.110718 344.998474,301.277740 345.000916,292.444885 
	C345.005890,274.394135 354.358826,265.003662 372.343353,265.001373 
	C400.008545,264.997864 427.673798,265.022186 455.338928,264.986694 
	C463.742584,264.975922 469.963989,260.569366 472.033356,253.370300 
	C475.193665,242.376114 467.634949,233.016724 455.466797,233.011032 
	C400.469696,232.985352 345.472626,232.990601 290.475525,233.007034 
	C279.313293,233.010376 268.151031,233.110184 256.062988,233.018692 
M257.922485,472.974670 
	C307.078369,472.982788 356.234344,473.034912 405.390137,472.975830 
	C423.312836,472.954315 437.061188,461.512726 440.424042,444.151184 
	C442.821869,431.771912 437.189362,425.005859 424.446747,425.002808 
	C390.120850,424.994537 355.794922,424.980377 321.469055,425.007141 
	C299.977264,425.023926 278.485565,425.110443 256.066772,425.023621 
	C221.816040,425.023621 187.565292,425.023621 153.372009,425.023621 
	C151.263580,447.275879 144.235168,457.055603 129.637604,456.645020 
	C124.352425,456.496368 118.475853,454.276764 114.057571,451.260986 
	C105.141129,445.174866 104.621559,435.139282 104.926559,424.999695 
	C99.128700,424.999695 93.829041,424.979279 88.529594,425.003906 
	C77.241478,425.056427 71.471313,431.973816 73.340561,443.183228 
	C76.271385,460.758636 90.249367,472.869354 108.084846,472.968475 
	C130.238937,473.091614 152.394272,473.021149 174.549011,472.994965 
	C202.030594,472.962494 229.512146,472.889709 257.922485,472.974670 
M257.922241,216.974625 
	C313.718933,216.983047 369.515625,217.000488 425.312317,216.992004 
	C436.080658,216.990356 441.358337,211.789490 440.914917,200.943390 
	C438.482178,141.435867 411.977020,95.683769 361.563477,64.100311 
	C329.558929,44.049847 293.972260,39.144825 256.066559,41.024113 
	C239.478638,41.961056 222.643158,41.399364 206.345200,44.091656 
	C131.620178,56.435627 74.361145,123.667145 73.061584,199.374741 
	C72.836914,212.463654 77.350014,216.998917 90.610641,216.999481 
	C124.922096,217.000977 159.233566,217.019531 193.544998,216.992813 
	C214.694534,216.976334 235.843994,216.889297 257.922241,216.974625 
M393.367188,314.965546 
	C398.256104,317.723267 403.464478,320.043762 407.965271,323.332642 
	C416.490631,329.562317 426.136749,331.136169 434.560150,325.941620 
	C440.473297,322.295166 445.974884,317.874786 451.244934,313.319458 
	C457.533508,307.883789 458.524323,300.790955 455.550720,293.279449 
	C452.580109,285.775391 446.728546,281.252594 438.741882,281.140381 
	C415.597961,280.815277 392.446564,280.989380 369.298248,281.044678 
	C364.911621,281.055176 361.475464,283.386078 361.287323,287.721436 
	C360.850647,297.785645 361.148315,307.881683 361.148315,318.618774 
	C371.599396,313.534485 381.804504,311.362122 393.367188,314.965546 
M458.015076,377.037170 
	C446.873962,377.024933 435.729095,376.860504 424.595032,377.134338 
	C422.473419,377.186493 419.798950,378.447388 418.395721,380.043793 
	C411.153412,388.282959 404.230652,396.803528 397.230713,405.254364 
	C396.456879,406.188660 395.901825,407.304169 394.975494,408.759521 
	C396.919220,408.862518 398.215027,408.990082 399.510895,408.990967 
	C418.135101,409.003754 436.759369,409.024994 455.383484,408.988800 
	C464.999634,408.970123 471.933746,403.284515 472.907227,394.755768 
	C473.876160,386.266937 468.467957,379.451752 458.015076,377.037170 
M91.393997,376.998444 
	C80.401398,376.998779 69.408638,376.961792 58.416256,377.010406 
	C48.237843,377.055450 41.038857,383.695251 41.013618,392.952454 
	C40.988441,402.189758 48.227962,408.947235 58.350426,408.986603 
	C72.340782,409.041046 86.331528,409.010620 100.322060,408.986389 
	C101.758537,408.983887 103.194649,408.776245 105.001663,408.634735 
	C105.001663,402.137787 105.002533,396.002686 105.001472,389.867584 
	C104.999573,378.895447 103.145882,377.009674 91.393997,376.998444 
M169.502289,409.001556 
	C179.200195,409.001556 188.898117,409.001556 199.926727,409.001556 
	C191.403961,398.777863 183.793640,389.633484 176.165070,380.504395 
	C172.573654,376.206543 159.791779,375.247955 155.761673,379.150543 
	C154.531006,380.342316 153.288422,382.218201 153.239563,383.817108 
	C152.987961,392.053223 153.122879,400.301147 153.122879,409.001556 
	C158.605530,409.001556 163.554810,409.001556 169.502289,409.001556 
z"/>
<path fill="#F47C20" opacity="1.000000" stroke="none" 
	d="
M256.993561,41.166065 
	C293.972260,39.144825 329.558929,44.049847 361.563477,64.100311 
	C411.977020,95.683769 438.482178,141.435867 440.914917,200.943390 
	C441.358337,211.789490 436.080658,216.990356 425.312317,216.992004 
	C369.515625,217.000488 313.718933,216.983047 257.459534,216.446243 
	C256.995514,179.000885 256.994202,142.083908 257.356873,105.085838 
	C262.219452,104.149429 264.999023,101.536484 264.918884,96.873657 
	C264.833771,91.919182 261.648865,89.532204 256.994843,88.373337 
	C256.995605,72.332191 256.994568,56.749126 256.993561,41.166065 
M305.394623,104.988678 
	C311.534912,103.356743 314.408264,99.080788 312.463501,94.247543 
	C310.904724,90.373512 307.860657,88.464417 303.750793,89.138733 
	C299.680847,89.806503 297.143372,92.487572 297.074615,96.681160 
	C296.994110,101.589142 299.778168,104.321533 305.394623,104.988678 
z"/>
<path fill="#F78C1E" opacity="1.000000" stroke="none" 
	d="
M256.530060,41.095089 
	C256.994568,56.749126 256.995605,72.332191 256.630859,88.454300 
	C251.748169,89.827492 248.994553,92.441612 249.071518,97.116852 
	C249.153397,102.090782 252.345291,104.454170 256.992859,105.166924 
	C256.994202,142.083908 256.995514,179.000885 256.995178,216.375916 
	C235.843994,216.889297 214.694534,216.976334 193.544998,216.992813 
	C159.233566,217.019531 124.922096,217.000977 90.610641,216.999481 
	C77.350014,216.998917 72.836914,212.463654 73.061584,199.374741 
	C74.361145,123.667145 131.620178,56.435627 206.345200,44.091656 
	C222.643158,41.399364 239.478638,41.961056 256.530060,41.095089 
M210.173920,89.063057 
	C205.520996,88.725510 201.834488,90.806847 201.436737,95.277321 
	C201.193405,98.012054 202.942871,101.755341 205.047256,103.676712 
	C208.365936,106.706726 213.845612,104.800484 216.027405,100.713699 
	C218.439529,96.195541 216.611526,92.053787 210.173920,89.063057 
z"/>
<path fill="#F47C20" opacity="1.000000" stroke="none" 
	d="
M256.993805,425.165680 
	C278.485565,425.110443 299.977264,425.023926 321.469055,425.007141 
	C355.794922,424.980377 390.120850,424.994537 424.446747,425.002808 
	C437.189362,425.005859 442.821869,431.771912 440.424042,444.151184 
	C437.061188,461.512726 423.312836,472.954315 405.390137,472.975830 
	C356.234344,473.034912 307.078369,472.982788 257.459747,472.446442 
	C256.995941,456.334045 256.994873,440.749847 256.993805,425.165680 
z"/>
<path fill="#F8BF2C" opacity="1.000000" stroke="none" 
	d="
M256.988800,233.165527 
	C268.151031,233.110184 279.313293,233.010376 290.475525,233.007034 
	C345.472626,232.990601 400.469696,232.985352 455.466797,233.011032 
	C467.634949,233.016724 475.193665,242.376114 472.033356,253.370300 
	C469.963989,260.569366 463.742584,264.975922 455.338928,264.986694 
	C427.673798,265.022186 400.008545,264.997864 372.343353,265.001373 
	C354.358826,265.003662 345.005890,274.394135 345.000916,292.444885 
	C344.998474,301.277740 345.026062,310.110718 344.991394,318.943451 
	C344.967743,324.977844 342.010254,328.778320 337.431824,328.795013 
	C332.024323,328.814728 329.031372,325.278046 329.008331,318.707367 
	C328.974457,309.041351 329.063751,299.374542 328.983276,289.709076 
	C328.863953,275.375732 318.680481,265.110382 304.414337,265.021851 
	C288.915894,264.925690 273.416443,264.987183 257.455994,264.449036 
	C256.992645,253.667282 256.990723,243.416397 256.988800,233.165527 
z"/>
<path fill="#6D4D42" opacity="1.000000" stroke="none" 
	d="
M256.958008,328.780792 
	C250.947525,329.117554 245.756546,326.919891 241.471985,322.985138 
	C229.152130,311.671143 207.044205,308.676086 191.468536,321.362640 
	C178.341400,332.054840 169.440750,331.468933 155.860123,321.442352 
	C140.107193,309.811951 124.318626,309.733185 108.518341,321.433502 
	C101.461456,326.659149 93.993942,331.141693 85.038460,328.123901 
	C74.608841,324.609406 65.614380,318.164917 59.417881,309.115204 
	C51.958344,298.220825 60.977154,282.290802 74.645050,281.066254 
	C75.472565,280.992096 76.309319,281.004211 77.141769,281.004395 
	C136.774704,281.017944 196.407623,281.034363 256.512848,281.562256 
	C256.976074,297.642914 256.967041,313.211853 256.958008,328.780792 
z"/>
<path fill="#F68C1E" opacity="1.000000" stroke="none" 
	d="
M256.530273,425.094666 
	C256.994873,440.749847 256.995941,456.334045 256.995361,472.376282 
	C229.512146,472.889709 202.030594,472.962494 174.549011,472.994965 
	C152.394272,473.021149 130.238937,473.091614 108.084846,472.968475 
	C90.249367,472.869354 76.271385,460.758636 73.340561,443.183228 
	C71.471313,431.973816 77.241478,425.056427 88.529594,425.003906 
	C93.829041,424.979279 99.128700,424.999695 104.926559,424.999695 
	C104.621559,435.139282 105.141129,445.174866 114.057571,451.260986 
	C118.475853,454.276764 124.352425,456.496368 129.637604,456.645020 
	C144.235168,457.055603 151.263580,447.275879 153.372009,425.023621 
	C187.565292,425.023621 221.816040,425.023621 256.530273,425.094666 
z"/>
<path fill="#FDD837" opacity="1.000000" stroke="none" 
	d="
M256.525879,233.092102 
	C256.990723,243.416397 256.992645,253.667282 256.991638,264.376312 
	C245.660385,264.889618 234.332062,264.988922 223.003723,264.992401 
	C168.675674,265.009125 114.347626,265.004456 60.019585,264.983276 
	C57.864338,264.982452 55.644024,265.025360 53.565628,264.554932 
	C45.811089,262.799713 40.452190,255.641541 41.038719,248.122849 
	C41.625881,240.596115 48.316223,233.884567 56.085232,233.075668 
	C57.240978,232.955322 58.416054,233.002655 59.582188,233.002701 
	C125.075790,233.005997 190.569382,233.012512 256.525879,233.092102 
z"/>
<path fill="#E33A35" opacity="1.000000" stroke="none" 
	d="
M256.981934,360.838257 
	C226.158142,360.892975 195.334351,360.956299 164.510544,360.999176 
	C146.412460,361.024323 137.003952,370.336334 137.005341,388.295929 
	C137.006348,401.459717 137.043869,414.623505 137.036774,427.787292 
	C137.035797,429.615417 137.055710,431.475037 136.748596,433.265625 
	C135.877411,438.345337 132.619720,441.200836 128.406525,440.792633 
	C124.135513,440.378815 121.113007,437.044434 121.040619,432.179016 
	C120.914192,423.682587 121.000046,415.182983 120.997673,406.684723 
	C120.995667,399.519501 121.085609,392.352905 120.973808,385.189392 
	C120.759583,371.462311 110.560738,361.231079 96.875626,361.026215 
	C88.878967,360.906494 80.874855,361.147308 72.882423,360.925629 
	C66.095642,360.737396 61.169125,357.282318 58.518509,351.045807 
	C55.847122,344.760468 57.284901,339.082397 60.872360,334.800232 
	C68.687798,338.082947 75.682884,342.001495 83.189346,343.947479 
	C94.850975,346.970612 105.623108,343.442932 115.065559,336.204559 
	C127.464867,326.699524 136.567444,326.185211 148.885666,335.862518 
	C159.200775,343.966125 170.459152,347.191864 182.981659,343.840576 
	C188.263382,342.427094 193.300491,339.292358 197.845169,336.084778 
	C211.021194,326.785339 219.867386,326.509918 232.782745,336.285461 
	C239.765457,341.570557 247.165100,345.252686 256.558167,345.548401 
	C256.988953,350.994843 256.985443,355.916565 256.981934,360.838257 
z"/>
<path fill="#D22E2E" opacity="1.000000" stroke="none" 
	d="
M257.447815,360.903259 
	C256.985443,355.916565 256.988953,350.994843 256.987183,345.617249 
	C266.014648,345.194519 273.703583,341.878296 280.858093,336.446686 
	C294.332825,326.216888 302.570343,326.367554 315.980896,336.389038 
	C332.096039,348.431732 350.117096,348.011230 365.898193,335.224335 
	C375.497589,327.446228 386.477844,326.903809 395.711365,333.751587 
	C415.802551,348.651642 430.977142,348.726654 451.972626,333.742279 
	C456.261414,338.080383 457.716370,343.136322 456.139954,349.069916 
	C454.447144,355.441772 449.216675,360.027130 442.723602,360.870544 
	C441.573547,361.019897 440.396729,360.996552 439.232269,360.996460 
	C378.792725,360.990906 318.353210,360.979248 257.447815,360.903259 
z"/>
<path fill="#5E4137" opacity="1.000000" stroke="none" 
	d="
M392.976501,314.853821 
	C381.804504,311.362122 371.599396,313.534485 361.148315,318.618774 
	C361.148315,307.881683 360.850647,297.785645 361.287323,287.721436 
	C361.475464,283.386078 364.911621,281.055176 369.298248,281.044678 
	C392.446564,280.989380 415.597961,280.815277 438.741882,281.140381 
	C446.728546,281.252594 452.580109,285.775391 455.550720,293.279449 
	C458.524323,300.790955 457.533508,307.883789 451.244934,313.319458 
	C445.974884,317.874786 440.473297,322.295166 434.560150,325.941620 
	C426.136749,331.136169 416.490631,329.562317 407.965271,323.332642 
	C403.464478,320.043762 398.256104,317.723267 392.976501,314.853821 
z"/>
<path fill="#378E43" opacity="1.000000" stroke="none" 
	d="
M256.013275,383.005432 
	C258.434357,378.094635 262.293518,376.774017 267.746399,376.864899 
	C288.037842,377.203125 308.338745,377.066162 328.634979,376.933228 
	C331.927887,376.911682 334.146179,377.842804 336.235931,380.462921 
	C342.665344,388.524170 349.386139,396.352783 355.972961,404.289001 
	C356.984314,405.507538 357.886475,406.816711 359.492889,408.953552 
	C324.952057,408.953552 291.432068,408.953552 257.450928,408.437683 
	C256.993591,405.129333 257.105530,402.331909 256.978333,399.545410 
	C256.726532,394.028900 256.342590,388.518402 256.013275,383.005432 
z"/>
<path fill="#5E4137" opacity="1.000000" stroke="none" 
	d="
M257.361633,328.829773 
	C256.967041,313.211853 256.976074,297.642914 256.976624,281.617065 
	C272.745361,281.109985 288.522614,281.041565 304.299896,281.020996 
	C308.888245,281.014984 312.469757,283.221802 312.718384,287.795258 
	C313.202148,296.693542 312.860077,305.636719 312.860077,315.161987 
	C310.660034,314.705933 309.082214,314.393829 307.511139,314.050812 
	C294.651093,311.243347 283.436432,314.400024 272.916382,322.293182 
	C268.631226,325.508301 262.860229,326.743011 257.361633,328.829773 
z"/>
<path fill="#378E43" opacity="1.000000" stroke="none" 
	d="
M458.456268,377.069214 
	C468.467957,379.451752 473.876160,386.266937 472.907227,394.755768 
	C471.933746,403.284515 464.999634,408.970123 455.383484,408.988800 
	C436.759369,409.024994 418.135101,409.003754 399.510895,408.990967 
	C398.215027,408.990082 396.919220,408.862518 394.975494,408.759521 
	C395.901825,407.304169 396.456879,406.188660 397.230713,405.254364 
	C404.230652,396.803528 411.153412,388.282959 418.395721,380.043793 
	C419.798950,378.447388 422.473419,377.186493 424.595032,377.134338 
	C435.729095,376.860504 446.873962,377.024933 458.456268,377.069214 
z"/>
<path fill="#429F47" opacity="1.000000" stroke="none" 
	d="
M91.874336,376.998444 
	C103.145882,377.009674 104.999573,378.895447 105.001472,389.867584 
	C105.002533,396.002686 105.001663,402.137787 105.001663,408.634735 
	C103.194649,408.776245 101.758537,408.983887 100.322060,408.986389 
	C86.331528,409.010620 72.340782,409.041046 58.350426,408.986603 
	C48.227962,408.947235 40.988441,402.189758 41.013618,392.952454 
	C41.038857,383.695251 48.237843,377.055450 58.416256,377.010406 
	C69.408638,376.961792 80.401398,376.998779 91.874336,376.998444 
z"/>
<path fill="#429F47" opacity="1.000000" stroke="none" 
	d="
M169.003189,409.001556 
	C163.554810,409.001556 158.605530,409.001556 153.122879,409.001556 
	C153.122879,400.301147 152.987961,392.053223 153.239563,383.817108 
	C153.288422,382.218201 154.531006,380.342316 155.761673,379.150543 
	C159.791779,375.247955 172.573654,376.206543 176.165070,380.504395 
	C183.793640,389.633484 191.403961,398.777863 199.926727,409.001556 
	C188.898117,409.001556 179.200195,409.001556 169.003189,409.001556 
z"/>
<path fill="#F8BF2C" opacity="1.000000" stroke="none" 
	d="
M216.988312,377.165497 
	C224.237396,377.165497 231.486481,377.165497 239.771667,377.165497 
	C232.029175,386.450195 224.857315,395.063263 217.638062,403.636475 
	C217.451797,403.857697 216.746399,403.641754 216.389343,402.968872 
	C216.659851,393.927216 216.824081,385.546356 216.988312,377.165497 
z"/>
<path fill="#F8BF2C" opacity="1.000000" stroke="none" 
	d="
M376.988800,377.165527 
	C384.237762,377.165527 391.486725,377.165527 399.771606,377.165527 
	C392.029083,386.450256 384.857239,395.063324 377.638000,403.636475 
	C377.451752,403.857635 376.746368,403.641663 376.389313,402.968811 
	C376.660004,393.927246 376.824402,385.546387 376.988800,377.165527 
z"/>
<path fill="#FDD837" opacity="1.000000" stroke="none" 
	d="
M216.525513,377.092102 
	C216.824081,385.546356 216.659851,393.927216 216.272766,402.656738 
	C208.969727,394.679657 201.889557,386.353882 193.951019,377.018707 
	C202.038055,377.018707 209.050385,377.018707 216.525513,377.092102 
z"/>
<path fill="#FDD837" opacity="1.000000" stroke="none" 
	d="
M376.525940,377.092102 
	C376.824402,385.546387 376.660004,393.927246 376.272736,402.656738 
	C368.969727,394.679596 361.889557,386.353760 353.951141,377.018707 
	C362.038239,377.018707 369.050659,377.018707 376.525940,377.092102 
z"/>
<path fill="#429F47" opacity="1.000000" stroke="none" 
	d="
M255.737823,383.192017 
	C256.342590,388.518402 256.726532,394.028900 256.978333,399.545410 
	C257.105530,402.331909 256.993591,405.129333 256.984131,408.379456 
	C249.881393,408.837097 242.784271,408.837097 234.222549,408.837097 
	C241.711426,399.860779 248.586899,391.619690 255.737823,383.192017 
z"/>
<path fill="#0B0502" opacity="1.000000" stroke="none" 
	d="
M305.002228,104.988693 
	C299.778168,104.321533 296.994110,101.589142 297.074615,96.681160 
	C297.143372,92.487572 299.680847,89.806503 303.750793,89.138733 
	C307.860657,88.464417 310.904724,90.373512 312.463501,94.247543 
	C314.408264,99.080788 311.534912,103.356743 305.002228,104.988693 
z"/>
<path fill="#0B0502" opacity="1.000000" stroke="none" 
	d="
M257.356873,105.085838 
	C252.345291,104.454170 249.153397,102.090782 249.071518,97.116852 
	C248.994553,92.441612 251.748169,89.827492 256.629089,88.912384 
	C261.648865,89.532204 264.833771,91.919182 264.918884,96.873657 
	C264.999023,101.536484 262.219452,104.149429 257.356873,105.085838 
z"/>
<path fill="#0B0502" opacity="1.000000" stroke="none" 
	d="
M210.559753,89.131355 
	C216.611526,92.053787 218.439529,96.195541 216.027405,100.713699 
	C213.845612,104.800484 208.365936,106.706726 205.047256,103.676712 
	C202.942871,101.755341 201.193405,98.012054 201.436737,95.277321 
	C201.834488,90.806847 205.520996,88.725510 210.559753,89.131355 
z"/>
</svg>