<?xml version="1.0" encoding="utf-8"?>
<!-- Generator: Adobe Illustrator 28.1.0, SVG Export Plug-In . SVG Version: 6.00 Build 0)  -->
<svg version="1.1" xmlns="http://www.w3.org/2000/svg" xmlns:xlink="http://www.w3.org/1999/xlink" x="0px" y="0px"
	 viewBox="0 0 595.3 489" style="enable-background:new 0 0 595.3 489;" xml:space="preserve">
<style type="text/css">
	.st0{display:none;}
	.st1{display:inline;fill:#030201;}
	.st2{display:inline;fill:#F0F0EF;}
	.st3{display:inline;fill:#D6382D;}
	.st4{display:inline;fill:#D5382C;}
	.st5{display:inline;fill:#EEBC2B;}
	.st6{display:inline;fill:#E4B836;}
	.st7{display:inline;fill:#D3AF40;}
	.st8{display:inline;fill:#EEB633;}
	.st9{display:inline;fill:#E2B635;}
	.st10{display:inline;fill:#E6E5E3;}
	.st11{display:inline;fill:#E9BA2F;}
	.st12{display:inline;fill:#E8B43A;}
	.st13{display:inline;fill:#E0B93F;}
	.st14{display:inline;fill:#BE9C3E;}
	.st15{display:inline;fill:#CFAD43;}
	.st16{display:inline;fill:#DDDBDA;}
	.st17{display:inline;fill:#DEDCDB;}
	.st18{display:inline;fill:#DBDADA;}
	.st19{display:inline;fill:#BA452B;}
	.st20{display:inline;fill:#DCDAD9;}
	.st21{display:inline;fill:#DAD9D7;}
	.st22{display:inline;fill:#903828;}
	.st23{display:inline;fill:#D4D2D0;}
	.st24{display:inline;fill:#943F31;}
	.st25{display:inline;fill:#D0AD46;}
	.st26{display:inline;fill:#E7B33F;}
	.st27{display:inline;fill:#D6D5D4;}
	.st28{display:inline;fill:#DDDAD8;}
	.st29{display:inline;fill:#E8C24E;}
	.st30{display:inline;fill:#E7B03E;}
	.st31{display:inline;fill:#E0DEDC;}
	.st32{display:inline;fill:#E3E2E1;}
	.st33{display:inline;fill:#4E3808;}
	.st34{display:inline;fill:#99864C;}
	.st35{display:inline;fill:#131212;}
	.st36{display:inline;fill:#121211;}
	.st37{display:inline;fill:#151514;}
	.st38{display:inline;fill:#151413;}
	.st39{display:inline;fill:#1B1B1B;}
	.st40{display:inline;fill:#1A1A19;}
	.st41{display:inline;fill:#070202;}
	.st42{display:inline;fill:#D6B142;}
	.st43{display:inline;fill:#FDFDEC;}
	.st44{display:inline;fill:#E5BF4C;}
	.st45{display:inline;fill:#FEF4C3;}
	.st46{display:inline;fill:#FADB6A;}
	.st47{display:inline;fill:#EEC33D;}
	.st48{display:inline;fill:#D7AE40;}
	.st49{display:inline;fill:#FEF3BC;}
	.st50{display:inline;fill:#EAC95C;}
	.st51{display:inline;fill:#FBE175;}
	.st52{display:inline;fill:#FCEEA6;}
	.st53{display:inline;fill:#EAC64E;}
	.st54{display:inline;fill:#F6C128;}
	.st55{display:inline;fill:#F5C124;}
	.st56{display:inline;fill:#E0BD4D;}
	.st57{display:inline;fill:#D24427;}
	.st58{display:inline;fill:#D74327;}
	.st59{display:inline;fill:#CF4A22;}
	.st60{display:inline;fill:#752518;}
	.st61{display:inline;fill:#F6C126;}
	.st62{display:inline;fill:#FCEC99;}
	.st63{display:inline;fill:#FBDB68;}
	.st64{display:inline;fill:#EEBC2E;}
	.st65{display:inline;fill:#F5C327;}
	.st66{display:inline;fill:#D24D26;}
	.st67{display:inline;fill:#F4C22D;}
	.st68{display:inline;fill:#0C0801;}
	.st69{display:inline;fill:#E5BE49;}
	.st70{display:inline;fill:#FDFBE3;}
	.st71{display:inline;fill:#FEF5C5;}
	.st72{display:inline;fill:#F9E493;}
	.st73{display:inline;fill:#8A6512;}
	.st74{display:inline;fill:#FBE38C;}
	.st75{display:inline;fill:#0A0701;}
	.st76{display:inline;fill:#DC3B2B;}
	.st77{fill:#FFFFFF;stroke:#000000;stroke-miterlimit:10;}
</style>
<g id="Layer_1" class="st0">
	<path class="st1" d="M553.6,169c0,107.3,0,214.2,0,321c-170,0-340,0-510,0c0-163,0-326,0-489c170,0,340,0,510,0
		C553.6,56.8,553.6,112.7,553.6,169 M319.4,148.7c0,0,0-0.1,0.6,0.1c0.4-0.3,0.9-0.7,1.4-1c0,0,0-0.1,0.7-0.3c0.9-3.9-2-3.5-4.2-3.4
		c-8.9,0.2-17.8,0.7-26.8,0.8c-8,0.2-15.9,0-23.9,0.2c-1.6,0-3.1,1-4.7,1.7c0,0-0.2,0.2-0.5,0.4c0.2,0.2,0.4,0.4,1.2,0.9
		c0.5,0.3,1,0.5,1.8,1.3c0.3,0,0.7,0,1.5,0.1c0,0,0.4,0.2,0.6,0.9c0.9,0.1,1.8,0.3,2.7,0.6c0,0,0.1-0.2,0.3,0.4
		c0.6,0.1,1.2,0.1,1.9,0.2c0,0,0.1,0,0.2,0.7c5.2,1.5,10.3,3.7,15.6,4.3c9.1,1,17.9-0.6,25.9-5.6c0,0,0,0,0.8,0.1
		c0.9-0.5,1.9-1,2.9-1.6c0,0,0.1,0,0.7,0.2C318.5,149.4,318.9,149,319.4,148.7 M247.9,418.4c0.2,0.3,0.5,0.4,1.1,1.1
		c4.5,2.8,9.1,5.7,14,9.1c8.6,4.9,17.1,10.2,26,14.6c2.3,1.2,6.4,1,8.7-0.3c13.5-7.7,26.9-15.7,39.8-24.3c5.8-3.8,10.4-9.3,16-14.4
		c-0.2-0.5-0.4-1.3-0.7-1.4c-6.6-1.5-13.2-3.2-19.8,0.2c-11.7,5.9-23.4,11.9-35.4,17.3c-2.6,1.2-6.7,1.3-9.3,0.1
		c-12-5.4-23.6-11.4-35.5-17.1c-1.8-0.9-3.7-1.9-5.5-1.9c-5.8,0-11.6,0.6-17.9,0.9c0.2,0.4,0.4,0.8,1,1.4c0,0,0.4,0.2,0.5,0.9
		c4.5,3.6,8.9,7.2,13.8,11.3C245.5,416.7,246.6,417.3,247.9,418.4 M390.9,142c-0.8,1-1.6,1.9-2.3,2.9c0,0,0-0.1-0.7-0.1
		c-4,2.2-8,4.3-12.5,6.8c14.6,6.4,26.3,15.6,36.3,27.1c3.8,4.3,7.2,8.9,11.1,14.1c15.1,21.4,22.9,45.1,23.7,71.9
		c2.1-1.3,3.3-3.1,4.6-4.8c5.2-6.5,10.9-12.7,15.4-19.6c16-24.2,15.6-47-1.2-70.5c-6.6-9.2-13.6-18.1-20.9-26.7
		c-9.6-11.5-13-24.2-8.3-38.6c1.7-5.4,4.2-10.5,6.7-15.5c2.2-4.3,5-8.3,8.1-13.5c-20.5,6.4-38.9,14.4-53.6,28.8
		c-3.6,3.6-5.8,8.7-9.3,13.5c-2.3,3-1.5,5.4,0.9,8.2c4,4.6,6.9,9.7,2.8,15.8C391.5,141.9,391.5,141.8,390.9,142 M346.2,93
		c0.2,0.3,0.5,0.6,1,1.5c3.8,1.5,7.7,3.1,11.5,4.6c0.3-0.5,0.7-0.9,1-1.4c-7.4-18.9-15.4-37.4-35.1-48c0.5-3.1,1.3-6.7,1.5-10.3
		c0.1-1.4-1.2-2.8-2.4-4.7c-0.2-0.1-0.4-0.3-0.7-1c-0.8-0.1-1.5-0.2-3-0.5c-2.4-1.2-6.5-1.9-7.1-3.7c-3.1-9.4-9.5-15.5-18-19.6
		c-1.5-0.7-3.9-0.5-5.5,0.2c-7.8,3.8-13.4,9.8-16.5,17.9c-1.2,3.1-2.8,4.6-6.3,5.2c-2.2,0.4-5.6,2.7-5.7,4.3
		c-0.6,8.5,1.5,16.6,5.7,24.5c17.8-8.6,35.2-7.5,52.8,0.2c1.2-3.2,2.1-5.7,3.7-7.5c0.2,2.4,0.5,4.8,0.5,7.9c0.6,0.8,0.9,1.7,1.7,2.3
		c9.3,6.7,15.6,15.7,19.8,26.6C345.3,91.8,345.6,92.2,346.2,93 M236.9,94.4l0.4-0.1c0,0,0-0.3,0.7-0.6c0.7-0.7,1.7-1.2,2-2.1
		c4.7-10.5,10.9-19.8,20.3-26.8c0.8-0.6,0.6-2.7,1-4.9c-0.9-3-1.8-6-2.7-9c-13.3,4.7-32.5,38.3-30.4,47.6c2.4-1.4,4.5-2.7,7.3-4
		C235.8,94.5,236.3,94.3,236.9,94.4 M107.8,320.6c0.6,0.8,1,1.8,1.7,2.4c5.9,4.8,11.5,10,17.9,13.9c2.3,1.4,6.7-0.3,10-1
		c6.1-1.2,12.1-2.7,18.4-4.1c-7-13.7-11.9-27.4-14.1-42c-0.2-1.6-2-3.2-3.4-4.4c-6.1-5.1-12.6-9.8-18.3-15.2
		c-10.5-9.9-19.1-21.1-20.7-36.3c0-0.2-0.5-0.3-1.2-0.6c-5.9,8.5-6.9,17.6-2.9,26.9c3.4,7.9,7.9,15.2,12,23.3c0.2,0.3,0.5,0.6,1,1.7
		c0.1,0.2,0.3,0.5,0.2,1.5c0.9,4.4,1.8,8.8,2.6,14c0,0.8,0.1,1.6-0.1,3.3c0,3.2,0,6.5,0,9.7c-0.3,0.1-0.5,0.2-0.8,0.3
		c-1.4-2.6-2.7-5.2-4.1-7.7c-0.6,0.2-1.3,0.4-1.9,0.6C105.2,311.2,106.4,315.6,107.8,320.6 M348.1,333.1
		c-87.3-8.4-172.3,4.1-257.1,28c2.1,1.3,3.2,2.1,4.5,2.8c7.2,3.5,14.2,7.4,21.6,10.4c4.8,1.9,5.5,4.4,4.4,9.1
		c-2,8.2-3.3,16.5-5.1,25.7c117.5-32.9,234.3-34,351.8-0.2c-2-11.4-3.8-21.5-5.5-31.4c10.6-5.5,20.8-10.7,32.1-16.6
		C445.6,348.5,398.1,336.9,348.1,333.1 M238.1,217.9c-7.4,3.8-14.7,7.5-22.3,11.3c0-6.2-0.5-12.4,0.1-18.4c0.8-6.8,1.8-13.7,7.3-19
		c5.3-5.1,13.3-7.4,18.6-4.7c6.4,3.1,9.6,9.4,8.1,16.6c-0.5,2.5-1.7,5-2.9,7.3c-1.9,3.3-0.7,5.6,2.4,6.7c2.7,1,5.8,1.3,8.6,2.2
		c11.8,3.7,22.3-1.7,26.4-13.3c6-16.6-3.7-34.7-17.6-42.4c-13.4-7.4-27.7-8.8-42.5-6.4c-23.6,3.8-43.6,25.4-44.9,49.1
		c-0.8,14.3-0.7,28.6-0.4,43c0.2,10.4,0.5,21,2.6,31.1c2.6,12.4,9.2,22.9,20.1,30.3c11.1,7.6,23.6,9.2,36.7,8.9
		c27.1-0.6,47.3-19.3,50.3-45.1c2-17.4-2.7-32.2-17.7-42.8C261.2,225.4,250,221.9,238.1,217.9 M312,165.8c-11,7.4-17,17.8-19,30.8
		c-0.6,3.7,0.9,5.3,4.2,5.7c8.1,0.9,16.1,1.6,24.2,2.7c4.1,0.5,5.7-0.9,7.1-4.8c1.5-4.1,4.1-8.3,7.2-11.4c4.7-4.7,14.1-4.6,20-0.7
		c5.8,3.9,8.5,10.4,5.3,17.5c-2.3,5.3-6,10.5-10.3,14.3c-10.2,9.2-21.2,17.6-31.6,26.5c-9,7.7-17,16.4-22.6,26.9
		c-6.4,12-7.9,24.9-7.8,38.3c0,4,1.4,5.1,5.3,5.1c15.2-0.2,30.3-0.2,45.5-0.1c17.1,0.1,34.2,0.6,51.3,0.7c3.7,0,6.9-1,6.5-6.4
		c-0.4-5.6,0.3-11.2,0.6-16.8c0.5-8.2-0.4-9.2-8.6-9.1c-16.2,0-32.3,0.1-48.5,0.1c-3.4,0-6.9-0.3-11.4-0.6c2.2-3.2,3.3-5.7,5.2-7.5
		c8.1-7.8,16.1-15.8,24.8-22.8c12.9-10.4,26.1-20.4,34-35.6c5.3-10.3,7.8-21.2,3.6-32.2c-6-15.9-18.5-24.7-34.8-28.1
		C345.1,154.7,328.4,157,312,165.8 M416.6,299.1c-3.7,9.5-7.5,19.1-11.2,28.6c8.5,3.2,9.3,2.9,13.2-4.9
		c10.1-20.3,13.9-41.9,12.6-64.5c-1.2-20.9-8.5-39.7-20.6-57.8c-0.2,2.9-0.3,4.8-0.4,6.8c-0.2,2.2-0.6,4.3-0.6,6.5
		c0,1.8,0.1,3.7,0.8,5.3C423,244.6,423.8,271.1,416.6,299.1 M108.1,218.2c4.8,18,16.2,31.7,29.7,45.7c1.2-2.7,2.7-4.6,2.8-6.5
		c1.4-25.8,11-48.5,25.8-69.2c10.9-15.2,23.6-28.4,41.4-35.6c0.7-0.3,1.2-0.9,1.9-1.5c-4.2-2.5-8.2-4.5-11.8-7.1
		c-5.6-4.1-6.5-10.1-2.8-15.8c4.4-6.7,4.3-9.2-0.3-16c-10.8-15.9-27.1-24.1-44.1-31.4c-4.9-2.1-10.1-3.5-15.1-5.3
		c2.1,5.4,5.1,9.6,7.6,14c9.6,17.5,12.5,35.4-2.7,53.2c-9.1,10.7-17.4,22.3-25.3,34C107,189,105.1,202.8,108.1,218.2 M166.7,214.5
		c-18.7,36-16.8,72.1-0.3,108.2c3.3,7.3,5.9,7.9,13.9,4.4c-1.2-2.2-2.4-4.4-3.5-6.6c-12.6-25.4-16.2-51.8-10.1-79.6
		c2-9.2,2.5-18.8,3.6-28.2c-0.8-0.3-1.6-0.7-2.3-1C167.7,212.4,167.4,213.2,166.7,214.5 M257.6,130.9c-7.9-0.8-15.9-1.4-23.8-2.4
		c-2.1-0.3-4-1.7-7.4-3.2c-3.4,1.5-8.3,3.7-13.2,5.8c0.1,0.5,0.1,1.1,0.2,1.6c2.6,0.8,5.1,2,7.8,2.3c7.9,0.9,15.9,2,23.8,2
		c32.6,0.2,65.3,0.1,97.9-0.1c7.5-0.1,14.9-1.1,22.3-2c2.2-0.2,4.3-1.3,6.4-1.9c0.1-0.6,0.2-1.2,0.4-1.9c-5.1-2.3-10.2-4.7-14-6.4
		c-3.4,1.7-5.6,3.6-7.9,3.9C319.7,132.1,289.2,134.6,257.6,130.9 M384.4,409.5c0.8-1.1,1.6-2.1,2.4-3.3c-7.9-2.3-13.6-0.4-19.7,4.4
		c-14.2,11-29.3,20.8-44,31c-1,0.7-2.1,1.4-3.9,2.6c6.8,3.8,13.1,7.1,19.2,10.6c3,1.8,4.8,1.2,7.1-1.5
		C358.3,438.8,371.2,424.4,384.4,409.5 M438.5,310.1c-3,7.3-6.1,14.6-9.3,22.4c6.7,1.3,13.2,2,19.3,4c9.5,3.2,16.1-1.6,22.3-7.1
		c5.3-4.8,9.1-10.7,8-18.5c-0.1-0.4-0.5-0.7-0.8-1.1c-1.2,0.9-2.2,1.6-3.5,2.6c-0.9-14.6,1.1-27.7,9.5-39.4c5.7-8,9.6-16.7,8.4-27
		c-0.6-4.8-2.5-8.9-5.8-12.6c-1.3,9.6-4.5,18.2-10.8,25c-8,8.6-16.6,16.8-25.5,24.4c-4,3.4-6.9,6.7-7.7,12
		C441.9,299.8,440.1,304.5,438.5,310.1 M201.6,410.5c1.9,2.1,3.9,4.1,5.8,6.2c10.9,12.3,21.7,24.6,32.7,36.8
		c1.1,1.2,3.4,2.7,4.3,2.3c7.5-3.7,14.8-7.7,22.4-11.8c-9.1-5.6-17.7-10.4-25.7-15.9c-8.2-5.7-16.4-11.5-23.5-18.4
		c-5.9-5.6-11.7-5.6-19.1-3.3C199.4,407.8,200.2,408.9,201.6,410.5 M267.2,123.7c4.4,0.3,8.8,0.5,13.4,0.8
		c-1-3.8-21.4-17.3-31.2-21.2c-1.2,5.6-2.4,11.2-3.7,17.2C252.9,121.7,259.6,122.7,267.2,123.7 M338.1,116.3c-0.9-4-1.7-8-2.6-12.1
		c-1,0.2-1.6,0.2-2,0.5c-8.6,5-17.2,10-25.8,15.1c-1.1,0.6-1.6,2.1-2.4,3.2c1.3,0.4,2.6,1.4,3.9,1.3c8.9-0.9,17.8-2.1,26.7-3.1
		C338.9,120.9,339.1,119.3,338.1,116.3 M299,79.1c0.7-3.2,1.4-6.4,2.2-10.2c-6,0-11.1,0-16.9,0c2.5,12.4,4.9,24,7.3,35.7
		c0.7,0,1.4,0,2.1,0C295.4,96.3,297.1,88.2,299,79.1 M317.5,91.3c-4.3,6.8-8.6,13.6-13,20.4c0.6,0.5,1.1,1,1.7,1.5
		c9.1-5.5,18.1-11.1,27.8-17c-3.5-5.1-6.5-9.5-9.9-14.6C321.6,85.3,319.7,88,317.5,91.3 M257.9,100.2c7.3,4.3,14.6,8.6,21.9,12.8
		c0.5-0.6,0.9-1.1,1.4-1.7c-6.4-9.6-12.9-19.3-19.9-29.8c-3.6,5.5-6.5,10-9.6,14.7C254,97.7,255.6,98.8,257.9,100.2 M300.4,104.1
		c5.5-8.4,11-16.8,16.4-25.3c0.4-0.6-0.2-2.4-0.9-2.8c-2.3-1.5-4.8-2.6-7.3-4c-3.1,10.2-6.1,19.7-9,29.3
		C299.3,102.2,300.1,103.4,300.4,104.1 M278.3,75.6c-0.4-1.2-0.8-2.4-1.4-4.2c-3.3,2-6.1,3.8-9.2,5.7c5.5,9.1,10.7,17.6,15.9,26.2
		c0.5-0.2,0.9-0.4,1.4-0.6C282.9,93.9,280.7,85.1,278.3,75.6 M376.3,120.9c-6.9-5.5-15-7.9-23.8-10.3c0.7,4.2,2,6.5,5.7,8
		c7.6,3,15.8,5.4,20.4,13.2C382.5,127.7,382.2,125.8,376.3,120.9 M228.1,112.2c-4.2,1.6-8.6,2.8-12.5,4.9c-3.6,1.9-7,4.5-9.8,7.4
		c-2.5,2.6-2.1,5.6,0.6,6.7c3.5-3,6.1-5.7,9.1-7.6c3.1-1.9,6.5-3.3,10-4.3c3.9-1.1,6.1-3.5,7.3-7.9
		C231.3,111.7,230,111.9,228.1,112.2 M295.9,125.9c1-1,2.4-1.9,3-3.2c1.7-3.2,1.6-6.5-1.5-8.9c-3.1-2.4-6.4-2.7-9.5-0.2
		c-3,2.4-3.3,5.7-1.6,8.9C288.2,126,291.5,127,295.9,125.9z"/>
	<path class="st2" d="M348.6,333.2c49.5,3.7,97,15.3,146.2,27.7c-11.2,5.8-21.4,11.1-32.1,16.6c1.7,9.9,3.5,19.9,5.5,31.4
		C350.7,375,234,376.2,116.5,409.1c1.8-9.2,3.1-17.5,5.1-25.7c1.1-4.6,0.3-7.1-4.4-9.1c-7.4-3-14.4-6.9-21.6-10.4
		c-1.3-0.6-2.4-1.5-4.5-2.8C175.8,337.2,260.8,324.7,348.6,333.2 M246.5,375.9c3.6-9,0.2-15.9-9.5-18.6c-3.3-0.9-6.9-1.1-10.2-2.2
		c-1.5-0.5-2.5-2.3-3.7-3.5c1.3-1.3,2.5-3.3,4-3.8c4.9-1.5,8.7,0.4,11,4.9c2.5-0.7,4.7-1.3,7-1.9c-1.7-6-5.3-9.2-11-10
		c-6.3-0.8-12.4-0.5-16.8,5c-3.4,4.2-2.5,11.2,2,14.2c2.9,2,6.6,2.9,10,4c2.5,0.8,5.3,0.9,7.7,1.9c3.3,1.4,3.8,5.1,1.4,7.3
		c-3,3-11,2.9-13.1-0.8c-2.3-4.2-5.2-3.5-8.8-2.8c0.3,5.1,2.6,8.8,6.8,11C230,384.1,240.4,382.2,246.5,375.9 M344.3,380.3
		c-4.4-12.9-8.5-25.8-13.3-38.6c-0.6-1.5-4.2-2.2-6.6-2.5c-1.4-0.2-3.8,0.8-4.3,1.9c-5.7,12.5-11.1,25.1-16.9,38.4
		c4-0.5,8.2,2.6,9.6-2.7c1.6-6.2,5.3-7.7,11-6.4c1.9,0.4,4.1-0.2,5.9,0.4c1.6,0.5,3.9,1.8,4.2,3.1
		C335.2,379.3,338.4,381.2,344.3,380.3 M302.5,346c-2.7-2.3-5.1-6.1-8-6.5c-7.3-0.9-14.8-0.3-22.3-0.3c0,13.5,0,26.7,0,39.9
		c2.9,0,5.4,0,8.3,0c0-5.2,0-10.1,0-15C301.2,362.1,304.9,359.2,302.5,346 M353.8,348c1.6,0.3,3.1,0.6,4.6,0.9
		c-1.6,11.2-3,21.8-4.6,32.8c3,0.2,5.3,0.4,7.8,0.6c1.7-11,3.3-21.5,4.9-32.2c3.9,0.3,7.2,0.5,10.9,0.7c0.4-2.2,0.8-4.1,1.2-6.5
		c-10.5-1.1-20.3-2.1-30.5-3.1c-0.3,2.4-0.5,4.1-0.8,5.9C349.7,347.5,351.4,347.7,353.8,348 M254.6,346.6c0.5,11,1.1,21.9,1.6,32.8
		c3,0,5.5,0,8.1,0c-0.7-13.7-1.4-26.9-2-40c-2.8,0-5.1,0-7.7,0C254.6,341.7,254.6,343.7,254.6,346.6 M148.7,377.2
		c-2.7-5.3,2.6-6.8,6.2-10.9c-9.2,3-10.4-2.6-11.9-8.5c-1.6,6.6-4.5,11-12.6,9.5c6.7,3,7.9,7.1,4.2,13.2c4.7-3.3,8.9-5,13.1-0.6
		C148.1,379.4,148.4,378.7,148.7,377.2 M432.3,368.7c5.8,2.3,5.1,6.7,3.2,12.3c4.7-6.7,9.4-2.4,14.8-0.7c-3.6-6.1-1.4-9.9,3.7-13.5
		c-8.7,2.6-9.6-3.6-11.8-9.3c0.1,7.8-4.1,10-10.2,10.1C431.9,367.6,431.9,367.9,432.3,368.7z"/>
	<path class="st3" d="M238.5,217.9c11.5,3.9,22.6,7.5,32.4,14.4c15,10.6,19.7,25.4,17.7,42.8c-3,25.8-23.1,44.5-50.3,45.1
		c-13.1,0.3-25.6-1.3-36.7-8.9c-10.8-7.4-17.5-17.9-20.1-30.3c-2.1-10.1-2.4-20.7-2.6-31.1c-0.3-14.3-0.4-28.7,0.4-43
		c1.3-23.8,21.3-45.3,44.9-49.1c14.8-2.4,29.1-1,42.5,6.4c13.9,7.7,23.6,25.8,17.6,42.4c-4.2,11.6-14.7,17-26.4,13.3
		c-2.8-0.9-5.8-1.2-8.6-2.2c-3.1-1.2-4.2-3.4-2.4-6.7c1.3-2.3,2.4-4.8,2.9-7.3c1.5-7.2-1.7-13.5-8.1-16.6
		c-5.4-2.6-13.3-0.4-18.6,4.7c-5.4,5.3-6.5,12.2-7.3,19c-0.7,6.1-0.1,12.3-0.1,18.4C223.4,225.4,230.8,221.7,238.5,217.9
		 M216.9,262.1c-1.2,6.8-1.3,13.6,1.8,20c5.3,11.2,19.4,13.7,27.8,4.6c7.6-8.2,8.5-18.1,5.3-28.4c-3-9.7-11.9-14.4-21.6-11.5
		C223,249,219.2,254.4,216.9,262.1z"/>
	<path class="st4" d="M312.3,165.7c16.1-8.6,32.8-10.9,50.2-7.3c16.2,3.4,28.8,12.2,34.8,28.1c4.2,11,1.7,21.9-3.6,32.2
		c-7.9,15.2-21.1,25.1-34,35.6c-8.7,7-16.7,15.1-24.8,22.8c-1.9,1.8-3,4.3-5.2,7.5c4.5,0.2,8,0.6,11.4,0.6c16.2,0,32.3-0.1,48.5-0.1
		c8.2,0,9,1,8.6,9.1c-0.3,5.6-1,11.3-0.6,16.8c0.4,5.4-2.8,6.4-6.5,6.4c-17.1-0.1-34.2-0.5-51.3-0.7c-15.2-0.1-30.3-0.1-45.5,0.1
		c-3.9,0-5.3-1.1-5.3-5.1c-0.1-13.3,1.4-26.3,7.8-38.3c5.6-10.6,13.6-19.3,22.6-26.9c10.5-8.9,21.4-17.2,31.6-26.5
		c4.3-3.9,7.9-9,10.3-14.3c3.1-7.1,0.5-13.6-5.3-17.5c-5.9-3.9-15.3-4-20,0.7c-3.1,3.1-5.7,7.2-7.2,11.4c-1.4,3.9-3.1,5.3-7.1,4.8
		c-8-1-16.1-1.8-24.2-2.7c-3.4-0.4-4.8-2-4.2-5.7C295,183.6,300.9,173.2,312.3,165.7z"/>
	<path class="st5" d="M388.4,117.3c2.8-4.4,5-9.5,8.7-13c14.7-14.4,33.1-22.4,53.6-28.8c-3.1,5.2-5.9,9.2-8.1,13.5
		c-2.5,5-5,10.2-6.7,15.5c-4.6,14.4-1.3,27.1,8.3,38.6c7.2,8.7,14.3,17.5,20.9,26.7c16.8,23.5,17.2,46.3,1.2,70.5
		c-4.6,6.9-10.3,13-15.4,19.6c-1.3,1.7-2.5,3.5-4.6,4.8c-0.8-26.8-8.6-50.6-23.5-72.5c-2.1-4.5-4.3-8.5-6.7-12.7
		c0.8-0.2,1.7-0.4,2.8-0.3c6.4,6.3,12.9,12.1,18.7,18.6c2.7,3.1,4.1,7.3,6.1,11.5c1.5,4.4,2.9,8.3,4.4,12.2c0.5-0.1,1-0.3,1.5-0.4
		c0.4-1.1,0.7-2.1,1.4-3.2c0.8,0,1.2,0,1.7,0.3c0.3,0.8,0.7,1.2,1,2.1c-0.7,3.5-1.4,6.5-2.4,9.6c-0.7,0.7-1.2,1.4-1.6,2.3
		c1.3,0.8,2.6,1.2,4.2,1.6c0.8-1,1.2-2,1.8-3.3c0.6-1.6,1-2.9,1.4-4.5c0.1-0.6,0.2-0.9,0.7-1.4c4.2-6.1,6.1-12.6,5-20.2
		c0-2.8,0-5.2,0.2-7.9c0.6-5.2,0.3-9.9-3.8-13.5c-0.1,0-0.4,0.1-0.3-0.2c0.2-0.7,0.2-1.1,0.2-1.7c-0.2-0.2-0.4-0.2-0.8-0.3
		c-0.2,0-0.6,0-0.7-0.3c-0.1-1-0.3-1.6-0.3-2.6c-0.4-0.9-0.8-1.3-1.3-2c-0.1-0.1,0-0.5,0-0.8c-0.3-0.5-0.5-0.7-0.8-1
		c0.1-0.1-0.1,0-0.1-0.3c-0.3-0.5-0.6-0.7-1.1-0.9c-0.2,0-0.5-0.1-0.5-0.4c0-0.7-0.1-1.1-0.1-1.9c-1.4-2.1-2.7-3.9-4.1-5.7
		c0-0.1,0,0.1,0-0.3c-0.9-1.5-1.9-2.6-3.1-4c-0.4-0.7-0.7-1.2-0.7-1.8c0.1,0,0,0-0.4,0c-0.6-0.2-1-0.3-1.4-0.7c-0.4-0.6-0.7-1-1-1.7
		c-0.1-0.7-0.2-1.1-0.3-1.8c-1-1.4-2.1-2.5-3.1-3.7c0-0.1,0,0.1,0.1-0.3c-1.6-2.6-3.2-4.7-4.8-7.3c-2-3.1-3.9-5.9-6-8.7
		c-0.4-0.3-0.6-0.5-0.6-1c0.1-0.5-0.1-0.7-0.5-1c-0.1-0.2-0.2-0.6-0.1-0.9c-0.5-1-1.1-1.7-1.9-2.5c-0.4-0.3-0.6-0.4-0.8-1
		c-0.2-2-0.4-3.5-0.4-5.4c0.1-0.5,0.2-0.8,0.2-1.3c-0.6-1.5-1.3-2.6-2-4c-0.1-1.1-0.1-1.8-0.1-2.9c-0.3-1.8-0.6-3.3-1.2-5
		c-0.7,0.9-1.3,2.1-2.1,3.3c-1.1,1-1.9,2-3,3c-1.1,0.4-1.9,0.7-3,0.9c-5-0.7-4.8,3.4-6.3,6.3c-0.6,1.3-1,2.4-1.6,3.7
		c-0.4,0.5-0.6,0.8-1.2,1.2c-1.4,3.7-2.5,7.3-3.6,11.3c-0.4,1.8-0.7,3.2-1.3,4.8c-0.1,1.4,0,2.6,0.3,4.2c0.3,1.8,0.5,3.2,0.6,4.9
		c-0.3,3.6-0.4,7,3.5,8.7c0,0,0,0,0,0.3c0.6,0.8,1.1,1.3,1.8,2c0.1,0.2,0.2,0.6,0.2,0.8c0.3,0.5,0.6,0.7,1.1,1.1
		c0.4,0.4,0.6,0.7,0.7,1.3c0,1.1-0.1,1.9-0.1,2.5c-8.6-6.3-17.1-12.6-25.3-18.5c2.3-2.4,4.3-4.6,6.3-6.7c0,0,0,0.1,0.4,0.1
		c1.1-1,1.8-2.1,2.6-3.1c0,0,0,0.1,0.4,0.1c5-2.4,4.3-6.2,2.7-10C392.6,127,390.5,122.2,388.4,117.3z"/>
	<path class="st6" d="M416.7,298.7c7.1-27.6,6.3-54.1-6.4-79.7c-0.8-1.5-0.8-3.5-0.8-5.3c0-2.2,0.4-4.3,0.6-6.5
		c0.2-1.9,0.3-3.9,0.4-6.8c12.1,18.1,19.4,36.9,20.6,57.8c1.3,22.5-2.4,44.1-12.6,64.5c-3.9,7.8-4.6,8.1-13.2,4.9
		C409.1,318.2,412.8,308.6,416.7,298.7z"/>
	<path class="st7" d="M108,217.8c-2.9-14.9-1-28.8,7.3-41.1c7.9-11.7,16.1-23.3,25.3-34c15.2-17.8,12.3-35.7,2.7-53.2
		c-2.4-4.5-5.4-8.6-7.6-14c5,1.7,10.2,3.2,15.1,5.3c16.9,7.3,33.3,15.5,44.1,31.4c4.6,6.8,4.7,9.2,0.3,16
		c-3.7,5.7-2.8,11.7,2.8,15.8c3.6,2.6,7.6,4.6,11.8,7.1c-0.7,0.6-1.2,1.2-1.9,1.5c-17.8,7.2-30.5,20.4-41.4,35.6
		c-14.9,20.7-24.4,43.4-25.8,69.2c-0.1,1.9-1.6,3.8-2.8,6.5C124.4,249.9,113,236.2,108,217.8 M175.7,169c0,0,0.1,0,0.8,0
		c1.1-1,2.1-2,4-3c2.6-1.6,5.1-3.2,7.7-4.8c5.4-3.4,10.7-6.7,16.7-10.5c-2.4-1.3-4.7-2.3-6.7-3.6c-7.2-4.6-10.7-13-4-21.1
		c1.9-2.3,2.7-4.4,1-7.2c-2.5-4-4.3-8.5-7.3-12c-8-9.4-19-14.8-29.7-20.5c-5.3-2.8-11.1-4.6-17.8-7.3c3.9,7.9,7.9,14.1,9.9,20.9
		c2.1,7,2.2,14.6,2.7,22.5c-1.1,8.4-6.1,14.8-10.8,21.4c-9.6,13.5-21.8,25-28.7,40.5c-5.1,11.5-6.2,23.2-2.7,35.3
		c3.4,11.7,10.2,21.4,17.7,30.7c2.6,3.2,5.6,6,9.1,9.8c1.3-8.8,1.9-16,3.5-23.1c4.6-20.8,14.5-39.1,27.6-55.7
		c0.7-0.8,0.6-2.3,0.9-4.2c1-1.7,2-3.4,3.2-5.6c0.3-0.2,0.6-0.4,1.5-0.7C174.8,170.3,175.3,169.7,175.7,169z"/>
	<path class="st8" d="M230.6,404c0,0-0.4-0.2-0.5-0.5c-0.1-0.6-0.2-0.9-0.4-1.1c5.8-0.3,11.6-0.8,17.4-0.9c1.8,0,3.8,1,5.5,1.9
		c11.8,5.7,23.5,11.8,35.5,17.1c2.6,1.2,6.7,1.1,9.3-0.1c12-5.4,23.7-11.4,35.4-17.3c6.6-3.4,13.2-1.7,19.8-0.2
		c0.3,0.1,0.5,0.9,0.2,1.6c-3.1,1.3-5.7,2.3-8.7,3.5c-3.1,1.8-5.7,3.9-8.6,5.4c-13.1,6.6-26.1,13.1-39.4,19.3
		c-2,0.9-5.4,0.9-7.4-0.2c-15.8-8.1-31.5-16.5-47.3-24.7c-1.8-0.9-4-1-6.4-1.7C233.5,405.3,232.1,404.6,230.6,404z"/>
	<path class="st9" d="M166.9,214.2c0.5-1.1,0.8-1.8,1.1-2.5c0.8,0.3,1.6,0.7,2.3,1c-1.2,9.4-1.6,19-3.6,28.2
		c-6.1,27.8-2.4,54.3,10.1,79.6c1.1,2.2,2.3,4.4,3.5,6.6c-8,3.5-10.6,2.9-13.9-4.4C149.9,286.6,148,250.5,166.9,214.2z"/>
	<path class="st10" d="M258.1,130.9c31.1,3.7,61.6,1.2,92.1-2.2c2.3-0.3,4.4-2.1,7.9-3.9c3.8,1.7,8.9,4.1,14,6.4
		c-0.1,0.6-0.2,1.2-0.4,1.9c-2.1,0.7-4.2,1.7-6.4,1.9c-7.4,0.8-14.9,1.9-22.3,2c-32.6,0.2-65.3,0.3-97.9,0.1c-8,0-15.9-1.1-23.8-2
		c-2.7-0.3-5.2-1.5-7.8-2.3c-0.1-0.5-0.1-1.1-0.2-1.6c4.9-2.2,9.8-4.3,13.2-5.8c3.4,1.5,5.3,2.9,7.4,3.2
		C241.7,129.5,249.7,130.1,258.1,130.9z"/>
	<path class="st11" d="M384.2,409.7c-13,14.7-25.9,29.1-38.6,43.6c-2.3,2.7-4.1,3.2-7.1,1.5c-6.1-3.6-12.4-6.9-19.2-10.6
		c1.8-1.2,2.8-1.9,3.9-2.6c14.7-10.3,29.8-20.1,44-31c6.2-4.8,11.8-6.7,19.7-4.4C386,407.3,385.2,408.4,384.2,409.7z"/>
	<path class="st12" d="M322.3,54.1c-0.9,2.5-1.8,4.9-3,8.1c-17.6-7.7-35-8.8-52.8-0.2c-4.2-7.9-6.3-16-5.7-24.5
		c0.1-1.6,3.6-3.9,5.7-4.3c3.5-0.6,5.1-2.1,6.3-5.2c3.1-8.1,8.7-14.1,16.5-17.9c1.5-0.7,4-0.9,5.5-0.2c8.5,4.2,14.9,10.2,18,19.6
		c0.6,1.8,4.6,2.5,7.6,4c1.2,0.5,1.9,0.6,2.6,0.8c0.2,0.1,0.4,0.3,1,1C323.7,42,323,48,322.3,54.1 M295.4,50
		c6.7,1.4,13.4,2.8,20.5,4.3c0.9-3.4,1.9-6.6,2.7-9.8c1.6-6.3,1.5-6.6-5-6.5c-4.2,0.1-5.8-1.4-6.5-5.4c-1.4-7.9-6.1-13.4-14.1-16.8
		c-0.4,0-0.8,0-2,0.1c-7.1,4.4-13.5,9.2-13.6,18.8c0,1.1-2,2.6-3.3,3.1c-1.3,0.5-2.9,0.2-4.4,0.2c-3.5-0.1-4.5,1.6-3.5,4.7
		c1.3,3.9,2.6,7.8,3.7,11.3c7.3-1.5,14.1-2.9,21.7-4.1C292.5,49.9,293.5,49.9,295.4,50z"/>
	<path class="st13" d="M108.5,285.9c-0.1-0.2-0.3-0.5-0.5-1.3c-0.4-0.9-0.6-1.2-0.9-1.6c-4-7.6-8.6-15-12-22.8
		c-4-9.2-3-18.4,2.9-26.9c0.7,0.3,1.2,0.4,1.2,0.6c1.6,15.1,10.2,26.3,20.7,36.3c5.8,5.4,12.3,10.1,18.3,15.2
		c1.4,1.2,3.2,2.8,3.4,4.4c2.2,14.6,7.1,28.3,14.1,42c-6.3,1.4-12.3,2.9-18.4,4.1c-3.3,0.7-7.7,2.4-10,1c-6.4-3.9-12-9.1-17.9-13.9
		c-0.7-0.6-1.2-1.6-1.7-3.1c1.4-1.9,2.7-3.1,4.7-5c-0.4-3.2-0.9-7.5-1.4-11.8c0-0.8-0.1-1.6,0.1-3.1
		C110.5,294.8,109.5,290.4,108.5,285.9 M115,301.1c-0.4,1.5-1.3,3-1.2,4.5c0.1,3.8,1.7,8,0.6,11.3c-2.3,7,1.3,10.3,6.4,13.1
		c3.2,1.8,6.8,4.9,10,4.6c6.9-0.5,13.7-2.8,20-4.2c-3.6-12.1-7.1-24-10.8-35.7c-0.9-2.8-2.2-6-4.3-7.9c-6.2-5.9-13.6-10.6-19.3-16.9
		c-6-6.7-10.7-14.6-15.9-22c-1-1.4-1.6-3-2.6-4.9c-4.3,6.3-0.2,23.7,5.7,26.4c0.4,0.2,0.9,0.3,1.4,0.3c5.5,0,7.5,3.6,8,8
		c-1.2-0.9-2.3-1.8-3.5-2.7c-0.3,0.3-0.7,0.7-1,1c1.7,2.7,3.5,5.3,4.5,8.4c-2.5,4.4-1.1,12.6,2.7,16.1
		C115.7,300.5,115.7,300.9,115,301.1z"/>
	<path class="st14" d="M438.7,309.7c1.4-5.2,3.2-9.9,3.9-14.8c0.8-5.3,3.7-8.6,7.7-12c8.9-7.7,17.5-15.8,25.5-24.4
		c6.3-6.8,9.5-15.5,10.8-25c3.2,3.7,5.2,7.8,5.8,12.6c1.2,10.3-2.7,19.1-8.4,27c-8.4,11.8-10.4,24.9-9.5,39.4c1.3-1,2.4-1.8,3.5-2.6
		c0.3,0.4,0.7,0.7,0.8,1.1c1.1,7.8-2.7,13.7-8,18.5c-6.2,5.6-12.8,10.3-22.3,7.1c-6-2-12.5-2.7-19.3-4
		C432.5,324.7,435.5,317.4,438.7,309.7 M441.1,333c2.3,0.5,4.5,1.1,6.8,1.6c11.8,2.6,24.6-4.6,26.9-15.3c-1.3-1.9-2.4-3.9-2.6-6
		c-0.2-3.1,0.6-6.3,0.4-9.4c-0.4-10.5,2.8-19.8,8.2-28.7c5.2-8.4,11.1-16.8,9.8-27.5c-0.3-2.9-1.3-5.6-2-8.5c-0.5,0-1.1,0.1-1.6,0.1
		c-1.2,3.4-2.1,6.9-3.7,10.1c-6.9,14.3-18.3,24.6-30.7,34.1c-3,2.3-6.1,5.4-7.5,8.8c-4.4,11.2-7.8,22.8-11.9,34.2
		c-1.1,3.1-0.5,4.8,2.6,5.6C437.4,332.4,438.8,332.7,441.1,333z"/>
	<path class="st15" d="M201.3,410.3c-1.1-1.4-1.9-2.5-2.9-3.8c7.4-2.3,13.2-2.3,19.1,3.3c7.2,6.8,15.4,12.7,23.5,18.4
		c8,5.6,16.6,10.3,25.7,15.9c-7.6,4.1-14.9,8.2-22.4,11.8c-0.9,0.4-3.3-1.1-4.3-2.3c-11-12.2-21.8-24.6-32.7-36.8
		C205.5,414.6,203.5,412.6,201.3,410.3 M224.4,418.7c-3.6-3.1-7.4-6.1-10.9-9.4c-3.2-3.1-6.2-3.1-9.5-0.7c0,0.5-0.1,0.8,0,0.8
		c12.3,14.1,24.5,28.2,36.9,42.3c0.8,0.9,3,1.4,4,1c5.4-2.5,10.6-5.4,16.7-8.6c-2.5-1.8-3.8-2.7-5.1-3.6
		C246,433.4,235.4,426.3,224.4,418.7z"/>
	<path class="st16" d="M266.8,123.7c-7.2-1-13.8-2-21.1-3.1c1.3-6,2.5-11.5,3.7-17.2c9.8,3.9,30.2,17.4,31.2,21.2
		C276,124.3,271.6,124,266.8,123.7z"/>
	<path class="st17" d="M338.2,116.7c0.9,2.6,0.7,4.2-2.2,4.5c-8.9,1-17.8,2.1-26.7,3.1c-1.2,0.1-2.6-0.8-3.9-1.3
		c0.8-1.1,1.3-2.5,2.4-3.2c8.5-5.1,17.2-10.1,25.8-15.1c0.4-0.2,0.9-0.2,2-0.5C336.4,108.3,337.3,112.3,338.2,116.7z"/>
	<path class="st18" d="M298.9,79.6c-1.8,8.6-3.5,16.8-5.2,25c-0.7,0-1.4,0-2.1,0c-2.4-11.6-4.8-23.3-7.3-35.7c5.8,0,10.9,0,16.9,0
		C300.4,72.8,299.7,76,298.9,79.6z"/>
	<path class="st19" d="M234.7,94.6c-2.1,1.3-4.2,2.5-6.6,4c-2.1-9.3,17.1-42.9,30.4-47.6c0.9,3,1.8,6,2.4,9.2
		c-1.2-2.3-2.3-1.5-3.9-0.3C245.6,69,238,80.4,234.7,94.6z"/>
	<path class="st20" d="M317.7,91c2-3,3.9-5.7,6.4-9.4c3.5,5.1,6.5,9.5,9.9,14.6c-9.7,5.9-18.7,11.5-27.8,17c-0.6-0.5-1.1-1-1.7-1.5
		C308.9,104.9,313.2,98.1,317.7,91z"/>
	<path class="st21" d="M257.6,100c-2-1.3-3.6-2.3-5.9-3.8c3.1-4.7,6-9.2,9.6-14.7c7,10.5,13.4,20.2,19.9,29.8
		c-0.5,0.6-0.9,1.1-1.4,1.7C272.5,108.8,265.2,104.5,257.6,100z"/>
	<path class="st22" d="M344.6,407.9c2.6-1.1,5.2-2.1,8.1-3.2c-4.8,4.7-9.5,10.2-15.2,14c-13,8.6-26.4,16.5-39.8,24.3
		c-2.3,1.3-6.4,1.5-8.7,0.3c-8.9-4.5-17.4-9.7-26.1-15c-0.1-0.4,0.1-0.6,0.4-0.5c6.3,3.3,12.1,7,18.3,9.6c5.3,2.2,10.3,7.3,16.9,3.2
		c12.7-7.9,25.7-15.5,38.2-23.7C340,414.7,342,410.9,344.6,407.9z"/>
	<path class="st23" d="M300.4,104.3c-0.3-0.9-1-2.1-0.8-3c2.8-9.6,5.8-19.2,9-29.3c2.5,1.3,5,2.5,7.3,4c0.7,0.4,1.3,2.3,0.9,2.8
		C311.4,87.2,305.9,95.6,300.4,104.3z"/>
	<path class="st24" d="M322.7,54.4c0.3-6.4,1-12.4,1.6-18.8c0.6,1,1.9,2.5,1.8,3.8c-0.2,3.6-1,7.2-1.5,10.3
		c19.7,10.6,27.7,29.1,35.1,48c-0.3,0.5-0.7,0.9-1,1.4c-3.8-1.5-7.7-3.1-11.3-5c1.2-0.6,2.3-0.8,3.6-0.9c1.6,0.6,2.8,1.1,4.2,1.6
		c0.2-1,0.4-1.4,0.3-1.6c-5-13.9-12.6-26.1-23.4-36.4c-3.5-3.3-4.8-1.5-5.8,2.2c-1.1,1-1.8,1.9-2.6,2.8
		C323.5,59.5,323.3,57.1,322.7,54.4z"/>
	<path class="st25" d="M264.7,148.9c-0.5-0.3-1-0.5-1.7-1.2c-0.3-0.4-0.6-0.7-0.6-0.7s0.2-0.2,0.6-0.2c18.9-0.2,37.3-0.4,55.7-0.5
		c0.9,0,1.8,0.9,2.7,1.4c0,0,0,0.1-0.3,0c-0.8,0.3-1.2,0.6-1.7,0.8c0,0,0,0.1-0.3,0c-0.8,0.2-1.2,0.5-1.7,0.8c0,0-0.1,0-0.5,0.1
		c-1.3,0.5-2.3,1-3.3,1.5c0,0,0,0-0.4,0c-9.5,3-18.6,6.2-28.4,4c-4.3-1-8.6-2.2-12.9-3.3c0,0-0.1,0-0.3-0.3
		c-0.8-0.4-1.3-0.5-1.9-0.6c0,0-0.1,0.2-0.3-0.1c-1-0.6-1.9-0.8-2.7-1c0,0-0.4-0.2-0.8-0.4C265.4,148.9,265.1,148.8,264.7,148.9
		 M278.2,151.1c12.2,3.8,27.6,2.6,30.9-2.6c-11.9,0-23.7,0-35.5,0c0,0.3-0.1,0.6-0.1,0.9C274.7,149.9,276,150.5,278.2,151.1z"/>
	<path class="st26" d="M235,94.6c3-14.2,10.6-25.6,22-34.6c1.5-1.2,2.7-2.1,3.8,0.6c-0.1,1.6,0.2,3.7-0.6,4.3
		c-9.4,7-15.6,16.3-20.3,26.8c-0.4,0.8-1.3,1.4-2.5,2.2c-0.5,0.1-0.7,0.4-0.7,0.4C236.3,94.3,235.8,94.5,235,94.6z"/>
	<path class="st27" d="M278.5,76c2.3,9.1,4.4,17.9,6.5,26.7c-0.5,0.2-0.9,0.4-1.4,0.6c-5.2-8.5-10.3-17-15.9-26.2
		c3.1-1.9,5.9-3.7,9.2-5.7C277.5,73.2,277.9,74.4,278.5,76z"/>
	<path class="st28" d="M376.6,121.1c5.6,4.7,6,6.6,2,10.6c-4.6-7.8-12.8-10.1-20.4-13.2c-3.7-1.5-5-3.8-5.7-8
		C361.2,113,369.4,115.4,376.6,121.1z"/>
	<path class="st29" d="M388.1,144.8c-1.6,2.1-3.7,4.3-5.9,6.7c8.1,6,16.6,12.2,25.3,18.5c0-0.6,0.1-1.4,0.4-2.4
		c2.8,0.5,2.7,5.7,7.2,3.5c1.4,1.3,2.5,2.7,3.4,4.1c0,0.4,0.1,0.6,0.2,0.9c0,0,0,0,0,0.3c0,1.1,0,1.9,0,2.7
		c-0.9,0.2-1.8,0.4-2.6,0.5c2.4,4.3,4.6,8.2,6.6,12.4c-3.9-4.3-7.4-8.9-11.1-13.2c-10-11.5-21.7-20.7-36.3-27.1
		C379.8,149.1,383.8,146.9,388.1,144.8z"/>
	<path class="st30" d="M323.6,62.2c0.9-1.3,1.6-2.1,2.9-2.9c12.3,8.6,20,19.9,24.2,33.8c-1.1,0.2-2.1,0.4-3.5,0.7
		c-0.5-0.2-0.8-0.5-1.2-1.2c-0.4-0.9-0.6-1.2-0.8-1.6c-4.5-10.4-10.7-19.4-20.1-26.1C324.5,64.3,324.1,63.3,323.6,62.2z"/>
	<path class="st31" d="M228.5,112.1c1.6-0.3,2.8-0.4,4.4-0.6c-1.2,4.4-3.3,6.7-7.3,7.9c-3.5,1-7,2.4-10,4.3
		c-3.1,1.9-5.6,4.6-9.1,7.6c-2.7-1.1-3.1-4.1-0.6-6.7c2.8-3,6.2-5.5,9.8-7.4C219.5,115,223.9,113.8,228.5,112.1z"/>
	<path class="st32" d="M295.6,126c-4.1,1-7.4,0.1-9.3-3.4c-1.8-3.2-1.4-6.5,1.6-8.9c3.1-2.5,6.5-2.2,9.5,0.2
		c3.1,2.4,3.2,5.6,1.5,8.9C298.3,123.9,296.9,124.8,295.6,126z"/>
	<path class="st33" d="M321.8,147.6c-1.3-0.4-2.2-1.3-3.1-1.3c-18.4,0.1-36.9,0.3-55.7,0.4c1.2-0.6,2.7-1.6,4.3-1.6
		c8-0.2,15.9,0,23.9-0.2c8.9-0.2,17.8-0.6,26.8-0.8C320.2,144.1,323,143.6,321.8,147.6z"/>
	<path class="st34" d="M111,303.5c0.7,3.9,1.2,8.3,1.6,11.4c-2,1.9-3.3,3.1-4.8,4.7c-1.4-4-2.6-8.4-3.8-12.8
		c0.6-0.2,1.3-0.4,1.9-0.6c1.4,2.6,2.7,5.2,4.1,7.7c0.3-0.1,0.5-0.2,0.8-0.3C110.8,310.4,110.8,307.2,111,303.5z"/>
	<path class="st33" d="M272.1,152c4.2,0.8,8.5,2,12.8,3c9.8,2.3,18.9-1,28.4-3.9c-7.6,5-16.4,6.7-25.5,5.6
		C282.5,156,277.3,153.8,272.1,152z"/>
	<path class="st29" d="M388.1,117.6c2.4,4.6,4.4,9.4,6.4,14.3c1.6,3.9,2.2,7.6-2.8,10c3.9-6.2,0.9-11.2-3.1-15.8
		C386.3,123.3,385.5,120.8,388.1,117.6z"/>
	<path class="st22" d="M230.7,404.3c1.4,0.3,2.8,0.9,4.8,2c3.4,3.2,6.3,5.9,9.1,8.8c-0.1,0.1-0.4,0.4-0.4,0.4
		C239.7,411.9,235.2,408.3,230.7,404.3z"/>
	<path class="st22" d="M262.7,427.9c-4.6-2.7-9.2-5.6-13.8-8.8c-0.1-0.4,0-0.5,0.4-0.4c4.8,3,9.2,6,13.7,8.9
		C263,427.7,262.8,427.8,262.7,427.9z"/>
	<path class="st34" d="M108.4,286.3c1.1,4.1,2.1,8.5,2.8,13.3C110.1,295.5,109.2,291.1,108.4,286.3z"/>
	<path class="st22" d="M247.6,418c-1-0.7-2.1-1.4-3.3-2.3c-0.2-0.3,0.1-0.5,0.5-0.6c1.3,0.8,2.2,1.7,3,2.7
		C247.8,417.9,247.6,418,247.6,418z"/>
	<path class="st29" d="M391.2,141.9c-0.5,0.9-1.2,2-2.3,3C389.2,143.9,390,142.9,391.2,141.9z"/>
	<path class="st33" d="M314,151.1c0.6-0.5,1.5-1,2.8-1.5C316.3,150.1,315.3,150.6,314,151.1z"/>
	<path class="st33" d="M267,150c0.7-0.1,1.6,0.1,2.6,0.5C268.9,150.6,268,150.5,267,150z"/>
	<path class="st24" d="M323,34c-0.6,0.2-1.3,0-2.2-0.3C321.5,33.6,322.2,33.7,323,34z"/>
	<path class="st33" d="M319.7,148.7c0.2-0.4,0.6-0.7,1.4-0.9C320.9,148.1,320.5,148.5,319.7,148.7z"/>
	<path class="st34" d="M107.1,283.3c0.2,0.1,0.5,0.4,0.7,0.9C107.6,284.1,107.3,283.8,107.1,283.3z"/>
	<path class="st24" d="M345.2,91.2c0.3,0.1,0.6,0.5,0.8,1.1C345.6,92.2,345.3,91.8,345.2,91.2z"/>
	<path class="st22" d="M229.5,402.4c0.5,0.2,0.6,0.5,0.4,1C229.7,403.2,229.5,402.8,229.5,402.4z"/>
	<path class="st33" d="M269.9,151.1c0.4-0.2,1-0.1,1.7,0.3C271.3,151.5,270.7,151.4,269.9,151.1z"/>
	<path class="st33" d="M317.7,149.6c0.2-0.4,0.6-0.7,1.4-0.9C318.9,149,318.5,149.4,317.7,149.6z"/>
	<path class="st22" d="M248.7,418.9c-0.4,0-0.7-0.2-1-0.6c-0.1-0.2,0-0.4,0.3-0.3c0.5,0.3,0.7,0.5,0.9,0.7
		C248.9,418.6,248.8,418.8,248.7,418.9z"/>
	<path class="st19" d="M236.8,94.3c-0.1-0.1,0.1-0.4,0.3-0.3c0.2,0,0.2,0.3,0.2,0.3S236.9,94.4,236.8,94.3z"/>
	<path class="st33" d="M264.9,149.1c0.2-0.3,0.5-0.3,1,0.1C265.7,149.4,265.4,149.4,264.9,149.1z"/>
	<path class="st33" d="M262.3,147.1c0.2-0.1,0.5,0.2,0.5,0.5C262.5,147.6,262.3,147.4,262.3,147.1z"/>
	<path class="st35" d="M246.2,376.3c-5.9,5.9-16.2,7.8-22.8,4.4c-4.3-2.3-6.6-5.9-6.8-11c3.6-0.7,6.4-1.3,8.8,2.8
		c2.1,3.7,10,3.8,13.1,0.8c2.3-2.3,1.8-5.9-1.4-7.3c-2.4-1-5.2-1.1-7.7-1.9c-3.4-1.1-7.1-2-10-4c-4.6-3.1-5.4-10-2-14.2
		c4.4-5.4,10.5-5.8,16.8-5c5.7,0.8,9.3,3.9,11,10c-2.4,0.6-4.5,1.2-7,1.9c-2.3-4.4-6.1-6.4-11-4.9c-1.6,0.5-2.7,2.5-4,3.8
		c1.2,1.2,2.3,3,3.7,3.5c3.3,1.1,6.9,1.3,10.2,2.2C246.7,360,250.1,366.9,246.2,376.3z"/>
	<path class="st36" d="M344,380.5c-5.5,0.7-8.7-1.2-10-6.6c-0.3-1.3-2.6-2.6-4.2-3.1c-1.8-0.6-4,0-5.9-0.4c-5.7-1.2-9.4,0.2-11,6.4
		c-1.4,5.2-5.6,2.2-9.6,2.7c5.8-13.3,11.2-25.9,16.9-38.4c0.5-1.1,2.9-2.1,4.3-1.9c2.3,0.3,6,1,6.6,2.5
		C335.8,354.4,339.9,367.4,344,380.5 M321.8,363.4c2.8,0.2,5.6,0.4,9,0.7c-1.8-5.5-3.3-10.2-4.9-15c-2.9,4.1-4.7,8.2-6.4,12.5
		C319.3,361.8,320.4,362.7,321.8,363.4z"/>
	<path class="st35" d="M302.6,346.3c2.3,12.9-1.3,15.8-22.1,17.8c0,4.8,0,9.7,0,15c-2.9,0-5.4,0-8.3,0c0-13.2,0-26.4,0-39.9
		c7.4,0,14.9-0.6,22.3,0.3C297.3,339.8,299.8,343.7,302.6,346.3 M280.2,346.9c0,3.1,0,6.2,0,9.5c3.5,0,6.6,0.1,9.7,0
		c3.5-0.1,5-2.1,4.9-5.5c-0.1-3.5-1.8-5.2-5.2-5.1C286.6,345.9,283.7,346,280.2,346.9z"/>
	<path class="st37" d="M353.4,348c-2.1-0.3-3.7-0.5-5.9-0.8c0.2-1.9,0.5-3.6,0.8-5.9c10.2,1,20,2,30.5,3.1c-0.4,2.4-0.8,4.3-1.2,6.5
		c-3.7-0.2-7-0.5-10.9-0.7c-1.6,10.7-3.3,21.3-4.9,32.2c-2.6-0.2-4.8-0.3-7.8-0.6c1.5-11,3-21.6,4.6-32.8
		C356.9,348.6,355.4,348.3,353.4,348z"/>
	<path class="st38" d="M254.6,346.1c0-2.4,0-4.4,0-6.7c2.6,0,4.9,0,7.7,0c0.7,13.1,1.3,26.3,2,40c-2.6,0-5.1,0-8.1,0
		C255.7,368.5,255.2,357.5,254.6,346.1z"/>
	<path class="st39" d="M148.7,377.7c-0.3,1.1-0.6,1.7-1,2.3c-4.2-4.3-8.4-2.6-13.1,0.6c3.7-6.1,2.5-10.2-4.2-13.2
		c8.1,1.4,11-3,12.6-9.5c1.5,5.9,2.7,11.4,11.9,8.5C151.3,370.5,146,372,148.7,377.7z"/>
	<path class="st40" d="M432.1,368.4c-0.2-0.5-0.1-0.8-0.1-0.8c6.1-0.1,10.4-2.3,10.2-10.1c2.2,5.7,3.1,11.9,11.8,9.3
		c-5.1,3.5-7.3,7.4-3.7,13.5c-5.4-1.6-10.1-6-14.8,0.7C437.4,375.4,438.1,371,432.1,368.4z"/>
	<path class="st41" d="M217,261.7c2.2-7.3,6-12.7,13.2-14.9c9.7-2.9,18.6,1.7,21.6,11.5c3.2,10.4,2.3,20.2-5.3,28.4
		c-8.4,9-22.5,6.6-27.8-4.6C215.7,275.6,215.7,268.9,217,261.7z"/>
	<path class="st42" d="M418.6,175c-1.1-1.3-2.1-2.6-3.7-4.3c-7.3-11.2-10.5-22.9-9.1-35.8c0.3-0.4,0.2-0.7-0.2-1.3
		c0-2.6-0.1-4.8-0.1-6.9c0.4-1.1,0.8-2.2,1.5-3.1c0.9,0.7,1.5,1.2,2.1,1.7c0.9-1.1,2.1-2.1,2.8-3.4c0.8-1.5,1.1-3.2,1.6-4.8
		c0.8-0.3,1.6-0.7,2.7-0.7c0,1.4-0.3,2.5-0.7,3.9c0,0.5,0,0.6-0.4,0.9c-2,6.4-4.4,12.7-5.2,19.2c-1.2,8.9,2.9,16.9,6.5,24.7
		c-0.6,0.5-0.9,0.9-1.2,1.3c0.6-0.3,1.2-0.6,2.1-0.8c4.7,5.3,9.1,10.4,13.4,15.6c5.4,6.6,10.8,13.2,15.7,19.9
		c-1.2,0-2.1,0.1-3.2-0.1c-7.3-7.8-14.3-15.4-21.4-23c-0.8-0.9-2.2-1.3-3.3-1.9c0,0,0,0,0-0.2C418.6,175.3,418.6,175.2,418.6,175z"
		/>
	<path class="st43" d="M442.8,156.9c0.3,0.4,0.6,0.8,0.9,1.8c1.3,2.2,2.6,3.7,4.1,5.4c0.7,0.4,1.1,0.7,1.6,1c0,0,0-0.1,0,0.2
		c0.1,1,0.2,1.6,0.3,2.6c0.6,0.9,1.2,1.4,1.8,2c0,0,0,0,0,0.3c0.7,1.1,1.4,1.9,2.1,2.6c0,0,0.4,0.1,0.6,0.4c0.5,0.5,0.8,0.7,1,0.9
		c0,0,0.2-0.1,0.1,0.3c0.2,0.5,0.4,0.8,0.7,1c0,0-0.1,0.3,0.1,0.8c0.5,1,0.8,1.5,1.2,2c0.1,0.6,0.2,1.3,0.1,2.4
		c0.3,1.1,0.8,1.8,1.4,2.5c0,0,0.3,0,0.4,0.3c0.1,0.7,0.2,1.1,0.1,1.6c0,0.4,0.2,0.6,0.5,1.2c0.4,1.1,0.6,1.9,0.6,2.9
		c0.4,2.5,1.1,4.7,1.9,7.1c0.2,0.4,0.4,0.5,0.5,0.6c0,2.4,0,4.8-0.2,7.9c-0.2,1.2-0.3,1.6-0.7,2.1c-0.2,0.7-0.3,1.4-0.3,2.4
		c-0.2,1.1-0.3,1.8-0.8,2.5c-1-1.6-1.7-3.2-2.3-4.9c-0.6-1.7-1.2-3.4-1.9-5.5c-0.7-3.8-1.4-7.2-1.9-10.7c-0.2-0.8-0.6-1.4-1-2.2
		c-0.2-0.7-0.2-1.1-0.2-1.8c-0.9-2.2-1.9-4-3-6c-0.2-0.6-0.3-0.9-0.3-1.6c-0.8-1.6-1.7-2.9-2.9-4.3c-0.9-1.6-1.5-3-2.1-4.7
		c-0.5-0.9-1.1-1.5-1.8-2.2c-0.1-0.2-0.1-0.5-0.1-0.9c-2.6-4-5.3-7.6-8.1-11.4c-0.4-0.7-0.5-1.1-0.7-1.8c-0.7-1.1-1.3-1.9-2.2-2.7
		c-0.2,0-0.6,0-0.7-0.4c-0.7-1.8-1.4-3.3-2-5.2c0.3-1.8,0.7-3.2,1.3-4.5c1,1.2,1.8,2.2,2.6,3.6c1.1,1.7,2.1,3.1,3.4,4.6
		c1,0.8,1.7,1.4,2.5,2c0,0,0-0.2,0,0.2c0.4,1.2,0.7,1.9,1.1,3.1C441.3,155.5,442.1,156.2,442.8,156.9z"/>
	<path class="st44" d="M454.6,191c0.7,3.4,1.4,6.8,2,11c-0.4,9-0.8,17.1-1.2,25.3c0.6-0.3,1.1-0.6,1.7-0.9c-0.4,1.3-0.8,2.6-1.6,4.4
		c-0.9,1.4-1.4,2.3-1.9,3.2c-1.3-0.4-2.6-0.9-3.6-1.7c0.7-1,1.1-1.7,1.6-2.3c0.7-3.1,1.4-6.1,2.3-9.8c0.1-2.5-0.1-4.3-0.5-6.2
		c-0.4-0.1-0.6-0.1-0.9-0.4c0-1.1,0.1-1.8,0.5-2.7c0-1.1-0.1-1.9-0.4-3.1c-0.1-0.7,0-1.1,0.1-1.8c-0.1-1.1-0.3-2-0.6-3.1
		c-0.2-0.8-0.2-1.3,0-1.9c0-0.4-0.1-0.6-0.4-1.2c-5.6-11.9-11-23.5-16.1-35.3c1-1.3,1.7-2.4,2.6-3.4c2,2.2,3.7,4.3,5.4,6.3
		c0,0,0.1,0.3,0.2,0.8c0.6,1.1,1.2,1.7,1.7,2.3c0.6,1.4,1.2,2.8,2.1,4.7c1.1,1.8,1.9,3.1,2.8,4.4c0.1,0.3,0.2,0.7,0.4,1.6
		c1.1,2.4,2,4.3,2.9,6.1c0.1,0.4,0.1,0.8,0.2,1.7C454.1,190,454.3,190.5,454.6,191z"/>
	<path class="st45" d="M405.5,126.9c0.2,2,0.2,4.1,0.2,7c0,0.6,0.1,1.1,0.1,1.1c-1.3,12.8,1.9,24.5,8.9,35.7c-4,2.5-4-2.6-6.7-3.5
		c-0.5-0.4-0.7-0.7-1.1-1.3c-0.5-0.6-0.8-0.8-1.1-1.1c0,0-0.1-0.4-0.2-0.9c-0.7-1-1.2-1.5-1.8-2c0,0,0,0.1,0-0.3
		c-1.1-3.1-2.2-5.8-3.3-8.6c-0.2-1.4-0.5-2.9-0.7-5.1c0-1.8,0-2.9-0.1-4c0.3-1.4,0.7-2.8,1.3-4.8c1.4-4.1,2.6-7.6,3.7-11.1
		C404.9,127.7,405.1,127.4,405.5,126.9z"/>
	<path class="st46" d="M418.6,176.3c1.1,0.3,2.5,0.7,3.3,1.5c7.1,7.5,14.1,15.2,21.5,23.3c1,3.3,1.6,6.1,2,8.7
		c-0.7-0.4-1.2-0.7-1.7-1c-2-3.7-3.4-8-6.1-11.1c-5.8-6.4-12.3-12.3-18.7-18.6C418.7,178.2,418.6,177.5,418.6,176.3z"/>
	<path class="st47" d="M415.7,120c0.3-1.1,0.6-2.2,1-3.6c0.8-1.3,1.6-2.3,2.7-2.9c0.7,2.8,1,5.2,1.4,8c0.3,2.5,0.5,4.5,0.7,6.7
		c0,0.4,0.1,0.6,0.5,1c0.4,0.4,0.6,0.6,0.8,1.2c0.4,2,0.7,3.7,1.1,5.8c-0.1,1.9-0.1,3.4-0.1,4.8c0,0,0,0-0.3-0.1
		c-1.2-0.7-2.1-1.2-3.2-1.9c-0.4-0.7-0.5-1.3-0.4-2.1c-0.6-5.3-1.4-10.3-2.4-15.4C417.3,120.9,416.3,120.5,415.7,120z"/>
	<path class="st48" d="M445.7,210c-0.6-2.8-1.3-5.5-2-8.7c0.8-0.4,1.6-0.4,3.1-0.2c2.4,4.4,4.1,8.5,5.8,12.7c0.2,0,0.4,0,0.8,0.4
		c-0.1,1.5-0.4,2.6-0.7,3.7c-0.4,0-0.9,0-1.7-0.4C448.9,214.9,447.3,212.5,445.7,210z"/>
	<path class="st49" d="M457.2,226.2c-0.6,0.5-1.2,0.8-1.8,1.1c0.4-8.2,0.8-16.3,1.3-24.9c0.7,1.2,1.3,2.9,1.9,4.6
		c0.6,1.6,1.3,3.3,2.3,5.3c-0.8,4.5-2.1,8.6-3.4,12.7C457.4,225.3,457.3,225.6,457.2,226.2z"/>
	<path class="st49" d="M423.8,135.7c-0.4-1.7-0.7-3.3-0.8-5.5c0.8-0.8,1.4-1.1,2-1.4c0.2,0.2,0.4,0.4,0.8,1c0.7,1.1,1.3,1.8,1.8,2.5
		c0,0,0.1,0.4,0.2,0.8c0.2,0.6,0.3,0.7,0.4,0.9c0,0.3,0.2,0.5,0.6,1.2c0.8,2.2,1.4,3.9,2,5.6c-0.3,1.4-0.7,2.9-1.2,4.7
		c-0.4,0.4-0.6,0.4-0.8,0.1c-0.4-0.7-0.7-1.1-1-1.9c-0.4-0.8-0.7-1.3-1.1-1.9c-0.2-0.5-0.4-0.7-0.7-1.2
		C425.2,138.7,424.5,137.2,423.8,135.7z"/>
	<path class="st47" d="M445.4,209.9c1.9,2.5,3.5,4.9,5.2,7.7c-0.3,1.4-0.7,2.5-1,3.5c-0.5,0.1-1,0.3-1.5,0.4
		c-1.5-3.9-3-7.9-4.4-12.2C444.2,209.2,444.7,209.5,445.4,209.9z"/>
	<path class="st29" d="M413.4,116.9c-0.2,1.8-0.6,3.5-1.3,5c-0.7,1.3-1.8,2.3-2.8,3.4c-0.6-0.5-1.2-1.1-1.8-1.9
		C408.6,120.3,408.3,116.3,413.4,116.9z"/>
	<path class="st50" d="M457.9,224.8c1-4,2.2-8.1,3.5-12.5c0.1-1.1,0.2-1.8,0.6-3.1c0.3-1.2,0.3-1.7,0.3-2.3c0.1-0.4,0.2-0.8,0.5-1.6
		C463.9,212.2,462.1,218.7,457.9,224.8z"/>
	<path class="st51" d="M420.7,121c-0.3-2.4-0.7-4.8-1-7.6c0.5-1.6,1-2.7,1.8-3.2c0.5,2.1,0.8,3.5,1.1,5c0,0.7,0.1,1.4,0.1,2.9
		c0,1.5,0,2.2-0.3,3C421.5,121,421.1,121,420.7,121z"/>
	<path class="st52" d="M420.7,121.4c0.4-0.4,0.9-0.4,1.8-0.3c0.7,0.4,0.9,0.6,1.1,1.1c0.3,0.5,0.5,0.8,0.7,1
		c0.2,1.6,0.3,3.1,0.5,5.1c-0.5,0.7-1.1,1-1.9,1.4c-0.5-0.1-0.7-0.4-1.1-1c-0.2-0.5-0.3-0.7-0.3-0.9
		C421.2,125.9,421,123.9,420.7,121.4z"/>
	<path class="st50" d="M459.4,185c0-0.4-0.1-0.8,0-1.5c4,3.3,4.3,8.1,3.7,13.2c-0.4,0.2-0.5,0-0.6-0.7c-0.6-2.7-1.2-4.9-1.7-7
		c-0.2-0.8-0.5-1.6-0.9-3C459.6,185.3,459.5,185.1,459.4,185z"/>
	<path class="st29" d="M404.3,128.1c-0.8,3.5-1.9,6.9-3.3,10.7C401.8,135.4,402.9,131.8,404.3,128.1z"/>
	<path class="st53" d="M431,140.9c-0.9-1.9-1.5-3.6-2.1-5.7c2,2.4,3.9,5.1,5.8,8.3c0,0.4-0.2,0.6-0.4,0.6c-0.2,0-0.7,0-0.7,0
		C432.8,143.1,432,142.1,431,140.9z"/>
	<path class="st29" d="M400.2,153.3c1.3,2.5,2.4,5.2,3.5,8.3C399.8,160.3,400,156.9,400.2,153.3z"/>
	<path class="st53" d="M439.5,150.8c-0.8-0.2-1.6-0.9-2.6-2c-1-1.9-1.7-3.2-2.5-4.6c0,0,0.1-0.1,0.2-0.2
		C436.4,146,438,148.2,439.5,150.8z"/>
	<path class="st53" d="M449.9,167.7c-0.1-0.6-0.3-1.3-0.4-2.2c1.4,1.4,2.8,3.2,3.9,5.2c-0.7,0-1.2-0.3-1.7-0.6c0,0,0,0,0-0.3
		C451,168.8,450.5,168.2,449.9,167.7z"/>
	<path class="st49" d="M447.7,164c-1.3-1.5-2.6-3.1-3.8-5c0.4-0.3,0.8-0.1,1.5,0c0.3,0,0.2,0.1,0.2,0.1c0.2,0.5,0.4,1,1,2
		C447.1,162.4,447.4,163.2,447.7,164z"/>
	<path class="st47" d="M452.7,218.3c0.3-1.4,0.6-2.5,1-3.9c0.2,1.5,0.4,3.3,0.3,5.4C453.3,219.5,453,219.1,452.7,218.3z"/>
	<path class="st47" d="M422.6,114.8c-0.4-1.1-0.7-2.5-1-4.4C422,111.5,422.3,112.9,422.6,114.8z"/>
	<path class="st53" d="M440.6,154.1c-0.4-0.8-0.7-1.5-1.1-2.6c1,0.8,2,1.8,2.8,3.2C441.6,154.6,441.1,154.4,440.6,154.1z"/>
	<path class="st53" d="M447.9,164.1c-0.5-0.9-0.8-1.7-1.2-2.8c0.9,0.8,1.9,2,2.8,3.5C449.1,164.8,448.6,164.6,447.9,164.1z"/>
	<path class="st47" d="M423.5,122c-0.2-0.3-0.3-0.5-0.7-0.9c-0.2-0.9-0.2-1.7-0.1-2.8c0.7,0.7,1.3,1.8,1.7,3.3
		C423.9,122,423.7,122,423.5,122z"/>
	<path class="st49" d="M459,183c-0.7-0.4-1.2-1.1-1.5-1.9c0.2-0.1,0.7-0.2,1,0s0.6,0.3,0.6,0.3C459.2,181.8,459.2,182.3,459,183z"/>
	<path class="st53" d="M427.5,131.9c-0.6-0.4-1.1-1-1.7-2C426.4,130.2,427,130.9,427.5,131.9z"/>
	<path class="st49" d="M440.6,154.4c0.5-0.1,1,0.2,1.7,0.5c0.3,0.5,0.4,0.9,0.5,1.6C442.1,156.2,441.3,155.5,440.6,154.4z"/>
	<path class="st49" d="M451.6,170.3c0.5-0.1,1,0.2,1.7,0.6c0.3,0.5,0.4,1,0.4,1.7C453,172.2,452.3,171.5,451.6,170.3z"/>
	<path class="st47" d="M454,233.9c0.1-0.8,0.6-1.7,1.4-2.8C455.2,232,454.7,232.9,454,233.9z"/>
	<path class="st47" d="M451.3,230c-0.1,0.6-0.5,1.2-1.3,1.9C450.1,231.4,450.6,230.7,451.3,230z"/>
	<path class="st29" d="M399.4,144.2c0.3,0.9,0.3,1.9,0.3,3.4C399.5,146.8,399.3,145.6,399.4,144.2z"/>
	<path class="st29" d="M403.7,162.2c0.5,0.2,1.1,0.7,1.7,1.5C404.9,163.5,404.3,163,403.7,162.2z"/>
	<path class="st50" d="M457.4,178c-0.4-0.2-0.8-0.7-1.2-1.5C456.7,176.6,457.1,177.1,457.4,178z"/>
	<path class="st53" d="M423.6,122.3c0.1-0.3,0.3-0.3,0.8-0.3c0.2,0.2,0.2,0.4,0.1,1C424.1,123.1,423.9,122.8,423.6,122.3z"/>
	<path class="st53" d="M445.6,159C445.7,159,445.7,159,445.6,159C445.6,159.1,445.6,159,445.6,159z"/>
	<path class="st29" d="M405.8,165.1c0.2,0,0.5,0.2,0.8,0.7C406.4,165.8,406.1,165.6,405.8,165.1z"/>
	<path class="st53" d="M428.2,133.8c-0.2,0-0.3-0.2-0.4-0.6C428.1,133.1,428.3,133.3,428.2,133.8z"/>
	<path class="st50" d="M459.3,181.2c-0.1,0.2-0.4,0-0.5-0.1C458.9,181,459.1,181,459.3,181.2z"/>
	<path class="st50" d="M456.2,175.2c-0.3,0.1-0.5-0.2-0.8-0.7C455.6,174.5,455.9,174.7,456.2,175.2z"/>
	<path class="st50" d="M455.3,174c-0.2,0.1-0.5-0.1-0.8-0.6C454.7,173.3,455,173.5,455.3,174z"/>
	<path class="st54" d="M169.7,177.9c-0.3,1.2-0.1,2.6-0.8,3.5c-13.2,16.6-23,34.9-27.6,55.7c-1.6,7-2.2,14.3-3.5,23.1
		c-3.6-3.8-6.6-6.6-9.1-9.8c-7.5-9.3-14.3-19-17.7-30.7c-3.5-12.1-2.5-23.8,2.7-35.3c6.9-15.4,19.1-27,28.7-40.5
		c4.7-6.6,9.7-13,11.5-21.7c2.4,0.1,4.2,0.4,5.9,1.1c0,1.4,0,2.6,0,4c-0.3,0.8-0.6,1.3-1.1,1.9c-0.4,0.5-0.6,0.9-0.7,1.4
		c0,0.1-0.1,0.4-0.4,0.5c-1.4,2.2-2.5,4.4-3.5,6.8c-0.7,1.3-1.4,2.2-2.4,3.2c-2.6,3.3-4.8,6.5-7.3,9.9c-1.4,2.1-2.4,4.1-3.4,6.1
		c0-0.1,0,0-0.3,0c-3,3.3-5.9,6.4-8.2,9.9c-1.9,2.9-2.9,6.4-4.3,9.7c0,0.1-0.1,0.3-0.5,0.4c-0.9,1.3-1.4,2.6-1.9,4.2
		c-0.1,0.2-0.2,0.7-0.6,0.8c-1,2.7-1.8,5.3-2.5,8.3c-0.1,1.1-0.2,1.9-0.4,2.8c-0.3,0.3-0.4,0.6-0.5,1.1c-0.1,0.4-0.1,0.6-0.3,1
		c-0.1,1.1,0,1.9,0.2,3.2c0,1.5,0,2.5-0.3,3.9c1.1,6.9,2.3,13.5,3.8,20.1c0.2,1,1.7,1.8,2.8,2.8c0.4,0.7,0.6,1.2,0.6,1.9
		c0,0.4,0.2,0.6,0.6,1c0.4,0.4,0.6,0.6,0.7,1.3c1.1,2.1,2.3,3.9,3.4,5.6c0.5-0.2,1.1-0.5,1.6-0.7c-0.7-3.8-1.7-7.5-2.1-11.3
		c-0.2-2.1,0.3-4.2,0.7-6.3c0.6,0.1,0.9,0.1,1.5,0.2c0.5,0.1,0.7,0.1,0.9,0.5c0,0.8,0,1.2,0,1.9c0.2,0.8,0.3,1.4,0.5,1.9
		c0.5-0.7,0.9-1.4,1.5-2.5c1-2.5,1.9-4.6,2.7-6.8c4.3-10.8,11.5-19.5,20.4-27.1c0.5-0.3,0.7-0.6,0.8-0.9c0,0,0,0,0.2-0.1
		c0.5-0.3,0.7-0.6,0.9-1.1c1.4-1.7,2.7-3.2,4.4-4.6C168.2,178,169,178,169.7,177.9z"/>
	<path class="st55" d="M159.7,123c-1.8-0.3-3.5-0.7-5.7-1c-1.4-7.3-1.5-14.9-3.6-21.9c-2-6.8-6.1-13-9.9-20.9
		c6.7,2.7,12.5,4.5,17.8,7.3c10.7,5.6,21.7,11.1,29.7,20.5c3,3.5,4.8,8,7.3,12c1.7,2.7,0.9,4.8-1,7.2c-6.7,8.1-3.2,16.5,4,21.1
		c2,1.3,4.3,2.3,6.7,3.6c-6,3.8-11.4,7.2-16.7,10.5c-2.6,1.6-5.1,3.2-8.1,4.4c-0.4-0.7-0.3-1.2-0.3-1.6c0,0,0-0.1,0.3-0.2
		c0.5-0.3,0.6-0.6,0.7-0.9c0,0,0,0,0.2-0.1c0.5-0.7,0.6-1.2,1-1.9c0.3-0.4,0.5-0.7,1-1.1c5.7-8.6,5.5-17.2,0.5-26
		c-0.3-0.8-0.4-1.3-0.3-2c-0.3-1.4-0.9-2.5-1.5-3.6c0,0,0,0.1,0-0.3c-1.3-2.9-2.5-5.3-3.8-8.2c-0.8-1.8-1.6-3.2-2.5-4.8
		c-1.6,1.8-2.6,3-3.9,4.1c-0.7-0.7-1.2-1.2-2-1.8c-1.4-0.7-2.5-1.4-3.6-2.4c0-0.8,0-1.2,0.2-1.9c-0.6-1.9-1.5-3.7-2.4-5.4
		c-0.6,1.7-1.4,3.3-1.8,5c-0.2,0.8,0.6,1.7,0.9,3c0,1.1-0.1,1.8-0.5,2.6C161.1,119.8,160.4,121.4,159.7,123z"/>
	<path class="st56" d="M169.7,177.6c-0.8,0.4-1.5,0.4-2.6,0.2c-0.4-1-0.4-1.7-0.4-2.4c0.3,0.4,0.5,0.7,0.8,1.1
		c-6.1,5.3-12.4,10.3-18.1,16c-6.8,6.8-10.6,15.5-13.7,24.5c-0.2,0-0.4-0.1-0.9-0.4c-0.1-1.8,0-3.2,0.3-4.7c0.3-0.4,0.4-0.7,0.4-1.3
		c0.1-1.3,0.2-2.2,0.3-3.2c0,0,0.1-0.1,0.3-0.1c0.2,0,0.6-0.2,0.7-0.3c0.4-0.4,0.4-0.6,0.1-1.1c0-0.2-0.2-0.7-0.1-1
		c2.2-3.5,4.2-6.7,6.4-9.9c0.3-0.2,0.4-0.4,0.5-0.9c5.4-6.2,10.8-12,16.1-18c11.8-13.5,19.8-28.3,14.6-46.9c1.2,1.5,2.1,2.9,3,4.4
		c0.2,0,0.4,0.1,0.4,0c0.6-0.5,1.2-1,2.1-1.2c1.1,12.7-0.7,24.5-7.6,35.2c-1,1.6-3.7,3.4,0.3,4.6
		C171.7,173.9,170.7,175.6,169.7,177.6z"/>
	<path class="st45" d="M172.8,171.9c-4.1-1-1.5-2.8-0.4-4.4c6.9-10.7,8.7-22.5,7.6-35.6c-0.3-1.5-0.4-2.2-0.3-3.2
		c0.7-0.3,1.2-0.4,1.8-0.6c0,0,0.1-0.1,0,0.3c0.4,1.4,0.8,2.4,1.2,3.5c0.1,0.5,0.2,1.1,0.6,2.3c2.5,9.1,1.5,17.5-0.8,25.8
		c-0.2,0.2-0.4,0.5-0.9,1c-0.6,0.9-0.8,1.4-1,2c0,0,0,0-0.2,0.1c-0.4,0.4-0.5,0.7-0.6,1c0,0-0.1,0-0.4,0.1c-1.4,1.7-2.5,3.3-3.6,4.9
		c0,0-0.1,0-0.3,0.1c-0.7,0.7-1.1,1.3-1.6,1.9C173.5,171.3,173.2,171.5,172.8,171.9z"/>
	<path class="st56" d="M176.1,169c0.8-1.6,1.9-3.2,3.3-4.9c0.3,0.4,0.3,0.8,0.3,1.5C178.6,167,177.5,168,176.1,169z"/>
	<path class="st56" d="M174.1,171c0.1-0.5,0.6-1.2,1.3-1.8C175.3,169.7,174.8,170.3,174.1,171z"/>
	<path class="st57" d="M249.3,418.7c-0.6-0.3-0.8-0.5-1.2-0.8c-1-1-1.9-1.9-3.1-2.9c-3.2-2.8-6.1-5.5-9.2-8.5
		c1.8,0.2,4.1,0.3,5.9,1.2c15.8,8.2,31.4,16.7,47.3,24.7c2,1,5.3,1.1,7.4,0.2c13.2-6.2,26.3-12.7,39.4-19.3c2.9-1.5,5.5-3.5,8.6-5.4
		c-2.2,3-4.3,6.8-7.5,8.9c-12.6,8.2-25.5,15.8-38.2,23.7c-6.7,4.1-11.7-0.9-16.9-3.2c-6.2-2.6-12-6.3-18.3-9.6
		C258.5,424.7,254.1,421.8,249.3,418.7z"/>
	<path class="st58" d="M290.7,49.8c-6.8,1.4-13.6,2.8-20.9,4.3c-1.2-3.5-2.5-7.4-3.7-11.3c-1-3.1,0-4.8,3.5-4.7
		c1.5,0,3.2,0.4,4.4-0.2c1.4-0.6,3.3-2,3.3-3.1c0.1-9.6,6.5-14.4,14-18.3C291.4,27.8,291,38.8,290.7,49.8z"/>
	<path class="st59" d="M293.5,16c7.3,3.2,12.1,8.7,13.5,16.6c0.7,4,2.3,5.5,6.5,5.4c6.5-0.2,6.6,0.2,5,6.5c-0.8,3.2-1.7,6.4-2.7,9.8
		c-7-1.5-13.7-2.9-20.8-4.8C294.2,38,293.9,27,293.5,16 M304.6,33.4c-0.3-6.2-3.2-10.6-9.2-12.3c0.5,9,1,17.5,1.6,26.1
		c0,0.6,1.3,1.5,2.1,1.7c4.9,1,9.9,1.8,14.9,2.8c0.7-2.2,1.1-4.1,1.8-6c1.6-4,0.7-5.9-4-5.7C308.2,40,305,38.8,304.6,33.4z"/>
	<path class="st60" d="M293.2,16c0.7,11,1,22,1.4,33.4c-1,0.5-2.1,0.5-3.5,0.5c-0.1-11.1,0.3-22,0.6-33.5
		C292.1,15.9,292.5,15.9,293.2,16z"/>
	<path class="st61" d="M113.7,277.9c-1-4.6-3.1-8.2-8.6-8.3c-0.5,0-1-0.1-1.4-0.3c-5.9-2.7-10-20.1-5.7-26.4
		c0.9,1.8,1.6,3.5,2.6,4.9c5.2,7.4,9.9,15.3,15.9,22c5.7,6.3,13.1,11.1,19.3,16.9c2.1,2,3.4,5.1,4.3,7.9
		c3.7,11.8,7.2,23.6,10.8,35.7c-6.3,1.4-13.1,3.7-20,4.2c-3.2,0.2-6.8-2.8-10-4.6c-5-2.9-8.7-6.1-6.4-13.1c1.1-3.3-0.5-7.5-0.6-11.3
		c0-1.5,0.8-3,1.6-4.6c0.4-0.1,0.4-0.1,0.4,0.3c0.6,1.5,1.2,2.6,1.8,4c0.1,0.8,0.1,1.2,0.1,1.9c0,0.4,0,0.6,0,1.1
		c0,1.1,0,1.8,0.1,2.9c0.6,0.8,1.2,1.3,2.1,1.8c0.4,0,0.6,0,0.8,0.4c0,0.8,0,1.3,0,2.1c0.5,1.3,1,2.3,1.5,3.2
		c0.6-0.3,1.2-0.5,1.8-0.8c-0.8-1.7-1.5-3.3-2.5-5c-0.4,0-0.6,0-0.8-0.5c0-2.8,0-5.2,0.2-7.7c-0.6-2.1-1.4-3.9-2.4-6
		c-2.5-2.3-2.5-0.2-2.8,1.3c-3.7-3.1-5.1-11.3-2.1-15.8c0.8,0.1,0.9,0.4,1,1c1,1.5,2,2.6,3.1,3.9c0,0.2,0,0.5,0,0.9
		c1,1.2,2,2.1,2.9,2.9c0,0,0,0,0,0.3c0.7,1.1,1.4,1.9,2.3,2.8c0.4,0.4,0.6,0.6,0.7,1.3c3.2,6.1,6.4,11.7,9.6,17.4
		c0.7-0.3,1.3-0.6,2-0.9c-2.9-7.5-5.6-15.1-8.9-22.4c-1.1-2.5-3.7-4.4-5.6-6.5c0,0,0,0,0-0.3C119.7,280.7,118.3,277.6,113.7,277.9
		C113.7,278,113.7,277.9,113.7,277.9z"/>
	<path class="st62" d="M123.6,297.1c-0.1-0.3-0.2-0.6-0.7-1.3c-0.9-1.2-1.5-2-2.2-2.8c0,0,0,0.1,0-0.3c-1-1.2-1.9-2.1-2.9-3
		c0,0,0-0.3-0.1-0.8c-1.1-1.6-2.1-2.8-3-3.9c-0.1-0.3-0.2-0.5-0.7-0.9c-1.9-2.8-3.7-5.4-5.4-8.1c0.3-0.3,0.7-0.7,1-1
		c1.2,0.9,2.3,1.8,3.8,2.9c0.3,0.1,0.3,0.2,0.4,0.5c2.3,2.5,4.6,4.6,6.9,6.7c0,0,0-0.1,0,0.3c1.6,3.6,3.2,6.7,4.6,10
		C125.4,295.6,124.2,296.5,123.6,297.1z"/>
	<path class="st63" d="M115.7,300.3c0.3-1.8,0.3-3.8,2.8-1.1c0.8,2.4,1.4,4.1,2.1,5.9c0,2.4,0,4.7,0,7.5c0,0.5-0.1,0.5-0.1,0.5
		c-0.2,0-0.4,0-0.8-0.3c-0.9-0.8-1.5-1.3-2.1-1.8c0-0.7,0-1.4,0.1-2.6c0-0.7-0.1-1-0.2-1.3c0-0.4,0-0.9-0.1-2
		c-0.6-1.8-1.2-2.9-1.8-4.1c0,0,0,0,0,0C115.7,300.9,115.7,300.5,115.7,300.3z"/>
	<path class="st64" d="M440.7,333c-1.9-0.4-3.3-0.7-4.8-1c-3.1-0.8-3.7-2.5-2.6-5.6c4.1-11.4,7.5-23,11.9-34.2
		c1.3-3.4,4.5-6.5,7.5-8.8c12.4-9.5,23.8-19.8,30.7-34.1c1.6-3.2,2.5-6.7,3.7-10.1c0.5,0,1.1-0.1,1.6-0.1c0.7,2.8,1.7,5.6,2,8.5
		c1.3,10.7-4.6,19.1-9.8,27.5c-5.4,8.9-8.7,18.2-8.2,28.7c0.1,3.1-0.6,6.3-0.4,9.4c0.1,2.1,1.3,4.1,2.6,6
		c-2.3,10.7-15.1,18-26.9,15.3C445.6,334.1,443.4,333.6,440.7,333 M456.7,301.1c-0.6,1.4-1.3,2.7-1.9,4.1c0.5,0.2,1,0.5,1.5,0.7
		c0.8-1.6,1.6-3.3,2.7-5.5c6.7-9,13.5-18,20.2-27c-0.6-0.4-1.2-0.9-1.8-1.3C468.4,280.1,460.2,288.6,456.7,301.1 M468.6,301.8
		c-0.3-0.8-0.6-1.6-0.9-2.5c-0.5,0-1.1-0.1-1.6-0.1c-0.9,5-1.9,9.9-2.8,14.9c0.7,0.2,1.3,0.3,2,0.5
		C466.4,310.6,467.5,306.6,468.6,301.8 M454.1,309.6C454.1,309.6,454.1,309.5,454.1,309.6z"/>
	<path class="st65" d="M224.6,419c10.8,7.3,21.4,14.4,32,21.4c1.3,0.9,2.6,1.9,5.1,3.6c-6.2,3.2-11.4,6.1-16.7,8.6
		c-1,0.5-3.2-0.1-4-1c-12.4-14-24.6-28.1-36.9-42.3c-0.1-0.1,0-0.3,0-0.8c3.3-2.4,6.3-2.3,9.5,0.7C217,412.6,220.8,415.6,224.6,419z
		"/>
	<path class="st66" d="M351,93.2c-4.5-14-12.2-25.3-24.2-34c0.6-3.9,1.9-5.6,5.3-2.3c10.7,10.2,18.4,22.5,23.4,36.4
		c0.1,0.3-0.1,0.6-0.3,1.6C353.8,94.3,352.6,93.9,351,93.2z"/>
	<path class="st67" d="M277.8,151.1c-1.7-0.6-3.1-1.1-4.4-1.7c0-0.3,0.1-0.6,0.1-0.9c11.8,0,23.6,0,35.5,0
		C305.7,153.7,290.4,155,277.8,151.1z"/>
	<path class="st46" d="M418.5,175.1c0.2,0.1,0.2,0.2,0.2,0.7C418.6,175.7,418.4,175.5,418.5,175.1z"/>
	<path class="st17" d="M321.3,363.3c-0.9-0.7-2-1.5-1.9-1.9c1.6-4.2,3.5-8.4,6.4-12.5c1.6,4.8,3.1,9.6,4.9,15
		C327.3,363.8,324.5,363.6,321.3,363.3z"/>
	<path class="st32" d="M280.5,346.5c3.2-0.5,6.1-0.6,9.1-0.7c3.5-0.1,5.2,1.6,5.2,5.1c0.1,3.4-1.4,5.4-4.9,5.5c-3.1,0.1-6.2,0-9.7,0
		C280.2,353.1,280.2,350,280.5,346.5z"/>
	<path class="st68" d="M452.5,213.5c-1.6-3.8-3.4-8-5.3-12.4c-5.6-6.9-10.9-13.5-16.4-20.1c-4.3-5.2-8.7-10.3-13.4-15.7
		c-0.3-0.3-0.5-0.4-0.5-0.4c-4-7.7-8-15.7-6.8-24.6c0.9-6.5,3.2-12.7,5.2-18.8c1.7,5.4,3,10.4,4.3,15.4c0.1,0.6,0.3,1.1,0.6,2.2
		c0.9,1.6,1.5,2.8,2.2,4.2c0.3,0.7,0.7,1.2,1,2c0.6,1.2,1.2,2.1,1.9,2.9c0-0.1-0.1,0-0.1,0.3c0.4,0.8,0.8,1.2,1.2,1.6
		c0-0.1-0.1,0-0.1,0.3c1.4,2.4,2.8,4.5,4.2,6.6c0-0.1-0.1,0,0,0.3c0.9,1.5,1.8,2.7,2.8,3.8c0.1-0.1-0.1,0.1-0.1,0.4
		c0.6,1.2,1.2,2,1.8,2.8c0,0,0,0,0,0c5.4,11.6,10.9,23.2,16.4,35.4c0.2,0.8,0.3,0.9,0.3,1.1c0,0.5,0,1,0.1,2.1
		c0.3,1.5,0.5,2.3,0.7,3.1c0,0.4-0.1,0.8-0.1,1.9c0.1,1.4,0.2,2.2,0.3,2.9C452.6,211.7,452.5,212.4,452.5,213.5z"/>
	<path class="st44" d="M419.8,136.8c-1.6-4.8-2.9-9.8-4.2-15.3c0-0.6,0-0.8,0-1.2c0.6,0.2,1.7,0.6,1.8,1.2
		C418.4,126.5,419.2,131.5,419.8,136.8z"/>
	<path class="st29" d="M416.5,165c0.3,0,0.5,0.1,0.5,0.2c-0.6,0.4-1.2,0.8-1.8,1.1C415.6,165.9,415.9,165.5,416.5,165z"/>
	<path class="st29" d="M405.9,134.9c-0.1,0.1-0.2-0.4-0.2-0.6C406.1,134.2,406.2,134.5,405.9,134.9z"/>
	<path class="st47" d="M423.4,145.1c-0.3-0.5-0.7-0.9-0.7-1.8c0.5-1.1,0.7-1.7,1-2.2c0,0,0,0,0.4,0c0.9-0.1,1.4-0.1,2-0.1
		c0.3,0.2,0.5,0.4,0.6,1.2c0.4,1,0.7,1.5,1.1,1.9c0.3,0.4,0.6,0.9,1,2c1.1,2.1,2.1,3.6,3.1,5c0,0,0.4,0,0.6,0.3
		c0.2,0.7,0.3,1.1,0.4,1.8c0.3,0.5,0.6,0.7,1.1,1c0.2,0,0.7,0,0.7,0c0.2,0.4,0.3,0.8,0.6,1.7c0.2,1,0.3,1.5,0.6,2.3
		c0.4,0.5,0.7,0.7,1.2,1.1c0.4,0.7,0.6,1.2,0.8,1.7c-0.6,1.1-1.3,2.3-2.3,3.5c-0.4,0.2-0.4,0.1-0.2-0.2c-0.6-1.2-1.3-2-2-2.8
		c0,0,0.2-0.2,0.2-0.5c0.5-2.7-0.2-4.1-2.9-3.7c0,0,0.1-0.1,0.1-0.4c-1.4-2.4-2.8-4.5-4.3-6.6c0,0,0.1,0,0.1-0.3
		c-0.4-0.7-0.9-1.2-1.3-1.6c0,0,0.1,0,0.2-0.4C424.8,146.7,424.1,145.9,423.4,145.1z"/>
	<path class="st49" d="M435.6,157.8c-0.1-0.5-0.3-1-0.2-1.8c2.8,3.4,5.5,7,8.1,10.9c-1.7-1.7-3.4-3.7-5.4-6
		c-0.5-0.7-0.7-1.2-1.2-2.1C436.2,158.3,435.9,158.1,435.6,157.8z"/>
	<path class="st49" d="M460.4,189.2c0.8,1.9,1.4,4,1.9,6.5C461.5,193.9,460.9,191.7,460.4,189.2z"/>
	<path class="st49" d="M453.6,186.8c-1-1.4-1.9-3.3-2.9-5.4C451.6,182.8,452.6,184.6,453.6,186.8z"/>
	<path class="st44" d="M431.7,150.6c-1-1.1-2-2.5-3-4.4c0.2-0.4,0.4-0.4,0.8-0.4C430.4,147.3,431,148.8,431.7,150.6z"/>
	<path class="st49" d="M434.2,144.1c1,1.4,1.7,2.8,2.4,4.5c-1-1-2.1-2.4-3.1-4.1C433.6,144.1,434,144.1,434.2,144.1z"/>
	<path class="st49" d="M450.3,179.1c-0.9-0.9-1.8-2.2-2.6-3.8C448.6,176.2,449.5,177.5,450.3,179.1z"/>
	<path class="st49" d="M434.6,153.7c0,0.4-0.5,0.3-0.8,0.1c-0.6-0.5-0.8-0.7-1.1-1c0-0.4-0.1-0.8-0.1-1.5
		C433.3,151.8,434,152.6,434.6,153.7z"/>
	<path class="st49" d="M462,207c0.2,0.5,0.2,1.1,0,1.9C461.7,208.4,461.7,207.7,462,207z"/>
	<path class="st49" d="M454.8,190.9c-0.5-0.3-0.8-0.8-1-1.6C454.3,189.5,454.7,190.1,454.8,190.9z"/>
	<path class="st49" d="M449.9,168c0.6,0.2,1.2,0.8,1.8,1.7C451,169.4,450.4,168.9,449.9,168z"/>
	<path class="st49" d="M445.4,170.1c-0.6-0.2-1.2-0.8-1.7-1.8C444.2,168.6,444.8,169.1,445.4,170.1z"/>
	<path class="st49" d="M459.3,185.1c0.2,0,0.3,0.2,0.4,0.6C459.5,185.7,459.3,185.5,459.3,185.1z"/>
	<path class="st48" d="M453,210.8c-0.3-0.6-0.4-1.3-0.4-2.4C452.8,208.9,453,209.7,453,210.8z"/>
	<path class="st48" d="M452.6,205.9c-0.2-0.5-0.4-1.3-0.5-2.5C452.3,203.9,452.5,204.8,452.6,205.9z"/>
	<path class="st48" d="M451.9,200.9c-0.2-0.1-0.3-0.2-0.3-0.6C451.8,200.3,451.9,200.5,451.9,200.9z"/>
	<path class="st44" d="M425.9,140.5c-0.5,0.4-1,0.4-1.9,0.5c-0.4-1.5-0.4-2.9-0.3-4.8C424.5,137.2,425.2,138.7,425.9,140.5z"/>
	<path class="st44" d="M423.4,140.9c0,0.7-0.2,1.3-0.7,2.1c-0.9-1-1.6-2.1-2.2-3.5C421.3,139.6,422.2,140.2,423.4,140.9z"/>
	<path class="st44" d="M421.4,128.1c0.2,0.1,0.2,0.2,0.3,0.6C421.5,128.7,421.4,128.5,421.4,128.1z"/>
	<path class="st44" d="M427.7,143.7c-0.3-0.2-0.6-0.6-1-1.4C427,142.4,427.3,142.9,427.7,143.7z"/>
	<path class="st69" d="M165.7,114.9c1.1,0.7,2.2,1.3,3.6,2.5c0.3,2.8,0.3,5.1,0.2,7.7c-0.1,0.8-0.2,1.2-0.5,1.9
		c-0.6,2.1-1,4-1.5,6.2c-2.4,4.9-4.5,9.6-6.9,14.1c-7.4,13.5-15,26.9-22.7,40.5c-0.3,0.7-0.4,1.1-0.6,1.7c0,0.1-0.1,0.2-0.4,0.4
		c-0.6,1.8-1,3.4-1.5,5.1c-0.1,0.2-0.2,0.6-0.5,0.9c-0.3,1.1-0.4,2-0.5,3.2c-0.1,0.8-0.2,1.2-0.6,1.9c-0.3,1.8-0.4,3.2-0.5,5
		c-0.1,0.8-0.1,1.2-0.3,2c-0.2,3-0.1,5.8-0.1,8.5c-0.2,2.1-0.7,4.3-0.5,6.4c0.5,3.8,1.4,7.5,2.1,11.3c-0.5,0.2-1.1,0.5-1.6,0.7
		c-1.1-1.7-2.3-3.5-3.1-5.7c0-4.2-0.4-7.9-0.8-11.9c-0.1-0.9-0.1-1.5,0-2.5c-0.1-1.2-0.3-2.1-0.6-3.4c0-2.1,0-3.9,0.2-5.7
		c0.1-0.7,0-1.3,0-2.3c0.7-4.4,1.4-8.4,2.3-12.6c0.3-0.5,0.4-0.8,0.5-1.4c0.2-0.7,0.2-1.1,0.5-1.6c0.4-0.4,0.5-0.7,0.6-1.4
		c5.7-10.5,11.3-20.6,17.1-30.8c0.5-0.2,0.6-0.5,0.7-1.1c0.9-1.6,1.6-3,2.7-4.5c1-1.5,1.7-2.9,2.5-4.4c0.1-0.2,0.1-0.5,0.3-0.7
		c0.4-0.5,0.5-0.8,0.9-1.3c0.4-0.7,0.6-1.2,1.1-2c0.7-1.4,1.2-2.6,1.7-4.2c0.4-1.4,0.8-2.4,1.4-3.7c1.3-3.1,2.3-6.1,3.5-9.4
		c0.3-2,0.5-3.7,0.8-5.8C165.5,117.2,165.6,116.1,165.7,114.9z"/>
	<path class="st70" d="M160.8,134.2c-0.3,1.1-0.7,2.1-1.5,3.6c-0.8,1.7-1.3,3-1.7,4.3c-0.2,0.5-0.4,1.1-1,1.9
		c-0.6,0.7-0.7,1-0.9,1.3c0,0,0,0.4-0.4,0.6c-1.1,1.6-1.8,3.1-2.5,4.5c-0.7,1.4-1.4,2.7-2.5,4.5c-0.5,0.6-0.7,0.8-0.7,1
		c-5.6,10.1-11.2,20.3-17.1,30.9c-0.4,0.8-0.5,1.1-0.6,1.4c-0.1,0.4-0.2,0.8-0.5,1.6c-0.3,0.8-0.4,1.1-0.5,1.4
		c-0.7,4-1.4,8-2.3,12.6c-0.2,1.1-0.1,1.7,0,2.3c0,1.7,0,3.4-0.2,5.8c0.1,1.6,0.4,2.5,0.7,3.5c0.1,0.6,0.1,1.2-0.2,2.2
		c-1.3,0.5-2.3,0.5-3.4,0.4c-0.1-0.2-0.1-0.7-0.1-0.9c-0.2-0.5-0.4-0.8-0.7-1.4c-0.7-4.1-1.4-7.8-1.7-11.9
		c1.7-7.9,3.1-15.5,4.5-23.5c0.2-1.3,0.3-2.3,0.5-3.2c0,0,0.2-0.2,0.4-0.5c1.7-2.4,3.2-4.5,4.8-6.7c0.3-0.3,0.5-0.5,0.5-0.8
		c0,0,0.1,0,0.4-0.1c0.7-0.8,1-1.6,1.5-2.7c1.1-1.7,2-3,3.4-4.4c0.8-1,1.2-2,1.7-3.3c0.1-0.7,0.1-1.1,0.2-1.5c0,0,0-0.1,0.3-0.2
		c1.4-1.4,2.5-2.6,3.9-4c0.8-1,1.3-1.9,1.8-3.2c1.7-3.1,3.4-5.9,5-8.7c0.7-1,1.4-1.9,2.4-3.4c1.4-1.9,2.4-3.3,3.8-4.7
		C159.2,133.4,160,133.8,160.8,134.2z"/>
	<path class="st63" d="M135.7,217.3c3.1-9.3,6.9-18.1,13.7-24.8c5.7-5.7,12-10.7,18.1-16c-0.3-0.4-0.5-0.7-0.8-1.1
		c0,0.7,0,1.4,0,2.4c-1.3,1.8-2.6,3.2-4.2,5c-0.6,0.6-0.8,0.8-0.9,1.2c0,0,0,0-0.2,0.1c-0.5,0.3-0.7,0.6-0.8,0.9
		c-8.7,7.5-15.9,16.1-20.1,27c-0.8,2.1-1.7,4.3-3.1,6.7c-0.9,0.3-1.3,0.3-1.7,0.3C135.7,218.5,135.7,218.1,135.7,217.3z"/>
	<path class="st69" d="M140.4,157.1c0.3,0.4,0.3,0.8-0.1,1.6c-0.8,1.4-1.3,2.3-1.8,3.2c-1,1.3-2,2.7-3.3,4.5
		c-0.7,1.2-1.1,1.9-1.5,2.6c0,0-0.1,0-0.3,0.1c-0.5,0.3-0.6,0.6-0.5,0.9c-1.5,2.1-2.9,4.2-4.7,6.4c1.1-3.1,2.2-6.5,4-9.4
		C134.5,163.5,137.4,160.4,140.4,157.1z"/>
	<path class="st69" d="M125.4,217.2c0,0,0.1,0.5,0.1,1.1c0.7,2.7,1.4,4.7,2.1,6.8c-0.9-0.9-2.4-1.6-2.6-2.7
		c-1.5-6.6-2.7-13.2-3.7-19.8c0.7,0.5,1,0.9,1.4,1.4c0.6,3.7,1.2,7.5,2,11.8C124.9,216.7,125.1,217,125.4,217.2z"/>
	<path class="st71" d="M122.9,203.7c-0.6-0.2-1-0.7-1.4-1.5c-0.1-1.4,0-2.4,0-4.2c0-1.5,0-2.3-0.1-3c0-0.2,0.1-0.3,0.3-0.9
		c0.5-0.6,0.6-0.8,0.5-1.1c0.1-0.8,0.2-1.5,0.6-2.8c1-3.1,1.8-5.7,2.5-8.2c0,0,0.2-0.5,0.5-0.7c0.7-0.4,1.1-0.5,1.5-0.6
		C126,188.2,124.6,195.8,122.9,203.7z"/>
	<path class="st71" d="M161.1,134c-1.1-0.2-1.9-0.6-3.1-1.3c-0.3-0.8-0.3-1.2-0.3-1.7c0,0,0.1-0.3,0.3-0.6c0.4-0.7,0.6-1,0.7-1.4
		c0.3-0.5,0.6-1,1.1-1.9c0.7-1,1.2-1.6,1.8-2.3c1-0.1,1.9,0,2.7,0C163.4,127.9,162.4,130.8,161.1,134z"/>
	<path class="st72" d="M127.8,225.2c-0.9-2.2-1.6-4.3-2.2-6.8c1-0.4,2-0.5,3.3-0.7c0.7,3.6,1.1,7.4,1.2,11.2
		c-0.5-0.2-0.6-0.5-1.1-1.1c-0.2-0.4-0.4-0.8-0.4-0.8C128.3,226.5,128.2,225.9,127.8,225.2z"/>
	<path class="st69" d="M151.4,141.1c-1.3,2.8-2.9,5.6-4.9,8.8c-0.8,0.7-1.3,1-1.8,1.2c-0.1-0.1-0.2-0.2-0.2-0.2
		C146.7,147.6,148.9,144.3,151.4,141.1z"/>
	<path class="st73" d="M133.3,216.7c-0.3-2.7-0.3-5.4,0-8.3c1.1-0.4,1.8-0.8,2.6-1.1c-0.1,0.9-0.2,1.9-0.4,3.3
		c-0.4,0.7-0.5,1-0.4,1.3c-0.2,1.4-0.3,2.8-0.5,4.5C134.2,216.8,133.8,216.8,133.3,216.7z"/>
	<path class="st69" d="M161.5,125c-0.5,0.6-0.9,1.2-1.6,1.9c-0.3-1-0.3-2.1-0.3-3.6c0.7-1.9,1.5-3.6,2.6-5c0.5,0.4,0.6,0.6,0.5,1.2
		C162.3,121.6,161.9,123.3,161.5,125z"/>
	<path class="st69" d="M125,182c-0.4,2.4-1.2,5-2.2,7.7C123.3,187.4,124,184.8,125,182z"/>
	<path class="st69" d="M144.6,153c-1.1,1.3-2.2,2.6-3.6,4c0.7-1.9,1.8-3.9,3.1-6c0.3-0.1,0.5,0.1,0.5,0.4
		C144.7,152.2,144.7,152.6,144.6,153z"/>
	<path class="st69" d="M157.4,131.1c0.3,0.4,0.3,0.8,0.3,1.6c-1.1,1.7-2.1,3.2-3.5,4.7C155,135.4,156,133.3,157.4,131.1z"/>
	<path class="st69" d="M127.4,180.3c-0.4,0.5-0.8,0.6-1.5,0.7c0.2-1.3,0.7-2.6,1.6-3.9C127.7,178,127.6,178.9,127.4,180.3z"/>
	<path class="st56" d="M135.7,219.3c0.4-0.3,0.9-0.3,1.6-0.2c-0.1,0.7-0.6,1.5-1,2.2C136.1,220.7,135.9,220.1,135.7,219.3z"/>
	<path class="st69" d="M121.3,195.2c0.2,0.5,0.3,1.3,0.2,2.4C121.3,197.1,121.2,196.3,121.3,195.2z"/>
	<path class="st69" d="M128.4,227.1c0.1-0.1,0.3,0.4,0.3,0.6C128.6,227.7,128.4,227.5,128.4,227.1z"/>
	<path class="st69" d="M122.1,193.1c0.3,0.2,0.2,0.4-0.3,0.8C121.7,193.7,121.8,193.5,122.1,193.1z"/>
	<path class="st7" d="M160.9,184.9c-0.1-0.2,0.1-0.5,0.6-0.8C161.5,184.3,161.3,184.6,160.9,184.9z"/>
	<path class="st7" d="M161.8,183.9c-0.1-0.2,0.1-0.5,0.6-0.8C162.5,183.3,162.3,183.6,161.8,183.9z"/>
	<path class="st69" d="M158.5,129.2c0.1,0.2-0.1,0.6-0.5,1.1C158,130.1,158.1,129.7,158.5,129.2z"/>
	<path class="st47" d="M179.5,129c0.1,0.8,0.2,1.5,0.2,2.6c-0.6,0.9-1.2,1.4-1.8,1.9c-0.1,0.1-0.3,0-0.4,0c-0.9-1.4-1.8-2.8-3.1-4.6
		c-0.5-0.5-0.5-0.7-0.5-1.2c0.1-0.4,0.2-0.6,0.4-1c-0.1-0.7-0.4-1.2-0.8-1.7c-0.2,0-0.6,0-0.6-0.1s0-0.1,0-0.3
		c-0.3-0.8-0.6-1.2-0.9-1.8c0,0-0.1-0.2,0-0.5c-0.1-1.3-0.2-2.3-0.4-3.2c1-1.2,2.1-2.4,3.7-4.2c0.9,1.6,1.7,3.1,2.2,5.1
		C177.9,123.3,178.7,126.1,179.5,129z"/>
	<path class="st56" d="M182.8,159.8c2-8.1,3-16.4,0.7-25.4C188.3,142.7,188.4,151.2,182.8,159.8z"/>
	<path class="st69" d="M162.6,115c-0.3-0.9-1-1.8-0.9-2.6c0.4-1.7,1.2-3.3,1.8-5c0.9,1.7,1.8,3.4,2.2,5.2c-0.9-0.5-1.2-1.1-1.6-1.6
		C163.6,112.4,163.1,113.7,162.6,115z"/>
	<path class="st56" d="M179.7,128.8c-1-2.6-1.8-5.4-2.3-8.5c1.6,2.2,2.8,4.7,4.1,7.6C180.9,128.3,180.4,128.5,179.7,128.8z"/>
	<path class="st74" d="M162.6,115.4c0.5-1.7,0.9-3,1.5-4.4c0.3,0.5,0.7,1.1,1.3,1.9c0.2,0.6,0.3,1,0.3,1.8c-0.1,1.5-0.1,2.6-0.6,4.1
		c-1,0.4-1.6,0.4-2.2,0.4c-0.1-0.2-0.1-0.4-0.3-0.9C162.5,117.2,162.6,116.5,162.6,115.4z"/>
	<path class="st73" d="M171.3,118.9c0.4,1.1,0.5,2.1,0.3,3.6c-0.9,1.1-1.5,1.8-2,2.5c0-2.3,0.1-4.6,0.1-7.3
		C170.1,117.6,170.6,118.2,171.3,118.9z"/>
	<path class="st56" d="M182.9,131.8c-0.7-0.9-1.1-1.9-1.5-3.3C182,129.3,182.6,130.4,182.9,131.8z"/>
	<path class="st56" d="M180.9,162.8c-0.1-0.4,0.1-1,0.6-1.6C181.5,161.6,181.3,162.2,180.9,162.8z"/>
	<path class="st56" d="M180,163.9c-0.1-0.2,0.1-0.5,0.4-0.9C180.6,163.3,180.4,163.6,180,163.9z"/>
	<path class="st75" d="M169.5,125.2c0.6-1,1.2-1.6,2-2.4c0.3-0.1,0.4,0,0.4,0.3c0.3,0.8,0.6,1.3,0.9,1.8c0,0,0,0,0,0.4
		c0.3,1.1,0.7,1.9,1,2.7c0.1,0.2,0.1,0.4,0.3,0.8c5.6,19-2.3,33.8-14.1,47.3c-5.2,6-10.6,11.8-16.2,18c-0.6,0.5-0.6,0.7-0.5,0.9
		c-2,3.2-4.1,6.4-6.5,10c-0.5,1.1-0.6,1.7-0.7,2.3c0,0-0.1,0.1-0.1,0.1c-0.7,0.4-1.5,0.7-2.4,0.8c-0.2-0.7-0.1-1.1,0.2-2.1
		c0.4-2.1,0.4-3.6,0.4-5.1c0.1-0.4,0.2-0.9,0.6-1.8c0.4-1.4,0.4-2.3,0.5-3.2c0,0,0.2-0.4,0.5-0.8c0.7-2,1.1-3.6,1.4-5.1
		c0,0,0.1-0.1,0.4-0.2c0.4-0.7,0.4-1.2,0.5-1.8c7.5-13.4,15-26.9,22.5-40.4c2.5-4.5,4.6-9.2,7.2-14.4c0.7-2.5,1.1-4.3,1.4-6.2
		C169.2,126.4,169.3,126,169.5,125.2z"/>
	<path class="st73" d="M136.2,207.2c-0.1-0.6,0-1.2,0.3-1.9c0.3-0.1,0.5,0.3,0.4,0.8c-0.1,0.6-0.1,0.8-0.1,1
		C136.8,207,136.4,207.2,136.2,207.2z"/>
	<path class="st15" d="M136.9,206.9c-0.1-0.1-0.1-0.3,0-0.7C137.3,206.3,137.3,206.6,136.9,206.9z"/>
	<path class="st15" d="M135.2,211.8c-0.2-0.2-0.1-0.4,0.2-0.8C135.6,211.2,135.5,211.4,135.2,211.8z"/>
	<path class="st15" d="M143.3,194.9c-0.2-0.2-0.2-0.4,0.2-0.5C143.7,194.5,143.6,194.7,143.3,194.9z"/>
	<path class="st76" d="M304.6,33.8c0.3,5,3.6,6.2,7.3,6.1c4.7-0.2,5.6,1.7,4,5.7c-0.7,1.8-1.2,3.8-1.8,6c-5-0.9-10-1.7-14.9-2.8
		c-0.8-0.2-2.1-1.1-2.1-1.7c-0.6-8.6-1.1-17.1-1.6-26.1C301.4,22.8,304.3,27.2,304.6,33.8z"/>
	<path class="st13" d="M123.6,297.4c0.6-1,1.8-1.8,1.7-2.1c-1.4-3.3-3-6.4-4.7-10c1.9,1.8,4.4,3.6,5.6,6.1c3.3,7.3,6,14.9,8.9,22.4
		c-0.7,0.3-1.3,0.6-2,0.9C130,309.2,126.8,303.5,123.6,297.4z"/>
	<path class="st13" d="M120.6,284.7c-2.3-1.8-4.6-3.9-6.9-6.4C118.3,277.6,119.7,280.7,120.6,284.7z"/>
	<path class="st13" d="M121.7,313c0.8,1.7,1.5,3.3,2.3,5c-0.6,0.3-1.2,0.5-1.8,0.8c-0.5-1-1-1.9-1.2-3.5
		C121.3,314.2,121.5,313.6,121.7,313z"/>
	<path class="st13" d="M120.9,304.8c-0.9-1.5-1.6-3.3-2.2-5.4C119.5,300.9,120.3,302.7,120.9,304.8z"/>
	<path class="st13" d="M114.6,285.3c1,0.8,2,1.9,3,3.4C116.7,287.9,115.7,286.8,114.6,285.3z"/>
	<path class="st13" d="M115.7,301.3c0.6,0.7,1.2,1.9,1.8,3.3C116.9,303.9,116.3,302.8,115.7,301.3z"/>
	<path class="st13" d="M117.8,290.1c1,0.5,1.9,1.4,2.9,2.6C119.7,292.1,118.7,291.3,117.8,290.1z"/>
	<path class="st13" d="M120.7,293.3c0.7,0.4,1.3,1.2,2,2.4C122,295.2,121.3,294.4,120.7,293.3z"/>
	<path class="st13" d="M117.7,311.2c0.6,0.2,1.2,0.7,1.8,1.5C118.9,312.5,118.3,312,117.7,311.2z"/>
	<path class="st63" d="M121.4,313c0.1,0.6-0.1,1.2-0.6,2c-0.3-0.3-0.3-0.7-0.3-1.6c0-0.4,0-0.4,0.1-0.4C120.8,313,121,313,121.4,313
		z"/>
	<path class="st13" d="M117.6,307.3c0.1,0,0.2,0.3,0.2,0.7C117.6,307.9,117.6,307.7,117.6,307.3z"/>
	<path class="st74" d="M457.3,300.9c3-12.3,11.1-20.9,20.1-28.8c0.6,0.4,1.2,0.9,1.8,1.3c-6.7,9-13.5,18-20.7,27.3
		C457.7,301,457.5,300.9,457.3,300.9z"/>
	<path class="st63" d="M468.6,302.2c-1.1,4.4-2.2,8.4-3.2,12.4c-0.7-0.2-1.3-0.3-2-0.5c0.9-5,1.9-9.9,2.8-14.9
		c0.5,0,1.1,0.1,1.6,0.1C468,300.2,468.3,301,468.6,302.2z"/>
	<path class="st63" d="M457,301c0.5-0.1,0.8-0.1,1.3,0c-0.5,1.7-1.3,3.3-2,4.9c-0.5-0.2-1-0.5-1.5-0.7
		C455.4,303.8,456,302.5,457,301z"/>
	<path class="st63" d="M454.1,309.5C454.1,309.5,454.1,309.6,454.1,309.5z"/>
	<path class="st44" d="M426.4,150.5c1.4,1.7,2.8,3.8,4.2,6.3C429.1,155.1,427.8,153,426.4,150.5z"/>
	<path class="st44" d="M430.5,157.4c2.6-0.7,3.4,0.7,2.8,3.5C432.3,160.2,431.5,159,430.5,157.4z"/>
	<path class="st44" d="M423.4,145.4c0.7,0.5,1.4,1.3,1.9,2.6C424.6,147.5,424,146.6,423.4,145.4z"/>
	<path class="st44" d="M433.2,161.6c0.7,0.5,1.4,1.3,2,2.5C434.4,163.6,433.8,162.8,433.2,161.6z"/>
	<path class="st44" d="M425.2,148.6c0.4,0.1,0.8,0.6,1.2,1.3C426,149.8,425.6,149.3,425.2,148.6z"/>
	<path class="st44" d="M432.8,153.1c0.2,0,0.4,0.2,0.8,0.7C433.4,153.8,433.1,153.5,432.8,153.1z"/>
	<path class="st44" d="M435.7,158.1c0.2,0,0.5,0.2,0.9,0.6C436.4,158.8,436.1,158.6,435.7,158.1z"/>
	<path class="st49" d="M162.8,119.5c0.7-0.4,1.3-0.4,2.2-0.4c0.1,1.7-0.1,3.4-0.4,5.5c-0.9,0.3-1.8,0.2-2.8,0.3
		C161.9,123.3,162.3,121.6,162.8,119.5z"/>
	<path class="st71" d="M153.1,150.2c0.4-1.3,1.1-2.7,2.1-4.2C154.9,147.3,154.2,148.7,153.1,150.2z"/>
	<path class="st73" d="M169,127.1c-0.1,1.6-0.5,3.5-1.1,5.6C168,131.1,168.4,129.2,169,127.1z"/>
	<path class="st73" d="M137,190.1c-0.1,1.3-0.5,2.9-1.1,4.7C135.9,193.4,136.3,191.8,137,190.1z"/>
	<path class="st71" d="M157.9,141.9c0.1-1.1,0.5-2.4,1.3-3.8C159.1,139.2,158.7,140.4,157.9,141.9z"/>
	<path class="st72" d="M129.2,214.9c-0.5-0.6-0.7-1.6-0.8-2.7C128.8,212.9,129.1,213.7,129.2,214.9z"/>
	<path class="st73" d="M133.9,201.2c0.2,1.2,0.2,2.7-0.2,4.5C133.6,204.4,133.6,202.9,133.9,201.2z"/>
	<path class="st72" d="M128.8,205.9c-0.3-0.4-0.4-1-0.3-1.7C128.8,204.6,128.9,205.1,128.8,205.9z"/>
	<path class="st73" d="M135,196.1c0.2,0.6,0.1,1.5-0.2,2.7C134.6,198.1,134.7,197.2,135,196.1z"/>
	<path class="st73" d="M137.9,188c0.1,0.4,0.1,0.9-0.3,1.6C137.5,189.1,137.6,188.6,137.9,188z"/>
	<path class="st71" d="M149.8,155.8c-0.1-0.2,0-0.4,0.3-0.7C150.4,155.3,150.3,155.6,149.8,155.8z"/>
	<path class="st71" d="M156,145.1c-0.1-0.2,0-0.5,0.4-1C156.5,144.3,156.4,144.7,156,145.1z"/>
	<path class="st72" d="M131,191c-0.1-0.2,0-0.5,0.2-0.9C131.4,190.2,131.3,190.5,131,191z"/>
	<path class="st72" d="M132.1,188c-0.1-0.2,0-0.5,0.3-0.9C132.6,187.3,132.5,187.6,132.1,188z"/>
	<path class="st71" d="M145,152.9c-0.3-0.4-0.3-0.8-0.2-1.5c0.5-0.6,0.9-0.9,1.7-1.3C146.2,151,145.8,152,145,152.9z"/>
	<path class="st71" d="M138.9,161.9c0.1-0.9,0.6-1.8,1.4-2.9C140.1,159.9,139.7,160.9,138.9,161.9z"/>
	<path class="st71" d="M134,169c0-0.6,0.4-1.3,1.1-2.2C135.1,167.4,134.7,168.1,134,169z"/>
	<path class="st72" d="M125.4,216.9c-0.3,0.1-0.5-0.2-0.6-0.8C125,216.2,125.2,216.4,125.4,216.9z"/>
	<path class="st71" d="M133.1,169.9c-0.2-0.2-0.2-0.5,0.3-0.7C133.6,169.3,133.5,169.6,133.1,169.9z"/>
	<path class="st73" d="M173.8,127.7c-0.5-0.5-0.8-1.3-1.1-2.4c0-0.3,0.4-0.3,0.7,0c0.4,0.8,0.5,1.2,0.7,1.6
		C174,127.1,174,127.3,173.8,127.7z"/>
	<path class="st56" d="M174.2,126.7c-0.3-0.2-0.4-0.6-0.6-1.4C173.8,125.5,174.1,126,174.2,126.7z"/>
	<path class="st73" d="M172.8,124.6c-0.3-0.2-0.7-0.6-0.9-1.4C172.2,123.3,172.5,123.8,172.8,124.6z"/>
</g>
<g id="Camada_2">
	<path class="st77" d="M91.1,361.2l30.2,16.1l-4.8,31.8c0,0,161.1-55.1,351.8-0.2l-5.5-31.4l32.1-16.6
		C494.8,360.9,322.2,295.7,91.1,361.2z"/>
	<polygon class="st77" points="130.4,367.4 136.5,373.2 134.6,380.6 142.6,377.4 147.7,380 149.1,374 154.9,366.4 145,364 
		143,357.9 137.3,366.8 	"/>
	<path class="st77" d="M238,352.7l7-1.9c0,0-1.1-15.1-23.8-8.5c0,0-12,9.9-2,17.7c10,7.8,25.9,4.1,19.1,13.3
		c-6.8,9.1-18.5-9.9-21.8-3.7c0,0-0.9,10.4,13.2,12.8s19.9-9.8,16.3-18.3c-3.6-8.5-27.1-8.6-23-12.4S234.3,345.5,238,352.7z"/>
	<polygon class="st77" points="254.6,339.4 256.3,379.4 264.3,379.4 262.3,339.4 	"/>
	<path class="st77" d="M272.2,339.1V379h8.3v-15c0,0,33.9,1.7,18.2-23.7L272.2,339.1z"/>
	<path class="st77" d="M280.2,349v7.4l12.7-0.9c0,0,6-10.8-3.4-9.7s-9.3,1.1-9.3,1.1l0,0"/>
</g>
</svg>
