<?xml version="1.0" encoding="utf-8"?>
<!-- Generator: Adobe Illustrator 28.1.0, SVG Export Plug-In . SVG Version: 6.00 Build 0)  -->
<svg version="1.1" id="Layer_1" xmlns="http://www.w3.org/2000/svg" xmlns:xlink="http://www.w3.org/1999/xlink" x="0px" y="0px"
	 viewBox="0 0 595.3 588" style="enable-background:new 0 0 595.3 588;" xml:space="preserve">
<style type="text/css">
	.st0{fill:none;stroke:#000000;stroke-miterlimit:10;}
</style>
<path class="st0" d="M1,216.4C1,147.3,1,78.6,1,9.9c198.4,0,396.9,0,595.3,0c0,190,0,380,0,570.1c-198.4,0-396.8,0-595.3,0
	C1,459,1,338,1,216.4 M107.3,311.7c0,0,0,0.1,0.2,0.5c0.2,0.3,0.5,0.4,0.9,0.4c0,0-0.1-0.1,0.1,0.5c0.3,0.2,0.6,0.5,1.2,1.3
	c1,0.9,2,1.7,3.7,3.2c0-2.1,0-3.3,0.2-4.9c0-0.8-0.1-1.6,0.1-3.1c0.1-1.7,0.2-3.4,0.6-5.8c0.4-3.6,0.8-7.2,1.4-11.3
	c0-0.3,0-0.7,0.4-1.7c0.5-2.8,1.1-5.7,1.9-8.8c0,0-0.1-0.4-0.1-0.4c0,0,0,0,0.4-0.5c0.3-1.5,0.6-3.1,1.2-5c0-0.3,0.1-0.7,0.6-1.5
	c0.5-1.6,0.9-3.3,1.6-5c0,0-0.1-0.2,0.4-0.7c0.2-0.7,0.4-1.3,0.8-2.3c0,0,0-0.4-0.4-0.4c0,0,0.4,0,0.8-0.5c0.4-1.3,0.8-2.5,1.5-3.9
	c0,0,0-0.2,0.4-0.6c0.1-0.4,0.2-0.8,0.4-1.3c0,0-0.1-0.2,0.3-0.4c0.1-0.5,0.2-0.9,0.8-1.9c0.1-0.5,0.3-0.9,0.7-1.8
	c0,0,0-0.5-0.1-0.5c0,0,0.1,0.1,0.6-0.3c0.8-1.8,1.6-3.6,2.4-5.4c0,0,0,0,0.4-0.3c0.1-0.3,0.2-0.6,0.6-1.3c0,0,0-0.4-0.1-0.4
	c0,0,0.1,0.1,0.6-0.3c0.7-1.1,1.3-2.2,2-3.3c11.6-18.8,24.2-36.7,43-49.1c5.7-3.8,11.9-6.7,18.3-10.2c-3.4-1.7-6.6-3.1-9.7-4.8
	c-9.2-5.1-14.7-13.3-5.3-24.9c3.5-3.6,1.4-7.3-0.1-10.6c-3.7-7.9-9.4-14.4-16.8-20.1c-16.3-12.9-34.7-21.4-55.8-27.4
	c1.8,2.7,3,4.2,3.9,5.9c4.5,8.7,9.8,17.1,13.1,26.3c5.3,14.7,3.4,29-6.5,41.6c-2.5,3.2-4.9,6.4-7.4,9.6
	c-5.2,6.8-10.4,13.6-15.3,20.5c0,0-0.3-0.1-0.9,0.2c-1.3,1.9-2.6,3.9-4.1,6c0,0-0.1,0.3-0.6,0.7c-21.5,29.6-18.7,59.8,4.7,89
	c0,0,0.4,0.3,0.6,0.8c0.4,0.3,0.7,0.7,1.2,1.3c0,0,0.2,0.1,0.3,0.8c1,1.1,2,2.2,3.2,3.8c0.5,0.5,1,1,1.6,2c0.3,0.2,0.6,0.4,0.9,0.5
	c0,0-0.1,0,0.1,0.6c0.6,0.5,1.1,1,1.7,1.5c0,0-0.1,0,0.1,0.5c0.3,0.2,0.6,0.4,0.9,0.5c0,0-0.1,0,0,0.5c0.3,0.2,0.6,0.4,0.9,0.5
	c0,0-0.1,0,0.1,0.5c0.3,0.2,0.6,0.4,0.9,0.4c0,0-0.1,0,0,0.5C106.8,311.4,107.1,311.6,107.3,311.7 M499.8,316.4
	c-0.2,0.2-0.4,0.4-1.2,0.9c-3.4,3.5-6.7,7-10.6,10.6c-0.4,0.3-0.9,0.6-1.9,1.1c-0.8,0.9-1.6,1.8-3,2.8c-1,1-2.1,2-3.7,3
	c-0.8,0.9-1.6,1.8-3.1,2.7c-2.3,1.9-4.7,3.8-7.7,6c-0.7,1.4-1.7,2.8-2,4.3c-2.2,12.6-5.7,24.8-11.5,36.2c-0.6,1.1-0.2,2.7-0.3,4.6
	c-0.3,0.5-0.5,0.9-1.4,1.5c-0.5,1.6-1.1,3.1-1.6,5.3c0.1,0.4,0.2,0.8,0.7,1.7c8.4,1.9,17,3.4,25.3,5.7c7.2,2,12.5-0.5,17.6-6
	c1.1-0.9,2.2-1.8,4-2.9c1.4-1.6,2.8-3.2,4.7-5c0.5-0.9,1-1.7,2.1-2.9c4-5.5,5.6-11.6,4.4-18.4c0-0.2-0.5-0.4-0.8-0.6
	c-1.3,0.3-2.6,0.7-4.3,1.1c-0.7-11,0.1-21.3,5-30.9c3.2-6.3,7.3-12,10.7-18.2c5.3-9.7,6.9-20,3.3-30.6c-0.6-1.9-2.5-3.3-3.8-4.9
	c0,0,0,0,0-0.6c-0.4-0.4-0.8-0.8-1.1-1.3c0,0,0,0.1-0.1-0.4c-0.3-0.2-0.5-0.4-1.2-0.3c-0.2,0.2-0.4,0.4-1.3,0.8
	c-2.6,7-5.2,14-8,20.9c-1.1,2.7-2.6,5.1-4.5,7.9c-1.1,1.6-2.2,3.1-3.6,4.9C500.5,315.7,500.3,315.9,499.8,316.4 M85.4,319.5
	c-0.2-0.3-0.4-0.5-1-0.4c0,0,0.2-0.2,0.1-0.6c-0.4-0.3-0.7-0.6-1.3-1.3c0,0-0.4-0.3-0.5-0.7c-0.2-0.3-0.4-0.5-0.7-0.6
	c0,0-0.1,0-0.3-0.6c-0.9-1-1.9-2-3.1-3c0,0,0.2-0.1,0.1-0.7c-0.7-0.9-1.5-1.7-2.2-2.8c0,0-0.2-0.2-0.3-0.7c-0.7-0.9-1.4-1.8-2.2-2.7
	c0,0,0,0-0.1-0.7c-1.1-1.7-2.1-3.5-3.3-5.6c0,0-0.2-0.2-0.2-0.8c-0.4-0.6-0.7-1.2-1.2-2.2c0,0-0.2-0.4-0.2-1.1
	c-0.7-1.9-1.4-3.9-2.2-6.6c-0.2-0.5-0.3-1-0.3-2.2c-0.2-1.8-0.4-3.5-0.6-5.3c-0.4-0.1-0.9-0.1-1.3-0.2c-0.9,1.8-1.7,3.5-2.6,5.3
	c0,0,0,0-0.5,0.5c-2.7,6.1-3.7,12.4-1.8,19.7c0.2,0.4,0.3,0.9,0.4,2c0.9,2.2,1.9,4.4,2.9,7c0,0,0.2,0.3,0.3,1c2.5,4.3,5,8.6,7.6,13
	c0,0,0.1,0,0.2,0.7c2.7,6.3,5.5,12.7,8.2,19.7c0.2,0.6,0.3,1.2,0.2,2.4c0.3,2.3,0.5,4.6,0.7,7.8c0.1,2.1,0.2,4.2,0.1,6.6
	c0,0,0.2,0.3,0.1,1c0.1,0.5,0.1,1-0.1,2.1c0.2,2.6,0.3,5.1,0.5,7.7c-0.4,0.1-0.8,0.2-1.2,0.3c-2-3.6-4-7.3-5.9-10.9
	c0.5,10.2,2.1,19.9,11.7,25.7c0,0-0.1,0.1,0.1,0.6c0.2,0.3,0.5,0.4,0.8,0.4c0,0,0,0,0.3,0.5c0.8,0.5,1.7,0.9,2.7,1.3
	c0,0-0.1,0.1,0.2,0.7c2,1.3,3.9,2.8,6,3.9c1.9,1,4.1,2.8,5.8,2.5c6.7-1.2,13.3-3,20.7-4.6c1.1-0.2,2.3-0.5,4-0.6
	c1.9-0.4,3.9-0.8,5.1-1.1c-4.5-12.2-8.8-23.8-13.2-36c-0.1-0.4-0.3-0.7-0.3-1.6c-0.5-2-1-4-1.4-6.6c-0.1-0.5-0.3-0.9-0.3-2.1
	c-1.1-2.3-2.2-4.6-3.6-7.1c0,0-0.4-0.2-0.7-0.7c-0.9-0.5-1.8-0.9-2.8-1.2c0,0,0.2-0.2-0.1-0.8c-1.2-0.8-2.4-1.6-3.8-2.1
	c0,0,0.2-0.2-0.1-0.7c-1.2-0.8-2.4-1.6-3.8-2.8c-0.2-0.2-0.5-0.4-1.1-1c-1.8-1.4-3.6-2.9-5.6-4.1c0,0,0.2-0.2,0-0.7
	c-0.2-0.3-0.5-0.4-1.1-0.9c-0.2-0.2-0.5-0.4-1-1.1c-0.9-0.7-1.8-1.5-3-2.7c-0.3-0.2-0.5-0.4-0.9-1.1c-0.2-0.3-0.4-0.5-0.9-0.4
	c0,0,0.1-0.1-0.1-0.6c-0.2-0.3-0.4-0.5-0.9-0.4c0,0,0.2-0.2,0-0.6c-0.2-0.3-0.4-0.5-1-0.4C85.4,320.1,85.5,319.9,85.4,319.5
	 M329.4,78.3c-0.6,1.4-1.1,2.9-1.7,4.4c12.3,8.1,20.4,19,25.6,32.1c1.1,2.9,3,3.3,5.9,3.8c2.8,1.5,5.7,3,8.5,4.5
	c0.3-0.4,0.7-0.8,1-1.3c-7.1-20.9-17.8-39.4-36.8-53.9C330.9,72,330.3,74.9,329.4,78.3 M253.1,75.9c-0.6-2.3-1.2-4.5-1.9-6.8
	c-15,6.8-34.1,38.6-34.9,53.7c3.3-1.5,6.3-2.9,10-4.5c1.5-1.6,3.4-2.9,4.3-4.7c5.1-10.5,11-20.4,20.7-27.3
	C255.7,83.3,256.1,80.6,253.1,75.9 M478.9,189.3c0,0,0,0,0-0.7c-3.3-4.1-6.6-8.3-9.9-12.4c-9.1-11-15.3-23.2-11.8-37.8
	c2.1-8.7,5.4-17.2,9-25.4c2.3-5.4,6-10.1,9.3-15.4c-14.8,2.8-40.2,15-54.4,26.1c-7.5,5.8-13.7,12.6-17.9,21.3c-2,4.1-2,7.1,1.1,10.8
	c8.3,9.8,6.9,17-4.2,23.6c-3.5,2.1-7.4,3.7-10.6,5.2c51,29.2,78.2,72.9,81.3,132.5c3.6-3.8,6.9-7.1,10-10.5
	c12.8-14.1,23-29.8,26.3-48.8C511.8,229.3,496.2,208.9,478.9,189.3 M362.3,480.1c0-0.8,0-1.5,0-2.3c-8.2,0.3-16.3-2.9-24.5,1.5
	c-13.4,7.3-27.4,13.5-41.1,20.4c-3.4,1.7-6.3,1.7-9.6,0c-13.3-6.5-27-12.4-39.9-19.6c-9.6-5.3-18.9-1.9-28.9-2.6
	c0.7,1.2,0.8,1.6,1,1.7c0.5,0.4,1.1,0.7,1.8,1.7c0.6,0.7,1.2,1.5,1.9,2.2c20.2,17.4,42.5,31.5,66.8,42.3c1.7,0.8,4.4,0.3,6.3-0.6
	c22.1-10.2,42.1-23.7,61-39C358.8,484.3,360.1,482.2,362.3,480.1 M306.5,394.5c-42.3-1.4-84.2,2.3-126,8.3
	c-46,6.6-115,23.2-123.1,27.9c8.2,4,16.2,7.9,24.1,11.8c12.1,6,12,6,9.2,19.5c-1.6,7.5-2.8,15-4.3,23.1
	c67.7-18.4,135.7-29.1,205.1-29.3c69.4-0.2,137.5,10.2,205,29.1c-2.3-12.8-4.4-24.3-6.5-36.2c12.1-6.2,24.2-12.4,36.3-18.6
	c-23.3-6.5-46.2-11.7-69-17.1C407.9,401.3,357.9,396.2,306.5,394.5 M201.4,272.8c0.1-6-0.1-12,0.3-17.9c0.5-8.4,2.4-16.3,8.3-22.7
	c6.8-7.4,18.2-9.1,25.5-3.8c7.4,5.4,9.3,16.3,4.3,24.9c-3.5,5.9-2.3,8.9,4.6,10.7c2.4,0.6,5.2,0.2,7.4,1.2c7.5,3.5,14.7,1,20.5-2.8
	c4.4-2.9,7.9-8.7,9.6-14c5.4-16.8-0.5-31.3-13.4-42.1c-19.6-16.3-42.5-17.2-66-10.3c-22.5,6.6-41.4,29.4-42.3,52.8
	c-1,25.6-0.8,51.3,0.1,77c0.5,14.1,6.6,27,16.2,37.6c11.3,12.5,25.9,17.6,42.4,18.3c21.8,1,41.3-4.1,55.2-22.1
	c14.2-18.4,17.2-38.9,8-60.7c-6-14.2-18.6-21.3-31.5-27.7c-3.7-1.8-8.2-2.2-11.7-4.2c-8.3-4.8-15.8-3.9-23.2,1.8
	c-3.1,2.4-6.3,4.5-9.4,6.8c-1.2,0.9-2.6,1.6-4.3,2.7C201.7,276.1,201.6,274.9,201.4,272.8 M408.6,216.5
	c-5.8-8.3-13.2-14.6-22.5-18.5c-18.2-7.7-36.7-7.4-55.5-2.3c-21.6,5.9-35.6,21.7-38.5,43.6c-0.4,3.2,0.6,4.2,3.7,4.5
	c9.8,1,19.6,2.1,29.3,3.5c4.6,0.7,6.6-0.8,7.6-5.4c2-9.3,7.7-15.5,17.4-17.2c13-2.4,28.3,8.3,21.7,25.3c-1.9,4.8-5.1,9.5-9,12.9
	c-12.2,10.8-24.8,21.1-37.4,31.5c-24.2,20.1-39.8,44.3-37.7,77.3c0.3,4.1,1,6,5.7,6c38.3-0.2,76.5-0.1,114.8,0
	c4.1,0,5.4-1.6,5.4-5.4c-0.1-8.1,0-16.1,0-24.2c0-6.1-0.3-6.4-6.2-6.4c-22.3,0-44.6,0-66.9,0c-1.8,0-3.7-0.2-7-0.4
	c3.2-4.5,5.2-8.5,8.3-11.4c10.7-10,21.5-19.9,32.8-29.3c11.3-9.4,22.8-18.6,30.9-31.1C416.5,252.7,419.9,235.3,408.6,216.5
	 M442.4,267c-3.4-6.9-6-14.4-12-20.1c-2.3,5.1-2.8,13.8-1.2,17.2c17.2,35.5,16.5,71.3,2.3,107.4c-2.6,6.5-5.8,12.7-8.9,19.5
	c2.5,0.4,4.6,0.4,6.5,1c3.9,1.3,5.8-0.3,7.5-3.7C456,349,459.4,308.9,442.4,267 M129.6,316.2c-0.5,23.6,3.9,46.2,14.3,67.5
	c4.6,9.4,4.7,9.4,15.1,7.2c0.3-0.1,0.5-0.4,1-0.8c-0.6-1.2-1.2-2.5-1.9-3.7c-17.4-33.3-22.8-67.9-11.4-104.4
	c0.5-1.7,0.7-3.5,0.7-5.2c0.1-7.1,0-14.1,0-21.2C138.1,266.7,130.5,292.1,129.6,316.2 M213.9,518.8c5.7,6.4,11.3,12.9,17.1,19.1
	c1,1.1,3.3,2.3,4.3,1.9c8.5-4.2,16.9-8.8,26.2-13.8c-22.6-11.2-42.1-24.7-59.6-40.8c-6.6-6-12.7-3.4-20.1-2.8
	C192.7,494.9,203.1,506.6,213.9,518.8 M363.9,157.4c-1.6,0.6-3.3,1.5-4.9,1.7c-45.7,6.1-91.5,5.9-137.1-0.6c-2-0.3-3.9-1.9-5.9-2.9
	c-4.7,0.7-9.6,2.8-14.4,4.9c-0.8,0.4-1.5,1.1-2.9,2.2c2.5,1,4.2,2.2,6.1,2.5c6.8,1.1,13.7,2.6,20.6,2.7c43.1,0.3,86.2,0.4,129.3,0.2
	c7.4,0,14.8-1.3,22.1-2.2c2.3-0.3,4.6-1.4,6.9-2.2c0.1-0.7,0.1-1.4,0.2-2.2c-5.7-2.4-11.3-4.9-17-7.1
	C366.5,154.3,365.3,156,363.9,157.4 M318.6,79.3c3,1.7,4.7,0.8,5.5-2.5c1.2-4.8,2.7-9.6,3.8-14.5c2.8-12.7,2.8-12.7-9.9-15.8
	c-1.3-0.3-3.1-1.5-3.3-2.6c-2.5-11-10.1-17.6-19.3-22.9c-2.8-1.6-5.1-1.8-8-0.2c-8.9,5-15.4,12-19.1,21.6c-0.7,1.7-2.2,3.9-3.7,4.3
	c-11.2,3.3-11.6,3.7-9.3,15.4c0.6,3,1.1,6,2,9c1,3.1,2.3,6.2,3.6,9.7C280.2,71.7,299,71.7,318.6,79.3 M239.4,149.5
	c12.5,1.8,24.9,4.4,37.8,4c-0.7-3.6-23.4-18.6-35.7-24c-1.4,6-2.8,11.9-4.1,17.9C237.3,147.9,238.2,148.7,239.4,149.5 M315.6,153.4
	c9.8-1.3,19.7-2.5,30-3.9c-1.5-7-2.8-13-4.2-19.3c-10,5.7-19.4,10.9-28.7,16.4c-2.3,1.4-4.1,3.5-6.1,5.3
	C309.3,152.4,312,152.9,315.6,153.4 M298.9,89.3c-5.4,0-10.7,0-16.7,0c2.9,14.2,5.6,27.7,8.4,41.2c0.4,0,0.9,0,1.3,0
	c0.5-1.1,1.2-2.1,1.5-3.3c2.5-11.5,4.9-23.1,7.2-34.6C300.7,91.7,300,90.5,298.9,89.3 M340.1,536.1c1.3,0.7,2.7,1.2,3.8,2.1
	c4.2,3.1,6.9,2,10.3-2c12-14.1,24.5-27.9,36.8-41.7c3.5-3.9,6.9-7.8,10.7-12.1c-8.6-1.7-15.1-1.3-22.1,4.4
	c-14.5,11.7-30.1,22.1-45.4,32.9c-3.4,2.4-7.1,4.2-11.5,6.9C328.8,529.8,334.1,532.8,340.1,536.1 M267.1,122.3
	c-3.8-5.7-7.6-11.4-12-18.1c-4,6-7.4,11.1-11.2,16.9c11.2,6.6,21.8,12.9,32.5,19.2c0.5-0.5,1.1-1.1,1.6-1.6
	C274.5,133.4,271,128.2,267.1,122.3 M331.8,109.1c-1.1-1.3-2.2-2.7-3.9-4.6c-7.6,11.8-14.9,23.1-22.2,34.4c0.6,0.5,1.1,1.1,1.7,1.6
	c10.5-6.4,21-12.9,32-19.6C336.7,116.6,334.5,113.1,331.8,109.1 M278.7,178.9c-7.2,0.3-14.5,0.5-23,0.8
	c21.1,13.3,55.4,12.8,69.8-0.9C309.7,178.9,294.7,178.9,278.7,178.9 M320,99.6c-3.1-2.4-6.2-4.7-9.9-7.5c-3.6,13.2-6.8,25.1-10,36.9
	C307.9,120.3,313.4,110,320,99.6 M267.5,95.6c-1.5,1.1-3,2.2-4.5,3.3c6.3,10.4,12.3,20.3,18.2,30.2c0.5-0.2,1-0.4,1.5-0.7
	c-3-11.9-6-23.8-9.2-36.3C271.4,93.5,269.7,94.4,267.5,95.6 M362,140c0.8,3.7,3.2,5.4,6.6,6.8c8.7,3.7,18.1,6.3,23.4,15.3
	c3.9-3.7,3.6-6.8-0.9-10.7c-8-7-17.9-10-27.8-13.1C362.9,138.2,362.3,139,362,140 M218,139.4c-6.1,2.4-12.5,4.3-18.4,7.2
	c-3.6,1.8-6.8,4.8-9.5,7.9c-2.4,2.8-1.8,6,0.6,7c4.2-3.4,7.4-6.6,11.1-8.9c3.5-2.2,7.5-3.8,11.5-4.9c4.5-1.3,7.1-4.1,8.3-8.7
	C220.5,139,219.6,139.1,218,139.4 M298.7,143.2c-1.4-1-2.7-2.4-4.3-3c-4.7-1.8-9.6,0.6-10.8,5.1c-1.3,4.6,1.5,8.9,6.3,10.3
	C296.1,157.5,302.2,150.8,298.7,143.2z"/>
<path class="st0" d="M306.9,394.6c50.9,1.6,101,6.7,150.2,18.4c22.9,5.4,45.8,10.6,69,17.1c-12.1,6.2-24.2,12.4-36.3,18.6
	c2.1,11.8,4.2,23.4,6.5,36.2c-67.5-18.9-135.6-29.3-205-29.1c-69.3,0.2-137.3,10.8-205.1,29.3c1.5-8.1,2.7-15.6,4.3-23.1
	c2.9-13.5,3-13.5-9.2-19.5c-7.9-3.9-15.9-7.8-24.1-11.8c8.1-4.7,77.1-21.3,123.1-27.9C222.2,396.8,264.2,393.2,306.9,394.6
	 M209.3,451.8c7.6,4,15.2,3.6,22.8,0.2c4.9-2.2,7.4-6,7.5-11.4c0-5.8-2-10.6-7.4-13.1c-3.6-1.7-7.6-2.4-11.5-3.5
	c-2.2-0.6-4.6-0.6-6.5-1.5c-1.5-0.7-3.4-2.7-3.3-4c0.1-1.4,2-3.2,3.5-3.9c5-2.2,10.1,0,13.3,5.5c2.7-0.7,5.5-1.4,8.6-2.1
	c-1.3-5.7-4.3-10.2-9.7-11.1c-5.2-0.9-10.9-0.7-16.1,0.2c-5.3,1-8.5,5-9,10.6c-0.5,5.8,1.8,10.3,7,12.6c3.6,1.6,7.7,2.3,11.5,3.3
	c2.5,0.7,5.1,1,7.4,2.1c3.1,1.6,3.5,5.3,1.3,7.8c-3.4,3.7-13,3.9-15.2-0.6c-2.6-5.4-6.3-4-10.5-3.7
	C202.5,444.5,205.1,448.2,209.3,451.8 M340.6,417.3c-1.3-3.5-2.6-6.9-3.8-10.4c-1.6-4.7-5.7-2.5-8.7-3c-1.4-0.2-3.9,1.3-4.6,2.7
	c-4.2,8.7-8,17.6-11.8,26.5c-2.5,5.8-4.8,11.7-7.2,17.6c3.9-1,9.1,4.1,10.7-2.1c2-7.6,6.6-9.3,13.5-7.9c1.9,0.4,3.9,0.5,5.8,0.3
	c3.4-0.3,4.8,1.4,5.9,4.4c2.8,7.8,2.9,7.8,12.3,7C348.6,440.8,344.7,429.4,340.6,417.3 M277.3,444.7c0-3.8,0-7.6,0-11.2
	c6.3-0.7,12.2-0.9,17.7-2.2c6.4-1.5,9.6-7.3,9.1-14.7c-0.5-6.9-4.6-12.2-11.1-12.6c-8.5-0.5-17-0.1-25.5-0.1c0,15.8,0,31.4,0,47
	c3.6,0,6.5,0,9.8,0C277.3,448.8,277.3,447.2,277.3,444.7 M387.3,417.7c6.5,0.8,3.5-4.5,5.4-7.7c-12.4-1.3-24-2.5-36.1-3.7
	c-0.5,2.6-0.8,4.7-1.3,7.2c4.6,0.7,8.7,1.2,12.9,1.9c-1.8,12.9-3.6,25.5-5.4,38.4c3.6,0.3,6.4,0.6,9.5,0.9c1.9-12.8,3.8-25,5.7-37.7
	C381.1,417.3,383.8,417.5,387.3,417.7 M250.1,451.7c2.8,0,5.7,0,8.6,0c-0.8-16.3-1.5-32-2.3-48c-3.4,0.2-6.2,0.3-9.9,0.5
	C247.5,420.2,248.4,435.7,250.1,451.7 M459.3,447.3c-0.4,1.5-0.9,3.1-1.3,4.6c0.2,0.4,0.5,0.8,0.7,1.2c5.7-6.6,11.2-4,17.1-0.1
	c-3.5-7-2.8-12.5,4.7-16.8c-10.8,3.2-11.9-4.2-13.4-11c-0.4,0.4-13.4,12.3-13.7,12.6c1.4,1.1,2.7,2.3,4.3,3.1
	C460.1,442.2,460.8,444,459.3,447.3 M113.4,434.1c-3.5,1.1-7,2.3-11,3.6c7.2,2.8,9,7.9,4.5,15.4c6.3-6.3,12.2-4.8,18.6-0.1
	c-4.5-7.5-2.2-12.5,5.3-16.5c-10.8,3.2-12.2-3.9-13.2-11.3c-0.9,0.9-1.2,1.1-1.3,1.4C115.4,428.9,114.5,431.1,113.4,434.1z"/>
<path class="st0" d="M201.4,273.2c0.1,1.7,0.3,2.9,0.5,4.9c1.7-1.1,3-1.8,4.3-2.7c3.2-2.2,6.4-4.4,9.4-6.8
	c7.4-5.7,14.9-6.6,23.2-1.8c3.5,2,8,2.4,11.7,4.2c12.9,6.4,25.5,13.5,31.5,27.7c9.2,21.7,6.1,42.2-8,60.7
	c-13.8,18-33.4,23.1-55.2,22.1c-16.5-0.8-31.1-5.9-42.4-18.3c-9.7-10.6-15.7-23.4-16.2-37.6c-0.9-25.6-1.1-51.3-0.1-77
	c0.9-23.4,19.8-46.2,42.3-52.8c23.5-6.9,46.4-6,66,10.3c12.9,10.7,18.7,25.2,13.4,42.1c-1.7,5.2-5.2,11.1-9.6,14
	c-5.7,3.7-13,6.2-20.5,2.8c-2.2-1-5-0.5-7.4-1.2c-6.8-1.8-8-4.7-4.6-10.7c5-8.5,3.1-19.5-4.3-24.9c-7.3-5.3-18.7-3.6-25.5,3.8
	c-5.9,6.4-7.8,14.4-8.3,22.7C201.3,260.8,201.5,266.8,201.4,273.2 M211.2,300.1c-10.6,10.1-11.2,22.4-7.3,35.3
	c2.3,7.4,7.3,12.9,15.7,13.9c9.3,1.1,16.9-1.8,21.9-10.1c5.1-8.4,6-17.6,3.7-27.1C241.2,295.9,225.5,290.1,211.2,300.1z"/>
<path class="st0" d="M408.8,216.8c11,18.5,7.7,35.9-3.2,52.6c-8.1,12.5-19.6,21.7-30.9,31.1c-11.3,9.4-22.1,19.3-32.8,29.3
	c-3.1,2.9-5.1,6.8-8.3,11.4c3.3,0.2,5.1,0.4,7,0.4c22.3,0,44.6,0,66.9,0c5.9,0,6.2,0.3,6.2,6.4c0,8.1-0.1,16.1,0,24.2
	c0,3.7-1.3,5.4-5.4,5.4c-38.3-0.1-76.5-0.2-114.8,0c-4.7,0-5.4-1.8-5.7-6c-2-33,13.5-57.2,37.7-77.3c12.5-10.4,25.2-20.6,37.4-31.5
	c3.8-3.4,7.1-8.2,9-12.9c6.7-16.9-8.6-27.6-21.7-25.3c-9.7,1.8-15.4,7.9-17.4,17.2c-1,4.6-3,6.1-7.6,5.4c-9.7-1.4-19.5-2.5-29.3-3.5
	c-3.1-0.3-4.1-1.3-3.7-4.5c2.8-22,16.9-37.8,38.5-43.6c18.8-5.1,37.3-5.3,55.5,2.3C395.5,201.9,402.9,208.2,408.8,216.8z"/>
<path class="st0" d="M59.9,307.6c-0.2-0.4-0.3-0.9-0.3-2c0.8-6.9,1.5-13.2,2.2-19.5c0,0,0,0,0.3-0.1c1.5,0.3,2.8,0.6,4.1,0.9
	c0.2,0.5,0.3,1,0.4,2.2c0.7,2.6,1.5,4.7,2.4,6.7c0,0,0.2,0.4,0.2,0.8c0.4,1.1,0.8,1.7,1.3,2.3c0,0,0.2,0.2,0.2,0.7
	c1.1,2.2,2.3,4,3.4,5.7c0,0,0,0,0,0.4c0.7,1.2,1.5,2,2.3,2.9c0,0,0.2,0.2,0.2,0.6c0.8,1.3,1.6,2.1,2.3,3c0,0-0.2,0.1,0,0.4
	c1.1,1.3,2.1,2.3,3.1,3.3c0,0,0.1,0,0.1,0.3c0.3,0.5,0.5,0.6,0.8,0.8c0,0,0.4,0.3,0.5,0.7c0.5,0.7,0.9,1,1.3,1.3
	c0,0-0.2,0.2-0.1,0.3c0.5,0.3,0.7,0.5,1,0.6c0,0-0.1,0.2,0,0.3c0.4,0.3,0.7,0.5,1,0.7c0,0-0.2,0.2,0,0.3c0.4,0.3,0.7,0.5,0.9,0.7
	c0,0-0.1,0.1,0,0.3c0.3,0.5,0.6,0.7,0.9,0.7c0.3,0.2,0.5,0.4,0.9,1.2c1.1,1.3,2.1,2,3,2.7c0.3,0.1,0.5,0.3,1,1
	c0.5,0.6,0.8,0.7,1,0.9c0,0-0.2,0.2,0,0.4c2,1.6,3.9,3.1,5.7,4.5c0.3,0.1,0.6,0.2,1,1c1.4,1.3,2.7,2.1,3.9,2.9c0,0-0.2,0.2,0,0.4
	c1.4,1,2.7,1.7,3.9,2.5c0,0-0.2,0.2,0,0.4c1.1,0.6,2,1.1,3,1.5c0,0,0.4,0.2,0.6,0.7c1.2,2.8,2.2,5.1,3.2,7.3c0.1,0.5,0.3,0.9,0.2,2
	c0.4,2.6,0.9,4.6,1.5,6.6c0.1,0.4,0.3,0.7,0.3,1.8c3.3,10.3,6.4,20,10.1,29.4c1.5,3.7,1.1,5.6-2.6,6.8c-1.1,0.2-2.3,0.5-4,0.6
	c-3.3,0.3-6,0.5-8.6,1.3c-7.6,2.4-15,3.7-21.3-2.9c-0.5-0.5-1.5-0.4-2.3-0.5c0,0,0.1-0.1-0.1-0.4c-1-0.7-1.9-1.1-2.8-1.6
	c0,0,0,0-0.1-0.3c-0.4-0.4-0.7-0.5-1-0.6c0,0,0.1-0.1,0-0.4c-3.1-4.2-6-8.1-9-12c0.4-0.4,0.8-0.8,1.3-1.2c1.4,0.4,2.9,0.7,5.6,1.4
	c-1-4.3-1.8-7.9-2.6-11.4c-0.1-0.5-0.1-1,0-1.8c0.2-0.4,0.2-0.8,0.2-0.8l-0.4-0.1c-0.1-2.1-0.2-4.2,0-7c-0.1-3-0.4-5.3-0.7-7.7
	c-0.2-0.6-0.3-1.2-0.3-2.5c-1.2-7.7-3.3-14.4-8.4-19.6c0,0-0.1,0,0-0.4c-2.5-4.7-5.1-9-7.6-13.3c0,0-0.2-0.3-0.2-0.8
	C61.8,311.9,60.9,309.7,59.9,307.6 M105.8,373.7l0.3,0c0,0-0.3-0.2-0.4-0.8c-0.3-0.5-0.6-0.9-0.9-2.1c-2.6-5.6-5.2-11.1-7.9-17.4
	c-2.8-4.6-5.7-9.3-8.6-14.4c-0.4-0.4-0.7-0.8-1.5-1.6c-2-2.2-4.1-4.4-6.3-7.2c-1.8-2-3.6-4-5.4-6c-0.6,0.5-1.2,1-1.8,1.4
	c1.6,2.2,3.3,4.4,5.2,7.2c5.6,7.4,11.1,14.9,16.8,23c3.2,5.3,6.4,10.6,9.6,16.4C105.1,372.6,105.4,373.1,105.8,373.7 M87.5,365.9
	c1.3,4.3,2.5,8.5,3.8,12.8c0.6-0.2,1.2-0.4,1.8-0.6c-1.8-7.7-3.5-15.4-5.3-23.1c-0.6,0.1-1.2,0.2-1.8,0.3
	C86.5,358.6,86.9,361.9,87.5,365.9z"/>
<path class="st0" d="M119.5,275.1c0,0.3-0.1,0.7-0.4,1.2c-0.3,0.2-0.8,0.2-1,0.2c-0.4,0.7-0.5,1.4-0.7,2.4c0.1,1.2,0.3,2,0.4,2.8
	c0,0,0,0-0.3,0.1c-0.5,0.2-0.8,0.5-1.1,1c0,0.7-0.1,1.1-0.3,1.7c-0.4,0.4-0.6,0.6-0.7,1.3c0,1.1-0.1,1.8-0.3,2.8
	c-0.4,1.7-0.5,3.2-0.7,4.9c0,0.7,0,1.1-0.2,1.7c-0.4,0.4-0.6,0.6-0.7,1.3c-0.1,2.4-0.1,4.3-0.3,6.5c-1.7,3,0.5,7.7-4.9,8.6
	c-0.5,0.1-0.7,0.2-0.9,0.2c0,0,0-0.1-0.1-0.3c-0.3-0.4-0.6-0.6-0.9-0.8c0,0,0.1,0,0-0.2c-0.4-0.4-0.7-0.6-1-0.7c0,0,0.1,0,0-0.2
	c-0.4-0.4-0.7-0.6-1-0.8c0,0,0.1,0,0-0.2c-0.4-0.4-0.7-0.6-1-0.8c0,0,0.1,0,0.1-0.3c-0.6-0.8-1.2-1.3-1.9-1.8c0,0,0.1,0,0-0.2
	c-0.4-0.4-0.6-0.6-0.9-0.8c-0.5-0.5-1-1-1.4-1.9c-1.1-1.6-2.2-2.8-3.3-3.9c0,0-0.2-0.1-0.3-0.6c-0.2-0.8-0.4-1.1-0.7-1.7
	c-0.4-0.7-0.7-1.2-1.1-1.9c-2.3-3.8-4.7-7.3-6.8-10.9c-6-10-10.3-20.6-10.7-32.6c-0.4-13,3.3-24.7,10-35.7c1.5-2.5,2.3-5.4,3.4-8.2
	c0,0,0.1-0.3,0.5-0.4c1.7-2.2,3-4.2,4.2-6.2c0,0,0.3,0.1,0.5,0.1c3.2-3.4,6.4-6.7,9.3-10.2c5.3-6.2,10.4-12.5,16-18.7
	c2.1,0,3.8,0,5.3,0.3c-2.3,4.3-4.6,8.2-7.1,12.3c-1.4,2-2.5,3.8-3.9,5.8c-1.5,1.2-3,2-3.8,3.3c-7.1,10.5-14.2,21-18.1,33.2
	c-1,3.2-0.6,6.7-0.8,10.4c0,0.7-0.1,1.1-0.5,1.7c-0.7,2.6-1.6,5.1-1.3,7.5c1.7,12,5.4,23.4,11.7,33.8c0.9,1.4,3,2.1,4.5,3.1
	c0.4-0.3,0.9-0.7,1.3-1c-0.5-2.1-0.9-4.2-1.5-6.2c-1.1-3.7-2.3-7.3-3.3-11c-0.6-2.1-0.3-4,2.8-3.6c0.8,2.6,1.3,5,1.8,7.7
	c0.2,0.8,0.5,1.4,0.7,1.9c0.4-0.7,0.7-1.5,1.3-2.5c0.4-1.7,0.6-3,0.9-4.4c0,0,0.1-0.1,0.4-0.2c1.7-3.7,3-7.2,4.4-11.1
	c0.4-1,0.7-1.7,1.4-2.5c1-1.4,1.8-2.7,2.5-4.2c0-0.2,0.1-0.6,0.4-0.7c0.7-1,1.2-1.9,1.7-3.2c1.3-1.7,2.5-3.1,4-4.6
	c0.8-1,1.2-1.9,1.9-3.1c4.6-4.6,9-9,13.7-13.3c1.1-0.9,1.9-1.9,2.8-3c0.3-0.4,0.5-0.6,1.1-0.9c1.4-0.7,2.4-1.3,3.7-1.8
	c0.4,0.7,0.7,1.3,0.7,2.1c-5.8,8-11.5,15.7-16.9,23.6c-1.1,1.6-0.8,4.2-1.1,6.4c0,0-0.1-0.1-0.3,0c-0.5,0.3-0.7,0.5-0.9,1
	c0.1,0.5,0.1,0.7,0.2,0.9c0,0,0,0-0.3,0c-0.8,0.3-1.3,0.6-2,1c-0.4,0.3-0.6,0.5-0.7,1.2c0,1.5,0,2.6,0.1,3.7c0,0-0.1-0.1-0.3,0
	c-0.4,0.3-0.7,0.6-1.2,0.9c-0.7,1.3-1.1,2.6-1.5,4.2c0.2,0.7,0.2,0.9,0.3,1.2c0,0,0,0.2-0.4,0.4c-0.8,1.5-1.1,2.8-1.5,4.1
	c0,0-0.4,0-0.5,0c-0.4,0.2-0.7,0.4-1,1.1c0.1,1,0.1,1.5,0.2,2.1c0,0,0.1,0.2-0.3,0.5C120.4,271.8,119.9,273.5,119.5,275.1z"/>
<path class="st0" d="M442.6,267.3c16.8,41.5,13.4,81.7-6,121.1c-1.7,3.4-3.6,5.1-7.5,3.7c-1.9-0.7-4.1-0.7-6.5-1
	c3.1-6.8,6.4-13,8.9-19.5c14.2-36.1,14.8-72-2.3-107.4c-1.6-3.3-1.1-12.1,1.2-17.2C436.4,252.6,439,260.1,442.6,267.3z"/>
<path class="st0" d="M220.8,480.3c-0.5-0.3-1.1-0.7-1.6-1.1c-0.2-0.2-0.3-0.5-1-1.7c10,0.8,19.3-2.7,28.9,2.6
	c12.9,7.2,26.6,13.1,39.9,19.6c3.3,1.6,6.3,1.6,9.6,0c13.7-6.9,27.7-13.1,41.1-20.4c8.3-4.5,16.4-1.3,24.5-1.5c0,0.8,0,1.5-0.7,2.4
	c-4.1,1.5-7.6,2.6-10.9,4.3c-17.9,9.3-35.7,18.7-53.4,28.2c-3.8,2-7.1,2-10.9,0c-16.9-9-33.8-18-50.9-26.7
	C230.8,483.7,225.7,482.2,220.8,480.3z"/>
<path class="st0" d="M129.7,315.8c0.9-23.7,8.4-49.1,17.9-60.2c0,7.1,0,14.1,0,21.2c0,1.7-0.2,3.6-0.7,5.2
	c-11.4,36.5-5.9,71.1,11.4,104.4c0.7,1.3,1.3,2.5,1.9,3.7c-0.5,0.4-0.7,0.8-1,0.8c-10.4,2.2-10.5,2.3-15.1-7.2
	C133.6,362.5,129.1,339.9,129.7,315.8z"/>
<path class="st0" d="M213.7,518.5c-10.6-11.9-20.9-23.6-32-36c7.4-0.7,13.6-3.3,20.1,2.8c17.5,16.1,37,29.5,59.6,40.8
	c-9.3,4.9-17.6,9.5-26.2,13.8c-0.9,0.5-3.3-0.8-4.3-1.9C225.2,531.6,219.6,525.2,213.7,518.5z"/>
<path class="st0" d="M364.2,157.1c1.1-1.1,2.3-2.8,2.7-2.6c5.7,2.2,11.4,4.7,17,7.1c-0.1,0.7-0.1,1.4-0.2,2.2
	c-2.3,0.7-4.5,1.9-6.9,2.2c-7.4,0.9-14.8,2.2-22.1,2.2c-43.1,0.1-86.2,0.1-129.3-0.2c-6.9,0-13.8-1.6-20.6-2.7
	c-1.9-0.3-3.7-1.4-6.1-2.5c1.5-1.1,2.1-1.9,2.9-2.2c4.9-2.1,9.8-4.2,14.4-4.9c1.9,1,3.8,2.6,5.9,2.9c45.7,6.5,91.4,6.6,137.1,0.6
	C360.7,158.9,362.3,158,364.2,157.1z"/>
<path class="st0" d="M318.3,79.2c-19.3-7.5-38.1-7.5-57.4,1.6c-1.3-3.5-2.7-6.5-3.6-9.7c-0.9-2.9-1.4-6-2-9
	c-2.3-11.7-2-12.1,9.3-15.4c1.5-0.5,3.1-2.6,3.7-4.3c3.7-9.6,10.2-16.6,19.1-21.6c2.9-1.6,5.2-1.5,8,0.2
	c9.2,5.4,16.8,11.9,19.3,22.9c0.2,1.1,2,2.3,3.3,2.6c12.7,3.1,12.8,3.1,9.9,15.8c-1.1,4.9-2.6,9.6-3.8,14.5
	C323.3,80.1,321.6,81,318.3,79.2 M293.3,67.1c0.2,0,0.3,0,1.3,0.1c4.4,0.8,8.9,1.4,13.3,2.4c10.8,2.6,10.8,2.7,13.6-8.2
	c1.9-7.5,1.9-7.5-5.7-8.5c-0.2,0-0.3-0.1-0.5-0.1c-5.2,0.8-6.2-2.2-7.1-6.6c-1.7-8.3-6.4-14.5-15.1-18.1c-1-0.2-2-0.4-3.7-0.7
	c-8.8,5.1-15.3,11.7-16,22.6c-0.1,1.2-2.2,2.9-3.5,3.1c-3.1,0.5-6.3,0.1-10.7,0.1c2.1,7.1,3.9,13,5.5,18.5c8.8-1.7,17-3.3,25.9-4.8
	C291.3,67,292,67,293.3,67.1z"/>
<path class="st0" d="M478.9,189.3c17.2,19.6,32.9,40.1,28,68.6c-3.3,19.1-13.5,34.7-26.3,48.8c-3.1,3.4-6.4,6.8-10,10.5
	c-3-59.5-30.3-103.3-81.3-132.5c3.2-1.6,7.1-3.1,10.6-5.2c11.1-6.6,12.6-13.8,4.2-23.6c-3.2-3.7-3.1-6.8-1.1-10.8
	c4.2-8.7,10.5-15.5,17.9-21.3c14.2-11.1,39.6-23.3,54.4-26.1c-3.2,5.2-7,10-9.3,15.4c-3.6,8.2-6.9,16.7-9,25.4
	c-3.5,14.6,2.8,26.8,11.8,37.8c3.4,4.1,6.6,8.2,9.6,12.7c-2-1.3-4-2.8-5.5-4.6c-3.9-4.8-7.7-9.5-11.2-14.6
	c-3.9-5.7-6.9-11.9-7.3-19.1c-0.9-15.7,3.9-29.8,12.2-42.9c0.9-1.4,1-3.4,1.4-5.1c-0.6-0.4-1.1-0.8-1.7-1.2
	c-10.5,5.2-21.1,10.1-31.3,15.6c-11.8,6.3-22,14.4-29,26.2c-3.7,6.2-3.9,7.2,1,12.6c5.7,6.4,5.9,18.9-3.1,23.4
	c-3,1.5-5.6,3.6-9.1,5.8c1.6,1.3,2.8,2.2,4,3.1c4.3,2.8,8.7,5.5,12.9,8.4c4,2.7,7.8,5.5,11.8,8.6c0.7,0.9,1.3,1.4,2,2
	c0.4-0.8,0.7-1.6,1.3-2.3c2,1.8,3.6,3.4,5.5,5.3c2.3,2.6,4.5,5,6.3,7.3c-2.1-0.8-3.9-1.7-5.6-2.5c22.5,28.4,38.3,59.2,39.6,96.5
	c3.7-3,6.4-5.9,8.9-9c10.8-13.2,19.7-27.2,23.1-44.3c2.8-14.2,0-27.2-6.9-39.5c-3.9-7-9-13.2-13.5-19.9
	C482.3,195.7,480.7,192.4,478.9,189.3z"/>
<path class="st0" d="M220.9,480.6c4.8,1.6,9.9,3,14.5,5.4c17.1,8.7,34,17.7,50.9,26.7c3.8,2,7.1,2,10.9,0
	c17.8-9.5,35.6-18.9,53.4-28.2c3.3-1.7,6.8-2.8,10.6-4.2c-1.2,1.8-2.5,4-4.3,5.4c-18.9,15.3-38.8,28.8-61,39
	c-1.8,0.8-4.6,1.3-6.3,0.6c-24.3-10.8-46.6-24.9-66.8-42.3C222.2,482.5,221.7,481.7,220.9,480.6z"/>
<path class="st0" d="M239,149.5c-0.8-0.8-1.7-1.6-1.6-2.1c1.3-6,2.7-11.9,4.1-17.9c12.3,5.5,35,20.5,35.7,24
	C264.3,153.9,251.9,151.4,239,149.5z"/>
<path class="st0" d="M315.1,153.4c-3.1-0.5-5.8-0.9-8.5-1.4c2-1.8,3.8-4,6.1-5.3c9.3-5.5,18.7-10.7,28.7-16.4
	c1.4,6.3,2.7,12.3,4.2,19.3C335.3,150.9,325.4,152.1,315.1,153.4z"/>
<path class="st0" d="M299.2,89.4c0.7,1.1,1.5,2.3,1.3,3.3c-2.3,11.6-4.7,23.1-7.2,34.6c-0.2,1.1-1,2.2-1.5,3.3c-0.4,0-0.9,0-1.3,0
	c-2.7-13.5-5.5-27-8.4-41.2C288.1,89.3,293.5,89.3,299.2,89.4z"/>
<path class="st0" d="M339.8,535.9c-5.6-3.1-10.9-6-17-9.4c4.4-2.6,8.2-4.5,11.5-6.9c15.3-10.8,30.9-21.1,45.4-32.9
	c7-5.7,13.5-6.1,22.1-4.4c-3.8,4.3-7.3,8.2-10.7,12.1c-12.3,13.9-24.8,27.6-36.8,41.7c-3.4,4-6.1,5.1-10.3,2
	C342.7,537.3,341.4,536.7,339.8,535.9"/>
<path class="st0" d="M267.3,122.6c3.7,5.5,7.2,10.8,10.7,16c-0.5,0.5-1.1,1.1-1.6,1.6c-10.7-6.3-21.3-12.6-32.5-19.2
	c3.8-5.7,7.2-10.9,11.2-16.9C259.5,110.9,263.3,116.6,267.3,122.6z"/>
<path class="st0" d="M332,109.4c2.4,3.8,4.7,7.3,7.4,11.5c-10.9,6.7-21.4,13.1-32,19.6c-0.6-0.5-1.1-1.1-1.7-1.6
	c7.3-11.3,14.6-22.5,22.2-34.4C329.6,106.4,330.7,107.8,332,109.4z"/>
<path class="st0" d="M225.6,118.6c-3,1.4-6,2.7-9.3,4.2c0.8-15.2,19.9-47,34.9-53.7c0.6,2.3,1.3,4.6,1.6,7.4
	c-13.5,10.3-23,22.8-27.8,38.6C224.7,116.1,225.4,117.4,225.6,118.6z"/>
<path class="st0" d="M120.1,171.8c-5.2,6.2-10.4,12.5-15.6,18.7c-3,3.5-6.1,6.8-9.5,10.1c4.8-6.8,10-13.6,15.2-20.4
	c2.5-3.2,4.9-6.4,7.4-9.6c9.9-12.7,11.8-26.9,6.5-41.6c-3.3-9.2-8.6-17.6-13.1-26.3c-0.9-1.7-2.1-3.2-3.9-5.9
	c21.2,6,39.6,14.5,55.9,27.8c0,0.4-0.2,0.7-0.6,0.6c-2-1-3.7-2-5.6-3.2c-3.6-2.4-7.1-4.4-10.9-6.5c-6.9-3.2-13.4-6.4-20.1-9.9
	c-1-0.7-1.9-1.2-3.1-1.7c-0.7,0-1.1,0-1.8-0.3c-2.4-1.1-4.6-1.9-6.8-2.7c-0.3,0.4-0.6,0.8-0.9,1.2c0.7,1.3,1.3,2.6,2.1,4.1
	c1,1.4,1.9,2.5,2.8,3.9c1,2.1,1.9,3.8,2.9,5.9c1.7,4.3,3.3,8.3,4.9,12.5c0.6,1.4,1.2,2.5,1.8,4c0,1.1,0,1.8,0,2.9
	c0.3,1.7,0.6,3.1,1,4.9c0,7.4,0,14.3-3.2,21.1c-1.1,2-1.9,3.8-3,5.7C121.7,168.8,120.9,170.3,120.1,171.8z"/>
<path class="st0" d="M131.4,247.5c0.1-2-0.3-4.6,0.8-6.2c5.4-7.9,11.1-15.6,17.2-23.8c4.5-4.9,8.5-9.3,12.8-13.9
	c9.1-6.5,18-12.9,27-19.4c-1-0.5-2.5-1-3.7-1.9c-3.6-2.9-7.7-5.4-10.4-9c-4.3-5.9-1.7-15.8,3.9-18.3c0.1,0.1,0.3,0.2,0.3,0.2
	c-8.8,11.2-3.3,19.5,5.9,24.6c3.1,1.7,6.3,3.1,9.7,4.8c-6.3,3.5-12.6,6.5-18.3,10.2c-18.8,12.4-31.4,30.3-43,49.1
	C133,245.1,132.4,246.2,131.4,247.5z"/>
<path class="st0" d="M279.2,178.9c15.5,0,30.5,0,46.3,0c-14.4,13.7-48.7,14.1-69.8,0.9C264.3,179.4,271.5,179.1,279.2,178.9
	 M270.6,184.1c15,6.5,29.7,5.6,44.2-1.4c0-0.4,0-0.9,0-1.3c-15.5,0-31,0-47.3,0C268.6,182.5,269.3,183.1,270.6,184.1z"/>
<path class="st0" d="M226,118.5c-0.6-1.1-1.3-2.4-1-3.4c4.9-15.8,14.3-28.3,27.8-38.2c3.3,3.7,2.9,6.5-1.4,9.5
	c-9.7,6.9-15.7,16.8-20.7,27.3C229.7,115.5,227.8,116.8,226,118.5z"/>
<path class="st0" d="M319.8,99.9c-6.4,10.1-11.9,20.3-19.7,29c3.2-11.8,6.4-23.7,10-36.9C313.8,94.8,316.9,97.2,319.8,99.9z"/>
<path class="st0" d="M358.7,118.1c-2.5,0.1-4.4-0.3-5.5-3.2c-5.2-13.1-13.3-24.1-25.6-32.1c0.6-1.5,1.2-2.9,2.2-4.7
	c0.9-0.3,1.3-0.2,1.9,0.1c14,10,22.8,23.3,27.6,39.4C358.9,117.7,358.8,117.8,358.7,118.1z"/>
<path class="st0" d="M267.8,95.5c1.9-1.1,3.6-2,5.8-3.2c3.2,12.5,6.2,24.4,9.2,36.3c-0.5,0.2-1,0.4-1.5,0.7
	c-6-9.9-11.9-19.8-18.2-30.2C264.5,97.8,266,96.7,267.8,95.5z"/>
<path class="st0" d="M361.9,139.7c0.4-0.7,1-1.5,1.4-1.4c9.9,3.1,19.8,6.1,27.8,13.1c4.5,4,4.8,7.1,0.9,10.7
	c-5.3-9-14.7-11.6-23.4-15.3C365.2,145.4,362.8,143.7,361.9,139.7z"/>
<path class="st0" d="M520.4,283.6c1.3,1.6,3.2,3.1,3.8,4.9c3.7,10.6,2.1,20.9-3.3,30.6c-3.4,6.2-7.5,11.9-10.7,18.2
	c-4.9,9.6-5.7,19.9-5,30.9c1.7-0.4,3-0.8,4.3-1.1c0.3,0.2,0.7,0.4,0.8,0.6c1.3,6.8-0.4,12.9-4.8,18.5c-0.4,0-0.6-0.1-0.5-0.5
	c1.8-4.4,3.9-8.4,1.6-13.2c-1.1,2.2-2.3,4.5-3.7,6.6c-0.5-0.6-0.7-1.1-0.8-2c0.9-10.5,1.6-20.6,2.5-30.9c0.1-0.2,0.1-0.6,0.3-0.8
	c0.9-2.4,1.7-4.5,2.6-6.8c0.3-0.8,0.5-1.3,0.6-1.8c0,0,0,0.1,0.3-0.2c2.4-4,4.5-7.7,6.6-11.4c0,0,0.1,0.1,0.3-0.1
	C524,311.9,528,298.4,520.4,283.6z"/>
<path class="st0" d="M331.5,77.9c-0.4,0-0.8-0.1-1.6-0.1c0.3-2.9,1-5.7,1.8-9.7c19.1,14.5,29.8,33,36.8,53.9c-0.3,0.4-0.7,0.8-1,1.3
	c-2.8-1.5-5.7-3-8.7-4.8c-0.1-0.5,0-0.7,0.8-0.9c1.8,0.1,3.1,0.3,4.4,0.4c0.3-0.4,0.7-0.8,1-1.1c-3.7-6.3-7-13-11.1-19
	c-4.6-6.6-10.2-12.4-14.9-18.9C336.5,75.3,334.4,76,331.5,77.9z"/>
<path class="st0" d="M218.3,139.3c1.3-0.2,2.2-0.2,3.3-0.3c-1.2,4.6-3.7,7.4-8.3,8.7c-4,1.2-8,2.7-11.5,4.9
	c-3.7,2.3-6.9,5.5-11.1,8.9c-2.4-1.1-2.9-4.2-0.6-7c2.6-3.1,5.9-6.1,9.5-7.9C205.5,143.7,211.8,141.7,218.3,139.3z"/>
<path class="st0" d="M298.9,143.5c3.3,7.3-2.7,14-9,12.1c-4.8-1.4-7.6-5.7-6.3-10.3c1.3-4.5,6.1-6.9,10.8-5.1
	C296,140.8,297.3,142.2,298.9,143.5z"/>
<path class="st0" d="M89.6,207.4c-0.8,2.6-1.6,5.5-3.2,8c-6.7,11-10.4,22.7-10,35.7c0.4,12,4.7,22.5,10.7,32.6
	c2.1,3.6,4.5,7,6.8,11.2c0,0.9,0,1.1,0,1.3C70.7,267.4,67.9,237.2,89.6,207.4z"/>
<path class="st0" d="M520.4,283.5c7.6,14.9,3.6,28.4-5.2,41.1c0.2-1.9,0.6-3.6,1.4-5.2c4-7.3,7.1-14.8,5.9-23.4
	c-0.4-2.6,0.1-5.9-4.1-6.8c-0.9,2.8-1.5,5.4-2.6,7.9c-0.6,1.3-2.1,2.3-3.1,3.1c1.6-6.5,3.2-12.6,4.8-18.8c0.2-0.2,0.4-0.4,0.9-0.4
	c0.5,0.3,0.8,0.5,1,0.7c0,0,0-0.1,0,0.2C519.7,282.6,520.1,283.1,520.4,283.5C520.5,283.5,520.4,283.5,520.4,283.5z"/>
<path class="st0" d="M80.1,369c0.9,3.3,1.7,6.9,2.7,11.1c-2.7-0.7-4.1-1.1-5.6-1.4c-0.4,0.4-0.8,0.8-1.3,1.2c3,3.9,5.9,7.8,8.9,12.1
	c-9.5-5.6-11-15.3-11.6-25.5c2,3.6,4,7.3,5.9,10.9c0.4-0.1,0.8-0.2,1.2-0.3C80.3,374.5,80.2,371.9,80.1,369z"/>
<path class="st0" d="M453.9,390c0.3-0.5,0.5-0.9,1.1-1.8c1-1.7,1.7-2.9,2.5-3.8c-0.3,1.9-0.3,3.7-1.1,4.9c-2.4,3.8-0.8,5.6,3,6.2
	c10.4,1.7,20.6,6.1,31.2,2.7c-3.8,3.5-7.6,4.1-12.5,3c-8.6-2.1-17.3-3.2-26-4.7c-0.1-0.4-0.2-0.8-0.1-1.7
	C452.7,392.9,453.3,391.4,453.9,390z"/>
<path class="st0" d="M163.2,124.9c7.2,5.1,12.9,11.5,16.6,19.5c1.5,3.3,3.6,7.1-0.2,10.8c-0.3,0.2-0.5,0-0.4-0.5
	c1.1-9.6-3.8-15.9-9.8-21.9c-2.4-2.3-4.4-5-6.6-7.5C162.8,125.4,163.1,125.1,163.2,124.9z"/>
<path class="st0" d="M457.4,384c-0.7,1.2-1.4,2.5-2.4,3.9c-0.2-1.2-0.5-2.7,0-3.8c5.8-11.5,9.3-23.6,11.5-36.2
	c0.3-1.5,1.3-2.9,2.4-4.3c0.4-0.1,0.6,0.1,0.5,0.5c-1.8,7.8-3.5,15.3-5.2,22.9c0,0.1,0.1,0.2-0.2,0.4c-0.4,0.9-0.5,1.6-0.7,2.3
	c0,0,0-0.1-0.3,0.1c-1.1,2.7-1.9,5.1-2.7,7.6c0,0,0-0.1-0.3,0.1C459,379.8,458.2,381.9,457.4,384C457.5,384.1,457.4,384,457.4,384z"
	/>
<path class="st0" d="M452.2,396.8c8.5,1.2,17.3,2.3,25.8,4.4c4.9,1.2,8.7,0.5,12.5-3c0.2-0.3,0.2-0.3,0.5-0.3c1.3-0.5,2.2-1,3.3-1.3
	c0.1,0.1,0.3,0.4,0.3,0.4c-4.5,5.4-9.7,7.8-16.9,5.9C469.3,400.5,460.8,399,452.2,396.8z"/>
<path class="st0" d="M125.5,396.9c3.4-1.3,3.8-3.2,2.3-6.9c-3.8-9.4-6.9-19.2-10.1-29.2c4.4,11.2,8.7,22.8,13.2,35
	C129.6,396.1,127.7,396.5,125.5,396.9z"/>
<path class="st0" d="M517.1,281.6c-1.2,6-2.8,12.2-4.4,18.7c-0.1,0.4,0,0.4-0.3,0.6c-1.8,2.8-3.4,5.5-5,8.2c-0.1,0-0.1,0.1-0.3,0.3
	c-0.7,0.6-1.3,1-1.9,1.4c-0.1-0.1-0.3-0.3-0.3-0.3c1.3-2.6,2.8-5,3.9-7.7C511.6,295.7,514.2,288.7,517.1,281.6z"/>
<path class="st0" d="M89.1,395.4c0.6-0.1,1.6-0.2,2.1,0.3c6.4,6.6,13.7,5.3,21.3,2.9c2.6-0.8,5.3-1,8.3-1.3
	c-6.4,1.8-13,3.6-19.7,4.8c-1.8,0.3-4-1.5-5.8-2.5C93.2,398.5,91.2,397,89.1,395.4z"/>
<path class="st0" d="M70.6,329.5c5.1,4.9,7.2,11.6,8.4,19C76.1,342.5,73.4,336.2,70.6,329.5z"/>
<path class="st0" d="M108.6,311.5c5.1-0.9,2.9-5.6,4.6-8.3c0.5,0.4,0.7,0.9,0.9,1.4c-0.1,1.7-0.2,3.4-0.5,5.8
	c-0.2,1.4-0.2,2.1-0.2,2.9c0,1.2,0,2.3,0,4.4c-1.7-1.5-2.7-2.4-3.9-3.8c-0.6-0.8-0.9-1.1-1.2-1.3c0,0,0.1,0.1,0.1-0.2
	C108.5,311.9,108.5,311.7,108.6,311.5z"/>
<path class="st0" d="M61.6,286.3c-0.4,6-1.1,12.3-1.9,18.9C57.6,299,58.6,292.7,61.6,286.3z"/>
<path class="st0" d="M488.5,327.8c3.4-3.5,6.7-7,10.5-10.4c0.4,0,0.6,0.2,0.6,0.5c-0.2,0.6-0.3,0.9-0.4,1.3c0,0,0.1,0-0.2,0
	c-0.4,0.4-0.6,0.7-0.7,1c0,0,0-0.1-0.3,0c-1.2,1.2-2.1,2.2-3,3.3c-0.1,0-0.1,0.2-0.4,0.3c-0.9,0.8-1.5,1.5-2.1,2.2c0,0,0.1,0-0.2,0
	c-0.4,0.4-0.6,0.7-0.7,1c0,0,0-0.1-0.2,0c-0.4,0.4-0.6,0.7-0.8,0.9c0,0,0-0.1-0.3,0c-0.6,0.2-0.9,0.3-1.3,0.3
	C488.7,328,488.5,327.8,488.5,327.8z"/>
<path class="st0" d="M62.9,315.8c2.5,4,5.1,8.3,7.6,12.9C68,324.8,65.5,320.5,62.9,315.8z"/>
<path class="st0" d="M66.3,286.6c-1.3,0-2.6-0.3-4.1-0.6c0.6-1.7,1.4-3.5,2.3-5.2c0.4,0.1,0.9,0.1,1.3,0.2
	C66,282.7,66.2,284.5,66.3,286.6z"/>
<path class="st0" d="M469.2,343.4c2.2-2,4.6-3.9,7.4-5.8c0.5,0.1,0.6,0.3,0.5,0.5c-2.1,1.9-4.1,3.5-5.9,5.2c0.1,0,0,0-0.3,0
	c-0.6,0.1-1,0.3-1.3,0.4C469.5,343.7,469.3,343.5,469.2,343.4z"/>
<path class="st0" d="M114.2,304.2c-0.3-0.1-0.5-0.6-0.8-1.3c0-2.2,0-4.1,0.3-6.6c0.4-0.8,0.6-1,0.7-1.3c0-0.4,0-0.8,0.3-1.5
	c0.4-0.3,0.6-0.3,0.8-0.3C115,296.6,114.7,300.2,114.2,304.2z"/>
<path class="st0" d="M115.7,349.9c-1.1-1.9-2.1-4.2-3.1-6.9C113.6,345,114.7,347.3,115.7,349.9z"/>
<path class="st0" d="M94.4,200.8c-1,1.9-2.2,3.9-3.8,5.9C91.5,204.8,92.8,202.9,94.4,200.8z"/>
<path class="st0" d="M99.9,333.3c-1.7-1.1-3.6-2.6-5.5-4.3C96.1,330.1,97.9,331.5,99.9,333.3z"/>
<path class="st0" d="M117.4,358.5c-0.6-1.7-1.2-3.7-1.5-5.9C116.5,354.3,116.9,356.3,117.4,358.5z"/>
<path class="st0" d="M79.2,351.6c0.4,2,0.7,4.3,0.9,6.9C79.7,356.6,79.4,354.2,79.2,351.6z"/>
<path class="st0" d="M59.9,307.9c1,1.9,1.9,4,2.8,6.6C61.7,312.6,60.7,310.4,59.9,307.9z"/>
<path class="st0" d="M503.3,389.2c-1.4,1.6-2.8,3.2-4.6,4.7c-0.4-0.1-0.6-0.3-0.5-0.5c1.7-1.7,3.1-3.1,4.7-4.5
	C503.1,389,503.3,389.2,503.3,389.2z"/>
<path class="st0" d="M116.3,284.2c0-0.4,0-0.8,0.4-1.5c0.5-0.3,0.8-0.3,1-0.3c-0.5,2.8-1.1,5.7-1.9,8.4c-0.3-1-0.4-1.8-0.4-2.7
	c0-0.7,0-1.4,0.3-2.6C116,284.8,116.2,284.5,116.3,284.2z"/>
<path class="st0" d="M68.9,295.4c-0.8-1.7-1.7-3.7-2.3-5.9C67.5,291.2,68.2,293.2,68.9,295.4z"/>
<path class="st0" d="M127.5,255.2c-0.3-0.9-0.3-2-0.2-3.6c0.4-0.7,0.6-0.9,0.7-1.2c0.5-0.3,1-0.6,1.9-0.8
	C129.3,251.4,128.5,253.2,127.5,255.2z"/>
<path class="st0" d="M73.9,305c-1-1.4-2.2-3.2-3.3-5.2C71.7,301.2,72.8,303,73.9,305z"/>
<path class="st0" d="M501.1,315.2c1.1-1.6,2.2-3.1,3.6-4.8c0.3-0.1,0.5,0.1,0.5,0.4c-0.1,0.7-0.1,1.1-0.2,1.5c0,0,0-0.1-0.3,0.1
	c-1.3,1.1-2.3,2.1-3.4,3C501.3,315.4,501.1,315.2,501.1,315.2z"/>
<path class="st0" d="M96.1,299.1c1.1,0.8,2.2,2,3.2,3.3C98.1,301.6,97.1,300.5,96.1,299.1z"/>
<path class="st0" d="M453.6,390.1c-0.3,1.4-0.9,2.8-1.7,4.5C452.1,393.2,452.7,391.7,453.6,390.1z"/>
<path class="st0" d="M479.9,334.7c1-1,2.1-2,3.6-2.8c0.5,0.1,0.8,0.4,0.6,0.7c-1.3,1.1-2.4,1.9-3.7,2.6
	C480.2,335.1,479.9,334.7,479.9,334.7z"/>
<path class="st0" d="M124.1,260.1c0.4-1.2,0.8-2.5,1.8-3.8c0.6-0.1,1-0.1,1-0.1c-0.1,0.5-0.3,0.9-0.8,1.8c-0.5,0.9-0.7,1.3-0.8,1.8
	c0,0,0.1,0.2-0.3,0.2C124.5,260.1,124.3,260.1,124.1,260.1z"/>
<path class="st0" d="M104.8,337.1c-1.1-0.5-2.3-1.3-3.6-2.4C102.3,335.2,103.4,336,104.8,337.1z"/>
<path class="st0" d="M108.6,340c-1.1-0.5-2.3-1.2-3.7-2.3C106.1,338.2,107.3,339,108.6,340z"/>
<path class="st0" d="M498.4,393.9c-1,1-2.1,2-3.5,2.9c-0.3,0.1-0.5-0.2-0.4-0.5c1.3-1.1,2.5-1.9,3.6-2.7
	C498.1,393.6,498.3,393.8,498.4,393.9z"/>
<path class="st0" d="M122.9,266c0.1-1.1,0.5-2.4,1.1-3.8C124,263.2,123.5,264.5,122.9,266z"/>
<path class="st0" d="M476.9,337.6c0.7-1,1.5-1.9,2.7-2.8c0.3-0.1,0.6,0.3,0.6,0.7c-1,1.1-2,1.8-3,2.5
	C477.2,337.9,477,337.7,476.9,337.6z"/>
<path class="st0" d="M118,281.4c-0.4-0.5-0.5-1.3-0.4-2.7c0.4-1.1,0.6-1.7,0.7-2.2c0,0,0.4,0,0.6,0
	C118.8,278.1,118.5,279.6,118,281.4z"/>
<path class="st0" d="M483.9,331.9c0.6-1.1,1.4-2,2.7-2.8c0.6,0.2,0.7,0.4,0.7,0.7c-1.1,1-2,1.8-2.9,2.5
	C484.3,332.3,484,332,483.9,331.9z"/>
<path class="st0" d="M92.2,326.5c-0.9-0.4-1.8-1.1-2.8-2.2C90.3,324.7,91.2,325.4,92.2,326.5z"/>
<path class="st0" d="M76.2,308.3c-0.7-0.6-1.5-1.4-2.2-2.6C74.7,306.3,75.4,307.2,76.2,308.3z"/>
<path class="st0" d="M78.7,311.9c-0.7-0.6-1.5-1.4-2.2-2.6C77.2,309.9,77.9,310.7,78.7,311.9z"/>
<path class="st0" d="M119.7,274.9c0.2-1.4,0.6-3,1.4-4.9C120.9,271.3,120.4,273,119.7,274.9z"/>
<path class="st0" d="M81.8,315.5c-0.9-0.7-1.9-1.7-2.9-3C79.7,313.2,80.7,314.2,81.8,315.5z"/>
<path class="st0" d="M115.1,288.4c0.3,0.6,0.3,1.4,0.5,2.7c0.1,0.8,0.1,1.1,0,1.6c-0.3,0.2-0.4,0.2-0.9,0.3
	C114.6,291.6,114.7,290.2,115.1,288.4z"/>
<path class="st0" d="M86.2,393.5c0.8,0.2,1.7,0.6,2.6,1.4C88.1,394.7,87.2,394.2,86.2,393.5z"/>
<path class="st0" d="M111.6,342c-0.8-0.2-1.7-0.6-2.7-1.4C109.7,340.8,110.6,341.2,111.6,342z"/>
<path class="st0" d="M505.2,386.2c-0.4,1-0.9,1.8-1.6,2.8c-0.3,0.1-0.5-0.1-0.5-0.4c0.1-0.7,0.2-1.1,0.2-1.5c0-0.1,0,0.1,0.2,0
	c0.6-0.5,1-0.8,1.4-1.2C504.9,385.9,505.1,386.1,505.2,386.2z"/>
<path class="st0" d="M101.8,306c0.6,0.2,1.2,0.7,1.8,1.5C103,307.3,102.4,306.8,101.8,306z"/>
<path class="st0" d="M70.3,298.6c-0.4-0.3-0.8-0.9-1.2-1.8C69.6,297.1,70,297.8,70.3,298.6z"/>
<path class="st0" d="M113.5,313c-0.1-0.5-0.1-1.2-0.1-2.3C113.6,311.2,113.6,312,113.5,313z"/>
<path class="st0" d="M486.9,329.1c0.2-0.5,0.7-0.8,1.4-1.2c0.3-0.1,0.4,0.1,0.4,0.5c-0.4,0.7-0.8,1-1.2,1.3
	C487.3,329.5,487.2,329.4,486.9,329.1z"/>
<path class="st0" d="M121.7,269.1c-0.3-0.3-0.4-0.9-0.2-1.8c0.5-0.4,0.7-0.4,0.9-0.4C122.3,267.6,122.1,268.2,121.7,269.1z"/>
<path class="st0" d="M520.5,283.2c-0.4-0.1-0.7-0.5-1.2-1.3C519.7,282.1,520.1,282.5,520.5,283.2z"/>
<path class="st0" d="M94,296.4c-0.1-0.4,0-0.6,0-1.2c0.3,0.1,0.7,0.6,0.9,1.3c-0.1,0.3-0.5,0.3-0.5,0.3S94.1,296.6,94,296.4z"/>
<path class="st0" d="M94.5,297.1c-0.1-0.2,0.3-0.3,0.4-0.3c0.4,0.3,0.6,0.7,0.8,1.3C95.4,298.1,95,297.7,94.5,297.1z"/>
<path class="st0" d="M125.5,259.7c-0.1-0.3,0.1-0.8,0.4-1.4C126,258.6,125.9,259.1,125.5,259.7z"/>
<path class="st0" d="M84.5,318.7c-0.3-0.1-0.7-0.3-1.1-0.9C83.8,317.9,84.1,318.2,84.5,318.7z"/>
<path class="st0" d="M85.1,392.5c0.2-0.1,0.5,0,0.8,0.4C85.7,393.1,85.4,393,85.1,392.5z"/>
<path class="st0" d="M80,366.1c0.1-0.1,0.5,0,0.5,0s-0.1,0.4-0.2,0.4C80.1,366.6,80,366.3,80,366.1z"/>
<path class="st0" d="M104.5,309c0.2-0.1,0.5,0.1,0.9,0.6C105.2,309.6,104.9,309.4,104.5,309z"/>
<path class="st0" d="M103.6,308c0.2-0.1,0.5,0.1,0.9,0.6C104.2,308.6,103.9,308.4,103.6,308z"/>
<path class="st0" d="M100.9,304.9c0.2-0.1,0.5,0.1,0.8,0.6C101.5,305.5,101.2,305.3,100.9,304.9z"/>
<path class="st0" d="M117.7,282.2c-0.3,0.1-0.5,0.1-1,0.1c0-0.2,0.3-0.4,0.8-0.7C117.8,281.7,117.9,282.1,117.7,282.2z"/>
<path class="st0" d="M519.3,281.5c-0.2,0.1-0.5-0.1-0.8-0.6C518.7,280.9,519,281,519.3,281.5z"/>
<path class="st0" d="M105.5,310c0.2-0.1,0.5,0.1,0.9,0.5C106.1,310.6,105.8,310.4,105.5,310z"/>
<path class="st0" d="M122.6,266.7c-0.3,0.1-0.5,0.1-1.1,0.1c0-0.2,0.3-0.4,0.8-0.6C122.7,266.3,122.7,266.6,122.6,266.7z"/>
<path class="st0" d="M124.2,260.5c0.1-0.4,0.3-0.4,0.8-0.4c0.2,0.4,0.1,0.8-0.2,1.4C124.5,261.4,124.4,261.2,124.2,260.5z"/>
<path class="st0" d="M129.9,248.4c0.3-0.2,0.5-0.5,1-0.7c0.3-0.1,0.2,0.4-0.2,0.6C130.4,248.4,129.9,248.4,129.9,248.4z"/>
<path class="st0" d="M127.1,256c-0.1,0.2-0.6,0.2-0.8,0.2c0-0.2,0.3-0.5,0.8-0.8C127.2,255.4,127.2,255.8,127.1,256z"/>
<path class="st0" d="M129.9,248.7c0-0.3,0.4-0.3,0.7-0.3c0.1,0.3,0,0.6-0.3,1C130.1,249.4,130,249.2,129.9,248.7z"/>
<path class="st0" d="M87.3,321.7c-0.2,0.1-0.5-0.1-0.8-0.5C86.8,321,87.1,321.2,87.3,321.7z"/>
<path class="st0" d="M94.2,328.4c-0.2,0.1-0.5-0.1-0.8-0.5C93.7,327.7,93.9,327.9,94.2,328.4z"/>
<path class="st0" d="M88.3,322.7c-0.3,0.2-0.5,0-0.8-0.5C87.8,322,88,322.2,88.3,322.7z"/>
<path class="st0" d="M86.4,320.7c-0.2,0.1-0.5-0.1-0.8-0.5C85.9,320,86.2,320.2,86.4,320.7z"/>
<path class="st0" d="M85.5,319.7c-0.2,0.1-0.5-0.1-0.8-0.5C84.9,319,85.2,319.2,85.5,319.7z"/>
<path class="st0" d="M499.3,317.2c0.1-0.4,0.3-0.6,0.8-0.8c0.3,0,0.5,0.2,0.4,0.4c-0.3,0.5-0.5,0.7-0.8,0.8
	C499.6,317.5,499.4,317.3,499.3,317.2z"/>
<path class="st0" d="M82.7,316.7c-0.2,0.1-0.5-0.1-0.7-0.5C82.3,316,82.5,316.2,82.7,316.7z"/>
<path class="st0" d="M500.3,316.3c0.1-0.4,0.3-0.6,0.7-0.9c0.2-0.1,0.3,0,0.3,0.3c-0.2,0.6-0.4,0.8-0.7,0.9
	C500.5,316.6,500.3,316.4,500.3,316.3z"/>
<path class="st0" d="M108.4,312.9c0.2,0,0.5,0.2,0.9,0.7C109.1,313.6,108.8,313.4,108.4,312.9z"/>
<path class="st0" d="M108.2,311.6c0.3,0.2,0.2,0.4,0.1,0.9c-0.4,0.3-0.7,0.1-0.9-0.4C107.5,311.7,107.7,311.7,108.2,311.6z"/>
<path class="st0" d="M106.4,310.9c0.2-0.1,0.5,0.1,0.9,0.6C107.1,311.6,106.8,311.4,106.4,310.9z"/>
<path class="st0" d="M209,451.6c-4-3.4-6.5-7.1-6.3-12.4c4.2-0.3,7.9-1.6,10.5,3.7c2.2,4.4,11.8,4.3,15.2,0.6
	c2.3-2.4,1.8-6.2-1.3-7.8c-2.2-1.1-4.9-1.4-7.4-2.1c-3.9-1.1-7.9-1.7-11.5-3.3c-5.2-2.4-7.5-6.9-7-12.6c0.5-5.7,3.7-9.7,9-10.6
	c5.2-0.9,10.9-1.1,16.1-0.2c5.4,0.9,8.4,5.4,9.7,11.1c-3.1,0.8-5.9,1.5-8.6,2.1c-3.2-5.5-8.4-7.8-13.3-5.5c-1.5,0.7-3.5,2.5-3.5,3.9
	c-0.1,1.3,1.8,3.2,3.3,4c1.9,1,4.4,0.9,6.5,1.5c3.9,1.1,7.9,1.8,11.5,3.5c5.4,2.5,7.4,7.3,7.4,13.1c0,5.4-2.6,9.3-7.5,11.4
	C224.5,455.4,216.9,455.8,209,451.6z"/>
<path class="st0" d="M340.7,417.6c4,11.8,7.9,23.2,11.8,34.7c-9.4,0.7-9.5,0.8-12.3-7c-1.1-3-2.5-4.7-5.9-4.4
	c-1.9,0.2-3.9,0.1-5.8-0.3c-6.9-1.4-11.5,0.3-13.5,7.9c-1.6,6.2-6.9,1.2-10.7,2.1c2.4-5.9,4.7-11.8,7.2-17.6
	c3.8-8.9,7.7-17.8,11.8-26.5c0.7-1.4,3.2-2.9,4.6-2.7c3,0.4,7.1-1.7,8.7,3C338,410.3,339.3,413.8,340.7,417.6 M332.3,421.8
	c-0.8-2-1.5-4-2.7-7.2c-2.7,6.3-4.9,11.6-7.4,17.4c4.8,0.3,8.9,0.5,12.9,0.7c0.1-0.7,0.2-0.8,0.1-1
	C334.4,428.7,333.5,425.6,332.3,421.8z"/>
<path class="st0" d="M277.3,445.1c0,2.1,0,3.6,0,5.6c-3.3,0-6.3,0-9.8,0c0-15.6,0-31.1,0-47c8.5,0,17-0.4,25.5,0.1
	c6.5,0.4,10.7,5.7,11.1,12.6c0.5,7.4-2.6,13.2-9.1,14.7c-5.6,1.3-11.4,1.5-17.7,2.2C277.3,437,277.3,440.9,277.3,445.1 M292.7,422.3
	c2.2-5.3,1.4-9.5-2.4-9.9c-4.2-0.5-8.5-0.1-12.8-0.1c0,4.2,0,8,0,12.6C282.7,424.2,287.4,423.6,292.7,422.3z"/>
<path class="st0" d="M386.9,417.7c-3.1-0.2-5.8-0.4-8.8-0.6c-1.9,12.6-3.8,24.9-5.7,37.7c-3.1-0.3-5.9-0.6-9.5-0.9
	c1.8-12.9,3.6-25.5,5.4-38.4c-4.2-0.6-8.3-1.2-12.9-1.9c0.4-2.5,0.8-4.6,1.3-7.2c12,1.2,23.7,2.5,36.1,3.7
	C390.8,413.2,393.8,418.5,386.9,417.7z"/>
<path class="st0" d="M249.7,451.5c-1.3-15.8-2.2-31.3-3.2-47.2c3.7-0.2,6.5-0.3,9.9-0.5c0.8,16,1.5,31.6,2.3,48
	C255.7,451.7,252.9,451.7,249.7,451.5z"/>
<path class="st0" d="M459.4,446.9c1.3-2.9,0.7-4.6-1.8-5.9c-1.5-0.8-2.8-2-4.3-3.1c0.3-0.3,13.3-12.2,13.7-12.6
	c1.6,6.8,2.6,14.2,13.4,11c-7.5,4.3-8.2,9.8-4.7,16.8c-5.9-3.9-11.4-6.6-17.1,0.1c-0.2-0.4-0.5-0.8-0.7-1.2
	C458.4,450.3,458.9,448.8,459.4,446.9z"/>
<path class="st0" d="M113.5,433.8c1-2.6,1.9-4.9,2.8-7.1c0.1-0.3,0.4-0.5,1.3-1.4c1.1,7.4,2.4,14.5,13.2,11.3c-7.4,4-9.8,9-5.3,16.5
	c-6.4-4.8-12.2-6.2-18.6,0.1c4.5-7.5,2.7-12.6-4.5-15.4C106.4,436.4,109.9,435.3,113.5,433.8z"/>
<path class="st0" d="M211.5,299.9c14.1-9.8,29.7-4,33.7,12.3c2.3,9.4,1.3,18.6-3.7,27.1c-4.9,8.2-12.5,11.2-21.9,10.1
	c-8.4-1-13.4-6.5-15.7-13.9C200,322.5,200.6,310.2,211.5,299.9z"/>
<path class="st0" d="M88.3,339.5c2.8,4.6,5.7,9.3,8.3,14.3c-0.6,0.7-1.1,0.9-1.6,1.2c-5.6-7.4-11.1-14.9-16.5-22.9
	c0.8-0.8,1.4-1.1,2-1.4c2,2.2,4.1,4.4,6.4,7.1C87.6,338.7,88,339.1,88.3,339.5z"/>
<path class="st0" d="M87.4,365.5c-0.5-3.7-0.9-6.9-1.4-10.2c0.6-0.1,1.2-0.2,1.8-0.3c1.8,7.7,3.5,15.4,5.3,23.1
	c-0.6,0.2-1.2,0.4-1.8,0.6C90,374.5,88.8,370.2,87.4,365.5z"/>
<path class="st0" d="M95.1,355.4c0.4-0.6,0.9-0.8,1.6-1.2c2.8,5.5,5.4,11,8,17c0,0.4-0.1,0.4-0.1,0.4
	C101.5,366.3,98.3,361,95.1,355.4z"/>
<path class="st0" d="M80.5,330.4c-0.6,0.6-1.2,0.8-2.1,1.4c-1.9-1.9-3.5-4.1-5.2-6.3c0.6-0.5,1.2-1,1.8-1.4
	C76.8,326.1,78.6,328.1,80.5,330.4z"/>
<path class="st0" d="M88.2,339.2c-0.3-0.1-0.6-0.5-1-1.2C87.5,338.2,87.8,338.6,88.2,339.2z"/>
<path class="st0" d="M105.6,373.5c-0.3-0.5-0.6-0.9-0.9-1.7c0-0.3,0-0.3,0-0.3c0.3,0.4,0.6,0.9,0.9,1.7
	C105.7,373.5,105.6,373.5,105.6,373.5z"/>
<path class="st0" d="M105.7,373.5c0,0,0.3,0.2,0.3,0.2s-0.3,0-0.3-0.1C105.6,373.5,105.7,373.5,105.7,373.5z"/>
<path class="st0" d="M105.6,261.1c-2.9-0.1-3.2,1.8-2.6,3.9c1,3.7,2.2,7.3,3.3,11c0.6,2.1,1,4.2,1.5,6.2c-0.4,0.3-0.9,0.7-1.3,1
	c-1.5-1-3.7-1.7-4.5-3.1c-6.3-10.4-10-21.8-11.7-33.8c-0.3-2.4,0.6-4.9,1.4-7.1c0.9,13.3,3.4,25.6,10.6,36.3
	c-0.6-11.1-1.1-22.1-1.6-33.4c0.1-0.7,0.1-1.1,0.3-1.8c3.3-8.5,6.2-16.8,9.4-25c1.6-4,3.8-7.7,6-11.8c0.5-0.6,0.7-1.1,1.2-1.7
	c0.3-0.4,0.4-0.7,0.8-1.3c0.5-0.9,0.9-1.6,1.5-2.4c0.6-0.8,1-1.5,1.3-2.2c0,0,0,0,0.3-0.1c0.7-1,1.2-1.9,1.7-3
	c0.1-0.1,0.2-0.5,0.5-0.6c0.6-0.8,0.9-1.5,1.4-2.4c0.6-1,1.1-1.8,1.9-2.8c0.5-0.7,0.7-1.2,1.2-1.9c0.5-0.9,0.8-1.6,1.4-2.4
	c3.7-6.7,7.1-13.3,10.4-19.8c1-1.9,1.6-3.9,2.4-5.5c-0.1,2.2-0.3,4-0.4,5.8c0.4,0.1,0.9,0.2,1.3,0.3c1-4,2.5-7.9,3-12
	c0.8-6.7,0.6-6.7,7.1-5.6c1,1.1,1.9,1.9,2.7,3.1c1.3,4.7,2.6,8.9,4,13.6c0.1,5.2,1,10.2-0.1,14.8c-2.1,8.8-5.2,17.4-8.2,26.2
	c-0.4,0.5-0.5,0.8-0.9,1.3c-0.4,0.3-0.6,0.6-1,1c-0.8,1-1.3,1.9-2,3c-0.4,0.3-0.5,0.6-0.6,0.8c0,0,0,0-0.3,0.1
	c-0.8,0.7-1.3,1.3-2.1,2c-0.7,1-1.1,1.8-1.7,3c-2.7,2.6-5.2,4.9-7.8,7.2c-9.7,8.8-18,18.7-24.2,30.4c-0.5-1.7-0.6-3.3-0.8-4.8
	c0,0,0,0,0.2-0.1c0.4-0.7,0.6-1.3,0.8-1.8c0,0,0,0,0.2-0.2c0.4-0.7,0.6-1.2,0.9-2.1c1.3-2.1,2.5-3.8,3.9-5.7
	c0.4-0.5,0.6-0.9,0.8-1.5c2-2.5,4-4.8,6.1-7.2c0.4-0.4,0.6-0.6,0.8-1.2c1.7-1.7,3.2-3.1,5-4.6c0.7-0.7,1.2-1.3,1.6-1.9
	c0,0-0.1,0.1,0.2-0.1c0.4-0.4,0.6-0.7,0.9-1.2c0.6-0.7,1.1-1.1,1.9-1.7c0.6-0.5,0.9-0.8,1.1-1.1c0,0-0.1,0,0.2,0
	c1.3-0.6,2.3-1.3,3.3-1.9c-0.4-0.3-0.9-0.6-1.2-1.2c0.8-1,1.5-1.7,2.5-2.6c0.4-0.4,0.6-0.7,0.8-0.9c0,0.1-0.1,0.1,0.1-0.1
	c0.4-0.4,0.6-0.7,0.8-1c0,0.1-0.2,0.1,0.1-0.1c0.5-0.6,0.8-1.2,1-1.7c0,0,0,0,0.2-0.2c0.4-0.4,0.6-0.6,0.7-0.9c0,0-0.1,0.1,0.1-0.1
	c0.4-0.6,0.6-0.9,0.8-1.6c1-1.5,1.9-2.8,3-4.3c0.4-0.6,0.6-0.9,0.8-1.5c0.2-0.6,0.5-0.9,1-1.4c0.5-0.7,0.7-1.3,0.9-1.8
	c0,0-0.1,0.1,0.2-0.1c0.8-1.5,1.2-2.9,1.6-4.3c0-0.1,0.2-0.3,0.4-0.5c0.4-0.6,0.5-1,0.6-1.4c-0.1,0-0.1-0.2,0.2-0.4
	c0.4-1.1,0.6-2,0.8-2.9c0,0.1-0.1,0.1,0.2-0.2c0.5-1.3,0.6-2.2,0.7-3.3c-0.1,0,0-0.2,0.2-0.5c0.8-2.3,1.9-4.3,1.7-6.2
	c-0.7-5.3-1.9-10.6-3.1-16.2c-1.5-4.4-2.8-8.4-4.1-12.5c-0.4,0.1-0.8,0.2-1.3,0.3c-0.2,11.9-5,22.2-10.8,32.2
	c-7.1,12.4-14.4,24.8-21.8,37.4c-0.4,0.8-0.6,1.3-0.6,1.9c0.1,0.1-0.1-0.1-0.4,0.1c-0.4,0.7-0.6,1.3-0.6,1.8c0.1,0-0.1-0.1-0.3,0.1
	c-0.7,1.4-1.1,2.6-1.7,4c-0.1,0.1-0.1,0.4-0.4,0.6c-1,2.5-1.8,4.7-2.7,7.1c-0.1,0.1,0,0.3-0.3,0.6c-0.7,2.2-1.2,4-1.6,5.9
	c0,0,0,0-0.2,0.3c-0.5,2.1-0.7,4-1.1,6.2c-0.2,2-0.3,3.7-0.5,5.6C105.5,255,105.6,258,105.6,261.1
	C105.7,261.1,105.6,261.1,105.6,261.1 M104.2,277.9C104.2,277.9,104.2,278,104.2,277.9 M103.3,258.6
	C103.3,258.6,103.3,258.6,103.3,258.6z"/>
<path class="st0" d="M100.6,242.5c0.6,11,1.1,22,1.7,33c-7.3-10.7-9.7-23-10.3-36.5c0-0.8,0-1.3,0.3-2.3c2.5-7,4.9-13.4,7.3-19.4
	c-1.7,6.5-4,12.5-5.1,18.8c-1.4,8.2,0,16.3,3.6,24c0.8-4.2,0.6-8.4,0.9-12.6C99.1,245.9,100.1,244.2,100.6,242.5z"/>
<path class="st0" d="M111.5,252.3c5.9-11.8,14.2-21.7,23.9-30.4c2.5-2.3,5.1-4.6,8-7.2c0.5-0.2,0.9-0.3,1.1,0c0.1,1.1,0,2-0.1,2.8
	c-0.3,0.2-0.5,0.4-1.1,0.9c-1.2,1.2-2,2-2.8,2.9c-4.4,4.3-8.8,8.7-13.6,13.5c-0.9,1.3-1.4,2.1-1.9,3c-1.2,1.4-2.4,2.8-4,4.7
	c-0.9,1.3-1.3,2.2-1.8,3.1c0,0-0.1,0.4-0.4,0.7c-1.1,1.6-1.8,2.9-2.5,4.1c-0.3,0.7-0.7,1.4-1.3,2.7c-1.7,4-3,7.5-4.4,10.9
	c0,0,0,0-0.3-0.2c-0.1-3,0-5.8,0.3-8.8C111,253.9,111.3,253.1,111.5,252.3z"/>
<path class="st0" d="M99.5,217.1c-2.3,6.4-4.7,12.8-7.2,19.5c0-3.1-0.4-6.7,0.6-9.8c3.8-12.2,11-22.7,18.1-33.2
	c0.9-1.3,2.3-2.1,3.9-3.2c0.4,0,0.5,0.1,0.5,0.4c-0.1,0.7-0.1,1.1-0.3,1.7c-0.4,0.4-0.5,0.7-0.9,1.1c-2.1,2.9-3.9,5.7-5.8,8.6
	c-0.4,0.6-0.7,1.1-1.2,1.7c-1.6,2.4-2.9,4.7-4.4,7.2c-0.5,0.9-0.8,1.6-1.4,2.4c-0.6,0.8-0.9,1.5-1.3,2.5
	C99.8,216.4,99.7,216.7,99.5,217.1z"/>
<path class="st0" d="M162,203.9c-4,4.4-8,8.8-12.3,13.4c-0.5-0.4-0.7-0.9-1-1.9c1.5-2.6,3-4.7,4.6-7c1.6-1.7,3-3.2,4.8-4.6
	C159.7,203.8,160.8,203.8,162,203.9z"/>
<path class="st0" d="M119.1,184.3c2.2-4,4.4-7.9,6.9-12.4c0.8-2,1.4-3.4,2.3-4.9c1.1,0,1.9,0,2.6,0.4c0,0.7,0,1.1-0.1,1.5
	c0,0,0,0-0.3,0.2c-1.1,1.7-1.9,3.2-2.8,4.9c-0.8,1.2-1.4,2.2-2.4,3.4c-2.2,2.5-4,4.9-6,7.2C119.3,184.5,119.1,184.3,119.1,184.3z"/>
<path class="st0" d="M110.5,255.2c-0.1,2.8-0.3,5.5-0.2,8.6c0,1.6-0.2,3-0.9,4.7c-0.9,0.3-1.3,0.3-1.7,0.3c-0.5-2.4-1-4.8-1.8-7.4
	c-0.3-0.3-0.2-0.3,0.1-0.5c0.6-1.1,0.8-1.9,1.2-3c0.3-0.5,0.3-0.8,0.3-1.3c0.1-0.6,0.2-1,0.6-1.3
	C109.1,255.2,109.8,255.2,110.5,255.2z"/>
<path class="st0" d="M153.1,208.6c-1.5,2.1-3,4.2-4.7,6.6c-1.2,0.9-2.3,1.6-3.7,2.3c-0.2-0.8-0.1-1.7,0-3c0.2-1.2,0.4-2,0.6-2.8
	c0.5-0.6,1-1.2,1.8-1.6c1.6-0.3,2.9-0.8,4.5-1.3C152.3,208.6,152.7,208.6,153.1,208.6z"/>
<path class="st0" d="M128,167c-0.6,1.4-1.1,2.9-1.8,4.6c-1.8,0.2-3.5,0.2-5.6,0.2c0.4-1.5,1.1-3,2.6-4.7
	C125.2,167,126.6,167,128,167C128,167,128,167,128,167z"/>
<path class="st0" d="M110.9,263.9c1.1-3.4,2.4-6.8,4.1-10.5C113.9,256.7,112.6,260.2,110.9,263.9z"/>
<path class="st0" d="M115.3,190.2c1-1.9,2.1-3.8,3.5-5.7c0.3-0.1,0.5,0.1,0.5,0.4c0,0.8-0.1,1.1-0.2,1.7c-0.1,0.1-0.2,0.4-0.5,0.6
	c-0.6,0.8-1,1.5-1.4,2.2c0,0,0,0-0.3,0.1c-0.7,0.4-1.1,0.7-1.5,1C115.5,190.4,115.3,190.2,115.3,190.2z"/>
<path class="st0" d="M116.7,250.3c0.4-1.2,1.1-2.5,2.2-3.9C118.4,247.6,117.7,248.9,116.7,250.3z"/>
<path class="st0" d="M107.7,269.1c0.4-0.3,0.8-0.3,1.5-0.3c-0.1,0.7-0.4,1.5-0.8,2.2C108.2,270.4,107.9,269.9,107.7,269.1z"/>
<path class="st0" d="M140.9,221.3c0.5-0.8,1.3-1.7,2.4-2.7C142.8,219.4,142,220.3,140.9,221.3z"/>
<path class="st0" d="M125.3,237.7c0.2-0.8,0.7-1.6,1.4-2.6C126.6,235.8,126.1,236.7,125.3,237.7z"/>
<path class="st0" d="M119.6,245.5c0.2-0.8,0.6-1.7,1.3-2.7C120.7,243.5,120.3,244.4,119.6,245.5z"/>
<path class="st0" d="M118.1,276.4c0,0.6-0.1,1.1-0.5,1.8C117.5,277.8,117.7,277.1,118.1,276.4z"/>
<path class="st0" d="M114.2,295c0.1,0.2-0.1,0.4-0.5,0.8C113.6,295.6,113.8,295.4,114.2,295z"/>
<path class="st0" d="M116.1,284.4c0.1,0.2-0.1,0.4-0.5,0.8C115.5,285,115.7,284.7,116.1,284.4z"/>
<path class="st0" d="M127.8,250.5c0,0.1-0.1,0.4-0.5,0.7C127.2,251.1,127.4,250.8,127.8,250.5z"/>
<path class="st0" d="M289.8,67c-8.2,1.6-16.4,3.2-25.2,4.9c-1.6-5.5-3.4-11.4-5.5-18.5c4.4,0,7.6,0.3,10.7-0.1
	c1.4-0.2,3.4-2,3.5-3.1c0.7-10.9,7.2-17.5,16.4-22.3c0.4,2.1,0.4,3.8,0.4,6C290,45.2,289.9,56.1,289.8,67z"/>
<path class="st0" d="M293.7,28.5c8.1,3.2,12.9,9.4,14.6,17.7c0.9,4.4,2,7.4,7.1,6.6c0.2,0,0.3,0,0.5,0.1c7.6,1,7.6,1,5.7,8.5
	c-2.8,11-2.7,10.9-13.6,8.2c-4.4-1.1-8.9-1.6-13.7-2.7c-0.4-0.3-0.6-0.7-0.5-0.7s0-0.1,0.2-0.2c0.3-0.3,0.2-0.6-0.1-1.2
	c-0.2-9.8-0.4-19.2-0.6-28.7c0-0.5-0.1-0.8-0.2-1.4c0-0.7-0.1-1.1,0.1-1.8C293.4,31.3,293.5,29.9,293.7,28.5z"/>
<path class="st0" d="M293.1,36.3c0.2,9.4,0.4,18.7,0.6,28.7c0,0.6,0,1,0,1s0,0.1-0.2,0.2c-0.4,0.3-0.6,0.5-0.7,0.7
	c-0.7,0-1.5,0.1-2.6,0.1c-0.3-10.9-0.2-21.8,0.3-33.2c1-0.5,1.7-0.6,2.3-0.6c0,0.4,0.1,0.8,0.1,1.8C293,35.9,293,36.1,293.1,36.3z"
	/>
<path class="st0" d="M293.1,32.9c-0.9,0.3-1.5,0.4-2.5,0.4c-0.3-1.7-0.3-3.5-0.4-5.5c0.9-0.1,1.9,0.1,3.2,0.5
	C293.5,29.9,293.4,31.3,293.1,32.9z"/>
<path class="st0" d="M293,67c-0.1-0.3,0-0.5,0.4-0.7c0.2-0.1,0.3,0.3,0.3,0.5C293.6,67,293.5,67,293,67z"/>
<path class="st0" d="M478.9,189.3c1.8,3.2,3.4,6.4,5.4,9.5c4.4,6.7,9.5,13,13.5,19.9c6.9,12.2,9.7,25.3,6.9,39.5
	c-3.4,17.1-12.3,31.1-23.1,44.3c-2.5,3.1-5.2,5.9-8.9,9c-1.3-37.2-17.1-68.1-39.6-96.5c1.8,0.8,3.5,1.6,5.6,2.5c0.4,0,0.3,0,0.4,0.4
	c0.5,2.6,1.3,4.3,4.1,2.5c0.1,0,0.3,0,0.4,0.3c1.5,2,2.8,3.7,4.3,5.7c0.4,0.4,0.7,0.6,0.9,0.8c0,0,0,0,0.1,0.3
	c1.6,1.4,3.1,2.6,4.8,3.8c0.4,0.4,0.6,0.7,0.9,1.2c1.3,1.7,2.6,3,4.2,4.5c2.7,3.6,5,7.1,7.3,10.7c0.6,1.4,1.3,2.5,2.1,4
	c0.1,1,0.2,1.6,0.2,2.6c0.5,0.8,1.1,1.4,1.7,2.2c0.4,1.1,0.7,1.8,1,3c0.8,3.1,1.7,5.9,2.5,8.4c1.6-1.5,2.9-2.8,4.7-3.9
	c0.4,2,1,4.1,0.5,5.8c-1.3,4.7-3.1,9.2-4.8,14.1c6,0.2,7.2-1,7.7-6.6c0-0.4-0.1-0.6-0.1-1.1c0.4-1,0.8-1.7,1.4-2.5
	c0.3-0.7,0.4-1.4,0.6-2.3c0.3-0.8,0.6-1.2,1.2-1.8c0.7-0.3,1.3-0.5,1.4-0.9c5.7-13,7.1-26.5,3.6-40.3c-1.1-4.2-4.1-8-6.4-12
	c-0.2-0.1-0.6,0-0.7,0c0,0,0.1,0,0.1-0.3c0-0.7-0.1-1.1-0.1-1.7c-0.1-0.3-0.3-0.5-0.6-0.8c-0.3-0.4-0.4-0.7-0.4-1.4
	c-0.9-1.8-1.8-3.3-2.8-5.1c-1.4-2-2.8-3.6-4.1-5.2c0,0,0,0.1,0-0.3c-1.2-2.2-2.4-3.9-3.7-6.1c-2.1-2.6-4.1-4.8-6.1-7.2
	c0.1-0.1,0,0.1,0-0.3c-1.5-2.5-3-4.6-4.6-7.1c-0.8-1-1.5-1.6-2.3-2.3c0-0.1,0,0.1,0-0.3c-0.4-0.7-0.9-1.1-1.5-1.5
	c-0.1,0-0.4,0-0.4-0.3c0-0.5,0-0.7,0-1.2c-0.6-1.2-1.1-2-1.8-3.2c-1.7-2.6-3.4-4.9-5.2-7.4c-0.4-0.7-0.6-1.2-0.6-1.9
	c-0.3-0.7-0.7-1.3-1.3-1.9c-0.1-0.2-0.1-0.5-0.1-0.7c-0.3-0.5-0.5-0.8-0.8-1.2c-0.1-0.2-0.1-0.5-0.1-0.8c-0.2-0.5-0.5-0.8-0.8-1.3
	c-0.1-0.6-0.1-0.9-0.2-1.5c-0.3-0.6-0.5-0.9-0.8-1.3c-0.1-0.2-0.1-0.6-0.1-0.9c0.1-0.8,0.1-1.3,0.3-1.9c-0.4-0.5-0.9-0.9-1.6-1.6
	c-0.3-1.9-0.5-3.4-0.7-5.4c0.1-2.5,0.1-4.5,0.1-6.9c-0.8-1.4-1.5-2.4-2.5-3.8c-1.3,3.7-2.3,6.4-3.6,9.1c-2.4,0.3-4.3,0.6-6.6,1.1
	c-0.4,0.7-0.6,1.3-0.8,1.8c0,0,0,0-0.3,0.2c-2.4,3.3-4.4,6.4-6.8,9.6c-0.4,0.7-0.6,1.3-0.7,2.2c0.1,0.8,0.2,1.3,0.2,1.7
	c-0.1,0-0.2-0.1-0.5-0.1c-1,2.4-1.7,4.8-2.3,7.3c0,0.1-0.1,0.4-0.4,0.5c-5.4,8.1-4,25.2,2.2,31.8c0.6,0.6,1.7,0.8,2.6,1.4
	c0.1,0.2,0.2,0.7,0.2,1.1c0,1.4,0,2.5,0,3.5c0,0,0,0,0,0c-3.9-2.8-7.8-5.6-11.7-8.3c-4.3-2.9-8.6-5.6-12.9-8.4
	c-1.2-0.8-2.4-1.8-4-3.1c3.5-2.3,6.1-4.4,9.1-5.8c9-4.4,8.9-17,3.1-23.4c-4.8-5.4-4.7-6.4-1-12.6c7-11.7,17.2-19.9,29-26.2
	c10.3-5.5,20.9-10.4,31.3-15.6c0.6,0.4,1.1,0.8,1.7,1.2c-0.4,1.7-0.5,3.7-1.4,5.1c-8.3,13.1-13,27.2-12.2,42.9
	c0.4,7.2,3.3,13.4,7.3,19.1c3.5,5,7.3,9.8,11.2,14.6c1.5,1.8,3.4,3.3,5.5,4.9C479,189.3,478.9,189.3,478.9,189.3z"/>
<path class="st0" d="M419,167c0,0,0.1-0.2,0.3-0.6c0.9-2.6,1.7-4.9,2.4-7.1c0,0,0.1,0.1,0.5,0.1c0.9-0.1,1.4-0.2,1.7,0.2
	c-1.9,17.9,0.2,34.4,10.6,49.1c-1,0.4-1.6,0.8-2.2,1.1c-1.7-1.6-3.4-3.3-5.3-5c-0.3-0.1-0.3-0.1-0.3-0.4c-1-1.4-2-2.5-2.9-3.5
	c0,0-0.1-0.5-0.3-1C416.4,189.3,415.6,178.4,419,167z"/>
<path class="st0" d="M432.5,210.1c0.5-0.6,1.1-1,2.3-1.3c2.7,3.5,4.7,6.8,6.5,9.9c-0.9-0.6-1.5-0.9-2.1-1.3c0,0,0,0,0,0
	C437,215.1,434.8,212.8,432.5,210.1z"/>
<path class="st0" d="M426.7,204.7c-0.3,0.8-0.7,1.6-1,2.4c-0.6-0.6-1.3-1.1-2-2c-0.1-0.3,0-0.3,0.4-0.4
	C425.2,204.8,426,204.7,426.7,204.7C426.7,204.7,426.7,204.7,426.7,204.7z"/>
<path class="st0" d="M131,167.1c-0.7,0-1.5,0-2.6-0.1c-0.4,0-0.4,0-0.3-0.4c0.6-2.6,2.2-5.2-2-5.5c2.9-6.5,3-13.5,3.2-21
	c2.4-3,1.1-4.2-1.2-5.1c0-0.7,0-1.4,0.2-2.7c-0.6-1.7-1.3-2.9-2.1-4.1c-1.6-4-3.2-7.9-4.6-12.5c2.3-4.4,1.2-6.2-3.2-5.9
	c-0.9-1.1-1.8-2.2-2.6-3.9c1.9-1,3.7-1.5,5.6-2c0.4,0,0.8,0,1.6,0.3c1.3,0.8,2.2,1.2,3.1,1.7c6.5,3.2,13.1,6.4,20,10
	c3.4,3.4,5.7,7.6,11,6.5c1.7,1,3.4,1.9,5.4,2.9c2.5,2.6,4.6,5.2,6.9,7.5c6,5.9,10.8,12.3,9.7,21.8c-5.7,2.9-8.2,12.9-4,18.7
	c2.6,3.6,6.8,6.1,10.4,9c1.2,0.9,2.7,1.4,3.7,1.9c-9.1,6.5-17.9,12.9-27,19.4c-1.4,0.1-2.5,0.1-4.1-0.3c-0.1-0.8,0.2-1.3,0.8-1.8
	c1.7-2.7,3.1-5.3,4.4-8.2c0-0.1,0.1-0.4,0.4-0.6c0.4-0.8,0.5-1.5,0.6-2.2c0-0.2,0.1-0.4,0.5-0.7c0.6-4.6,0.9-8.9,1.2-13.6
	c0-0.7,0-1.2,0.1-1.8c0.3-0.7,0.4-1.2,0.7-2c0-1.9,0.2-3.8-0.5-5.3c-0.8-1.9-2.4-3.4-3.8-5.2c-0.2-0.1-0.5-0.3-0.5-0.7
	c-0.1-1.3-0.1-2.2,0-3.4c-0.3-1-0.8-1.9-1.5-2.9c-0.4-0.7-0.6-1.2-0.6-2c0.3-11.2-6.7-17.4-15.9-14.4c-0.7-0.4-1.1-0.6-1.6-1.2
	c-0.1-0.7-0.1-1.2,0-1.8c-0.5-0.5-1.3-0.8-2.1-1c-0.1,0.1-0.2,0.2-0.6,0.3c-0.7,3.9-1.1,7.7-1.7,11.6c-2.1,0.8-3.2,1.6-0.6,3.2
	C135.4,155.8,133.2,161.4,131,167.1C131,167.1,131,167.1,131,167.1z"/>
<path class="st0" d="M156.9,122.1c-5.2,1.4-7.5-2.8-10.5-6.2C149.8,117.6,153.3,119.7,156.9,122.1z"/>
<path class="st0" d="M125.8,161.4c4.5,0,2.8,2.7,2.3,5.3c-1.4,0.4-2.8,0.3-4.6,0.3C123.9,165.2,124.7,163.4,125.8,161.4z"/>
<path class="st0" d="M121.1,103.6c-1.6,0.8-3.5,1.2-5.5,2c-0.9-1-1.5-2.3-2.2-3.5c0.3-0.4,0.6-0.8,0.9-1.2
	C116.4,101.7,118.7,102.6,121.1,103.6z"/>
<path class="st0" d="M118.3,110.1c4.3-0.6,5.5,1.2,3.1,5.3C120.2,113.9,119.3,112.2,118.3,110.1z"/>
<path class="st0" d="M128,135.4c2.4,0.5,3.6,1.8,1.2,4.3C128.6,138.5,128.3,137.1,128,135.4z"/>
<path class="st0" d="M126.1,128.5c0.7,0.8,1.5,2,2,3.4C127.3,131,126.7,129.9,126.1,128.5z"/>
<path class="st0" d="M125.9,105.7c-0.8-0.2-1.7-0.6-2.7-1.4C124,104.4,124.9,104.9,125.9,105.7z"/>
<path class="st0" d="M270.2,183.9c-1-0.8-1.6-1.4-2.9-2.6c16.3,0,31.8,0,47.3,0c0,0.4,0,0.9,0,1.3
	C300.3,189.7,285.6,190.5,270.2,183.9z"/>
<path class="st0" d="M331.7,78.1c2.7-2.2,4.8-2.8,7.4,0.8c4.6,6.5,10.3,12.3,14.9,18.9c4.2,6,7.5,12.6,11.1,19
	c-0.3,0.4-0.7,0.8-1,1.1c-1.3-0.1-2.6-0.3-4.3-0.5C354.5,101.4,345.7,88.1,331.7,78.1z"/>
<path class="st0" d="M456.3,389.3c0.8-1.3,0.8-3,1.1-4.9c-0.1-0.4,0-0.3,0.3-0.5c1.1-2.3,1.8-4.5,2.6-6.7c0,0,0,0.1,0.3-0.1
	c1.1-2.7,1.8-5.2,2.6-7.7c0,0,0,0.1,0.3-0.2c0.4-0.9,0.5-1.6,0.6-2.3 M464.2,367.1c0,0-0.1-0.1,0.2-0.3c1.1-1.8,2.2-3.3,2.6-4.9
	c1.5-6.2,2.7-12.4,4-18.6c0,0,0.1,0.1,0.4,0.1c5.9-4,11.5-7.9,17-12c1-0.8,1.3-2.4,1.9-3.6c0,0,0.1,0.1,0.3,0
	c0.4-0.3,0.6-0.6,0.8-0.9c0,0,0,0.1,0.2,0c0.4-0.4,0.6-0.7,0.8-1c0,0,0,0.1,0.3,0.1c0.9-0.8,1.5-1.6,2-2.3c0,0,0-0.1,0.5,0
	c1.3-1.1,2.1-2.3,2.9-3.5c0,0,0.1,0,0.3,0c0.4-0.4,0.6-0.7,0.8-0.9c0,0,0,0.1,0.3,0c2.1-2.3,3.8-4.5,5.5-6.8c0,0,0,0.1,0.4,0
	c0.9-1.1,1.4-2.2,2-3.2c0,0,0-0.1,0.4-0.1c1.9-2.8,3.4-5.6,4.9-8.4c0,0,0,0,0,0c1.1-1.2,2.5-2.1,3.1-3.5c1.1-2.4,1.7-5.1,2.6-7.9
	c4.2,0.9,3.8,4.2,4.1,6.8c1.2,8.6-1.9,16.1-5.9,23.4c-0.8,1.5-1.2,3.3-1.7,5.3c0,0.4,0,0.3-0.4,0.3c-1.3-0.1-2.8,0.3-3.3-0.2
	c-2.3-2.6-3.3-1.3-4.3,1.3c-0.4,0.4-0.6,0.6-1.3,0.7c-1,0.7-1.7,1.5-2.6,2.4c-2.3,2.6-4.5,4.9-7,7.4c-0.7,0.8-1.1,1.4-1.6,2.4
	c-0.7,1-1.3,1.7-2.2,2.5c-0.5,0.6-0.7,1.1-1.1,1.8c-0.4,0.4-0.6,0.7-1.1,1c-0.7,1-1.2,1.9-1.6,2.9c0,0,0,0-0.3,0.1
	c-5.9,5.3-11.3,20.5-8.4,25.6c2.1-4.6,3.8-8.5,5.6-12.6c0-0.2,0.1-0.5,0.4-0.6c0.7-0.7,1.1-1.4,1.5-2c0,0,0,0,0.3-0.1
	c1.5-2.3,2.6-4.4,3.9-6.8c1.3-1.7,2.5-3.1,4-4.7c0.8-1,1.2-1.9,1.8-3c0.3-0.5,0.5-0.7,1.1-0.9c0.8-1,1.3-1.9,1.8-3
	c0.3-0.4,0.5-0.6,1.1-0.9c0.8-1,1.2-1.9,1.7-2.8c0,0,0,0,0.3-0.1c0.7-0.8,1.1-1.4,1.5-2.3c0-0.2,0.2-0.5,0.6-0.5
	c1.1,1.3,1.8,2.6,2.5,3.9c0,0,0-0.1-0.3,0c-0.7,0.7-1.2,1.3-1.9,2.1c-0.5,2.4-0.8,4.6-1.1,6.7c0,0,0,0.4-0.5,0.7
	c-1.3,3.4-2.6,6.4-3,9.6c-0.6,6.1-0.8,12.3-0.9,18.5c0,1,1,2,1.5,3.1c0.2,0.5,0.4,1,1.1,1.9c0.4,2.9,0.3,5.4,0.3,7.9
	c0,0,0-0.1-0.4-0.1c-3.7,2.5-7.2,4.9-10.6,7.6c-0.9,0.7-1.2,2.1-1.7,3.2c0,0,0,0,0,0c-10.8,3.7-21-0.7-31.4-2.4 M494.6,371.1
	c1.4-4.7,3.8-9.4,1.1-14.2c-0.5-0.1-1.1-0.1-1.6-0.2c-1.2,6.8-2.4,13.6-3.6,20.3c0.5,0.1,1,0.2,1.5,0.4
	C492.7,375.5,493.5,373.7,494.6,371.1z"/>
<path class="st0" d="M502.1,377c-0.7-0.6-1.7-1.6-1.6-2.7c0.1-6.2,0.3-12.4,0.9-18.5c0.3-3.2,1.7-6.2,2.8-9.4
	C503.7,356.4,503,366.5,502.1,377z"/>
<path class="st0" d="M508.3,336.5c-1-1.1-1.7-2.4-2.6-4c0.3-2.4,0.9-4.5,1.4-6.5c0.8-2.4,1.8-3.7,4.2-1.1c0.5,0.5,2,0.2,3.3,0.2
	C512.8,328.8,510.7,332.6,508.3,336.5z"/>
<path class="st0" d="M503.6,387.1c-0.2-2.4-0.1-5-0.2-7.8c1-2.5,2.1-4.7,3.2-7c2.3,4.8,0.3,8.8-1.6,13.2
	C504.6,386.3,504.2,386.7,503.6,387.1z"/>
<path class="st0" d="M504.9,345.3c0.1-1.9,0.4-4.1,1.2-6.4c0.7-0.2,1-0.2,1.2-0.1C506.6,340.8,505.8,342.9,504.9,345.3z"/>
<path class="st0" d="M507.5,338.5c-0.4,0.2-0.6,0.2-1.1,0.1c0.2-0.6,0.6-1.2,1.4-1.9C508,337.2,507.8,337.8,507.5,338.5z"/>
<path class="st0" d="M470.8,343.3c-1.1,6.2-2.3,12.4-3.8,18.6c-0.4,1.6-1.5,3.1-2.5,4.8c1.4-7.3,3.1-14.8,4.9-22.6
	C469.8,343.6,470.2,343.4,470.8,343.3z"/>
<path class="st0" d="M463,369.7c-0.5,2.3-1.3,4.8-2.4,7.4C461.1,374.8,462,372.4,463,369.7z"/>
<path class="st0" d="M460.1,377.5c-0.5,2-1.3,4.2-2.4,6.5C458.2,381.9,459,379.8,460.1,377.5z"/>
<path class="st0" d="M463.9,367.3c0.1,0.4,0,1.1-0.4,2C463.4,368.9,463.5,368.2,463.9,367.3z"/>
<path class="st0" d="M491,397.9c0.2-1,0.5-2.4,1.4-3.1c3.3-2.6,6.8-5,10.6-7.5c0.3,0.3,0.2,0.7,0,1.3c-1.6,1.7-3.1,3.1-4.7,4.8
	c-1.4,1-2.5,1.8-3.9,2.9C493.2,396.9,492.3,397.4,491,397.9z"/>
<path class="st0" d="M512.4,300.8c-1.2,2.6-2.7,5.4-4.6,8.2C509,306.3,510.6,303.6,512.4,300.8z"/>
<path class="st0" d="M507.1,309.2c-0.3,0.9-0.9,2-1.8,3.1c-0.3-0.3-0.2-0.7,0-1.3C505.9,310.2,506.4,309.8,507.1,309.2z"/>
<path class="st0" d="M490.1,327.7c-0.4,1.2-0.7,2.8-1.7,3.6c-5.5,4.1-11.1,8-17,12c1.6-1.7,3.5-3.3,5.6-5.2c1.2-1,2.1-1.6,3.3-2.6
	c1.3-1.1,2.4-1.9,3.7-3c1.1-1,2-1.8,3.1-2.7c0.6-0.5,1-0.9,1.5-1.4C489.2,328.1,489.5,327.9,490.1,327.7z"/>
<path class="st0" d="M504.7,312.4c-1.5,2.1-3.2,4.4-5.3,6.6c-0.2-0.3-0.1-0.7,0.1-1.3c0.4-0.4,0.6-0.5,0.9-1
	c0.4-0.3,0.6-0.5,0.9-1.1C502.4,314.5,503.4,313.5,504.7,312.4z"/>
<path class="st0" d="M497.9,320.1c-0.5,1.1-1.4,2.3-2.6,3.4C495.8,322.3,496.7,321.3,497.9,320.1z"/>
<path class="st0" d="M494.5,323.7c-0.3,0.7-0.9,1.5-1.8,2.2C493,325.1,493.6,324.4,494.5,323.7z"/>
<path class="st0" d="M491.2,326.9c0.1,0.2-0.1,0.5-0.6,0.9C490.6,327.5,490.7,327.2,491.2,326.9z"/>
<path class="st0" d="M492.2,325.9c0.1,0.2-0.1,0.5-0.5,0.9C491.5,326.6,491.7,326.3,492.2,325.9z"/>
<path class="st0" d="M498.9,319.1c0.1,0.2-0.1,0.5-0.5,0.9C498.3,319.8,498.5,319.5,498.9,319.1z"/>
<path class="st0" d="M332.4,422.1c1,3.4,2,6.5,2.9,9.6c0,0.1,0,0.3-0.1,1c-4-0.2-8.1-0.5-12.9-0.7c2.5-5.9,4.7-11.1,7.4-17.4
	C330.8,417.7,331.6,419.8,332.4,422.1z"/>
<path class="st0" d="M292.4,422.6c-5,0.9-9.7,1.6-14.8,2.3c0-4.6,0-8.4,0-12.6c4.3,0,8.6-0.3,12.8,0.1
	C294,412.8,294.9,417.1,292.4,422.6z"/>
<path class="st0" d="M147.2,200.9c-0.9,1.3-1.8,2.5-3.1,4.2c-0.5,0.8-0.6,1.2-0.8,1.6c0,0,0.1,0-0.2,0c-0.4,0.4-0.5,0.7-0.7,1
	c0,0,0,0-0.3,0.2c-0.5,0.7-0.8,1.2-1.1,1.6c0,0,0.2,0-0.1,0c-0.4,0.3-0.6,0.7-0.8,1c0,0,0.1,0-0.1,0c-0.4,0.3-0.6,0.7-0.8,1
	c-0.7,0.7-1.4,1.4-2.5,2.6c-1,1.2-1.6,2.1-2.1,2.9c0,0,0.1,0.1-0.2,0.1c-0.6,0.4-0.8,0.8-1.1,1.1c-0.5,0.4-1,0.9-1.9,1.7
	c-0.5,0.7-0.7,1-0.9,1.3c0,0,0.1,0-0.2,0.1c-0.7,0.7-1.2,1.3-1.7,1.9c-1.5,1.4-3,2.8-4.9,4.6c-0.5,0.6-0.6,1-0.7,1.3
	c-2,2.2-3.9,4.5-6.2,7.2c-0.5,0.8-0.7,1.2-0.8,1.5c-1.2,1.7-2.4,3.5-3.9,5.7c-0.5,1-0.7,1.5-0.9,2.1c0,0,0.1,0-0.2,0.2
	c-0.4,0.7-0.6,1.2-0.8,1.8c0,0,0.1,0-0.1,0c-0.2,0-0.5,0.2-0.8,0.3c-1.5,1.3-2.7,2.4-3.9,3.6c0.1-1.6,0.2-3.3,0.6-5.5
	c0.6-2.5,0.8-4.4,1-6.3c0,0,0-0.1,0.3-0.2c0.7-2.1,1.1-4,1.5-5.9c0,0,0-0.2,0.3-0.5c1.1-2.6,1.9-4.9,2.7-7.1c0,0,0-0.3,0.4-0.5
	c0.8-1.5,1.2-2.8,1.6-4c0,0,0.2,0.1,0.3-0.1c0.3-0.7,0.5-1.3,0.6-1.9c0,0,0.3,0.1,0.4-0.1c0.3-0.8,0.4-1.4,0.6-2
	c7.2-12.4,14.4-24.7,21.5-37.2c5.7-10,10.6-20.3,10.8-32.2c0.4-0.1,0.8-0.2,1.3-0.3c1.3,4.1,2.6,8.1,4.1,12.9
	c0.5,7.9,0.9,15.1,1.2,22.3c0,0,0,0.2-0.2,0.5c-0.4,1.3-0.5,2.3-0.7,3.3c0,0,0.1,0-0.1,0.2c-0.5,1.1-0.6,2-0.8,2.9
	c0,0,0,0.2-0.2,0.4c-0.3,0.6-0.4,1-0.5,1.5c0,0-0.2,0.2-0.4,0.6c-0.7,1.7-1.2,3-1.7,4.2c0,0,0.1,0-0.2,0.1c-0.5,0.7-0.7,1.2-0.9,1.8
	c-0.3,0.3-0.5,0.7-1,1.4C147.6,200.1,147.4,200.5,147.2,200.9z"/>
<path class="st0" d="M118.9,186.9c0,0,0.1-0.3,0.6-0.5c2.4-3.2,4.3-6.2,6.2-9.2c0.6-1,1.2-2,2.4-3.3c1.3-1.9,2-3.4,2.8-5
	c0,0,0,0,0.3-0.1c0.7-1,1.2-2,1.7-3.2c0.4-0.7,0.6-1.2,1.2-1.7c1.2-0.2,2-0.4,3.7-0.7c-1,2.3-1.6,3.8-2.3,5.3
	c-2.1,4.7-4.2,9.5-6.3,14.2c-0.3,0.7-0.6,1.4-1.4,2.3c-0.7,0.8-0.9,1.5-1.2,2.1c-0.5,0.8-1,1.6-1.9,2.7c-0.8,1-1.1,1.8-1.4,2.5
	c0,0-0.1,0.3-0.5,0.6c-0.8,1.2-1.3,2.1-1.7,3c0,0,0,0-0.3,0.1c-0.6,0.8-0.9,1.5-1.3,2.2c-0.3,0.7-0.7,1.4-1.4,2.4
	c-0.5,0.7-0.6,1-0.8,1.3c-0.3,0.5-0.5,0.9-1.3,1.6c-1,0.6-1.8,0.9-2,1.3c-5.6,10.3-11.7,20.3-13.7,32.1c-0.2,1.1,0.3,2.4,0.4,3.6
	c0,0.4,0,0.8-0.1,1.6c-0.6,2-1.6,3.7-1.7,5.4c-0.2,4.2-0.1,8.4-0.9,12.6c-3.6-7.7-5.1-15.8-3.6-24c1.1-6.2,3.4-12.3,5.1-18.8
	c0-0.7,0.2-1.1,0.7-1.8c0.7-1.1,1-1.8,1.3-2.5c0.3-0.7,0.7-1.4,1.5-2.4c1.8-2.6,3.1-4.9,4.4-7.3c0.2-0.5,0.5-0.9,1.2-1.6
	c2.3-3.1,4-5.9,5.8-8.7c0.1-0.3,0.3-0.6,1-1c0.9-1.2,1.4-2.1,1.8-3c0,0,0.1,0.1,0.3,0C118.2,188.4,118.6,187.7,118.9,186.9z"/>
<path class="st0" d="M163.6,193.1c0,0-0.1,0.3-0.4,0.6c-1.7,2.9-3.1,5.4-4.5,8c-0.3,0.5-0.5,1-0.9,1.7c-1.5,1.7-2.9,3.2-4.5,4.9
	c-0.6,0.3-1,0.3-1.9,0.1c-0.7-1-0.9-1.9-1.1-2.7c0.1-0.3,0.3-0.5,1-1c0.6-0.6,0.7-0.9,0.9-1.3c2.7-8.7,5.9-17.2,8-26.1
	c1.1-4.6,0.1-9.6,0.4-14.8c0.8-0.6,1.3-0.7,1.7-0.8c0,0,0.3,0.2,0.5,0.7c1.1,3.8,2.1,7.1,3,10.7c0.1,0.8,0.2,1.2,0.3,1.6
	c0,0.4,0,0.9-0.1,2c-0.5,5-1,9.2-1.4,13.4c0,0-0.2,0.3-0.4,0.7C163.9,191.9,163.7,192.5,163.6,193.1z"/>
<path class="st0" d="M144.4,138.9c9-3.1,16,3.1,15.5,14.1c-1.3-1.4-2.1-2.9-2.9-4.8c-0.4-1.4-0.6-2.5-1.1-3.5
	c-0.3-0.6-1.1-1-1.6-1.4c-0.4,0.8-0.7,1.6-1.1,2.3c-6.3-0.9-6.1-0.8-6.9,5.9c-0.5,4.1-2,8-3,12c-0.4-0.1-0.9-0.2-1.3-0.3
	c0.2-1.8,0.3-3.6,0.5-6.1c0.1-1,0.2-1.4,0.5-1.8c0.2-1.7,0.2-3.3,0-5.2c-0.1-1.7-0.2-3.1-0.1-4.7c0.3-1.4,0.4-2.5,0.8-3.8
	C144.1,140.5,144.3,139.7,144.4,138.9z"/>
<path class="st0" d="M142.7,145.7c0.1,1.3,0.1,2.7,0.1,4.8c-0.1,2.2-0.1,3.6-0.2,5c-0.1,0.4-0.2,0.7-0.3,1.3
	c-0.8,2.2-1.4,4.3-2.4,6.2c-3.3,6.6-6.7,13.1-10.4,19.8c1.8-4.6,3.9-9.3,6-14c0.7-1.5,1.3-3.1,2.3-5.3c-1.7,0.3-2.6,0.5-3.7,0.3
	c1.4-4.8,3.1-9.3,4.7-13.9c0-0.1-0.1-0.1,0.1-0.2c0.4-0.4,0.5-0.7,0.7-1.3c0.1-0.7,0.1-1.1,0.3-1.7c0.3-0.4,0.5-0.6,0.9-0.9
	C141.8,145.7,142.2,145.7,142.7,145.7z"/>
<path class="st0" d="M101,240.4c-0.4-0.9-0.9-2.2-0.7-3.3c2-11.8,8.1-21.8,13.7-32.1c0.3-0.5,1-0.7,1.8-1.2
	c-1.6,3.8-3.9,7.5-5.4,11.5C107.2,223.6,104.3,231.9,101,240.4z"/>
<path class="st0" d="M157,148.6c0.8,1.5,1.6,3,2.7,4.6c0.4,0.7,0.6,1.2,1,2.3c0.6,1.3,0.9,2,1.3,2.8c0.1,0.9,0.1,1.9,0.2,3.1
	c-0.5,0.5-0.9,0.6-1.8,0.8c-1.7-4.2-3-8.5-4.1-13.2C156.6,148.6,157,148.6,157,148.6z"/>
<path class="st0" d="M155.1,182.3c-0.6-6.9-0.9-14.1-1.2-21.7c1,4.9,2.2,10.1,2.9,15.4C157.1,178,155.9,180.1,155.1,182.3z"/>
<path class="st0" d="M105.5,251.7c1.3-1.5,2.5-2.6,4-3.5c-0.4,2.5-1.1,4.8-1.7,7.1c-0.1,0.3-0.2,0.7-0.5,1.5c-0.3,0.7-0.3,1-0.2,1.3
	c-0.3,0.9-0.5,1.7-1.1,2.8C105.6,258,105.5,255,105.5,251.7z"/>
<path class="st0" d="M108.1,255.2c0.3-2.3,1-4.6,1.7-7.3c0-0.4,0.3-0.5,0.5-0.6c0.3,1.6,0.5,3.2,1,4.8c0,0.9-0.2,1.6-0.6,2.7
	C109.8,255.2,109.1,255.2,108.1,255.2z"/>
<path class="st0" d="M157,148.2c0,0.3-0.4,0.4-0.7,0.4c-1.1-0.8-1.9-1.7-2.9-2.7c0.1-1,0.5-1.8,0.8-2.6c0.6,0.5,1.3,0.8,1.6,1.4
	C156.4,145.7,156.6,146.8,157,148.2z"/>
<path class="st0" d="M150,205.9c0.5,0.7,0.7,1.6,1.1,2.6c-1.1,0.7-2.4,1.3-3.7,1.5c0-0.3,0-0.3,0.2-0.4c0.5-0.3,0.6-0.5,0.6-0.9
	C148.7,207.8,149.2,206.9,150,205.9z"/>
<path class="st0" d="M111.8,225.9c-0.5,2-1.3,4.3-2.3,6.8C110,230.6,110.8,228.4,111.8,225.9z"/>
<path class="st0" d="M107,239.8c0,1.6-0.2,3.6-0.7,5.7C106.3,243.8,106.6,241.9,107,239.8z"/>
<path class="st0" d="M108.9,233.6c-0.2,1.6-0.6,3.6-1.3,5.7C107.7,237.6,108.2,235.8,108.9,233.6z"/>
<path class="st0" d="M135.2,217c0.2-0.8,0.8-1.6,1.7-2.6c0.7,0.1,1.2,0.4,1.6,0.7C137.5,215.8,136.5,216.4,135.2,217z"/>
<path class="st0" d="M113.9,221.3c-0.2,1-0.6,2.3-1.3,3.7C112.7,223.9,113.2,222.7,113.9,221.3z"/>
<path class="st0" d="M150.4,195.9c0.2-1.1,0.7-2.4,1.4-3.9C151.6,193,151.2,194.4,150.4,195.9z"/>
<path class="st0" d="M145,211.7c0.1,0.7-0.1,1.4-0.4,2.4c-0.1,0.3-0.6,0.3-0.9,0.3C143.9,213.5,144.3,212.7,145,211.7z"/>
<path class="st0" d="M121.5,196c0.1-0.8,0.6-1.7,1.3-2.7C122.7,194,122.2,194.9,121.5,196z"/>
<path class="st0" d="M127,187.2c0-0.5,0.2-1.1,0.7-1.7C127.7,185.9,127.5,186.5,127,187.2z"/>
<path class="st0" d="M119.9,198.2c0.1-0.6,0.4-1.3,1-2.1C120.8,196.7,120.5,197.4,119.9,198.2z"/>
<path class="st0" d="M123.7,192.4c0-0.6,0.3-1.3,1-2.1C124.6,190.9,124.3,191.6,123.7,192.4z"/>
<path class="st0" d="M153.2,189.2c-0.1-0.7,0.1-1.6,0.6-2.7C153.8,187.1,153.6,188,153.2,189.2z"/>
<path class="st0" d="M154.2,186.1c-0.1-0.7,0.1-1.7,0.5-3C154.8,183.8,154.6,184.8,154.2,186.1z"/>
<path class="st0" d="M129.2,223.1c0.2-0.5,0.6-1.1,1.4-1.9C130.4,221.8,129.9,222.4,129.2,223.1z"/>
<path class="st0" d="M149.3,197.8c0-0.4,0.2-0.9,0.6-1.7C150,196.5,149.7,197,149.3,197.8z"/>
<path class="st0" d="M141.5,209.4c0-0.4,0.3-0.9,0.8-1.5C142.3,208.2,142,208.8,141.5,209.4z"/>
<path class="st0" d="M110.7,247.3c-0.1-0.4,0.1-0.9,0.5-1.6C111.3,246,111.1,246.5,110.7,247.3z"/>
<path class="st0" d="M111.6,245.3c0-0.4,0.1-0.9,0.6-1.6C112.3,244.1,112.1,244.6,111.6,245.3z"/>
<path class="st0" d="M114.9,219.3c0.1,0.4-0.1,0.9-0.5,1.7C114.3,220.6,114.5,220,114.9,219.3z"/>
<path class="st0" d="M115.8,217.3c0.1,0.4-0.1,1-0.5,1.7C115.3,218.6,115.4,218.1,115.8,217.3z"/>
<path class="st0" d="M151.9,203.6c0.1,0.2-0.1,0.5-0.5,1C151.3,204.5,151.5,204.1,151.9,203.6z"/>
<path class="st0" d="M117.7,201.9c-0.1-0.2,0-0.5,0.4-0.9C118.1,201.2,118,201.5,117.7,201.9z"/>
<path class="st0" d="M147.5,200.7c-0.1-0.2,0.1-0.6,0.5-1.1C148.1,199.8,147.9,200.1,147.5,200.7z"/>
<path class="st0" d="M152.4,191c-0.1-0.2,0-0.6,0.4-1.2C152.9,190,152.8,190.4,152.4,191z"/>
<path class="st0" d="M104.2,278C104.2,278,104.2,277.9,104.2,278z"/>
<path class="st0" d="M123.4,228.9c-0.1-0.2,0-0.5,0.4-0.8C123.9,228.3,123.8,228.5,123.4,228.9z"/>
<path class="st0" d="M116.4,237.5c-0.1-0.2,0.1-0.5,0.5-1C117,236.7,116.8,237,116.4,237.5z"/>
<path class="st0" d="M103.3,258.6C103.3,258.6,103.3,258.6,103.3,258.6z"/>
<path class="st0" d="M142.7,207.6c0-0.2,0.1-0.5,0.5-0.8C143.3,206.9,143.2,207.2,142.7,207.6z"/>
<path class="st0" d="M148,208.8c0.2,0.2,0.1,0.5-0.4,0.7C147.5,209.4,147.6,209.2,148,208.8z"/>
<path class="st0" d="M140.6,210.4c-0.1-0.2,0.1-0.5,0.5-1C141.2,209.7,141,210,140.6,210.4z"/>
<path class="st0" d="M139.7,211.4c0-0.2,0.1-0.5,0.5-0.9C140.3,210.7,140.1,211,139.7,211.4z"/>
<path class="st0" d="M143.6,206.5c-0.1-0.2,0.1-0.5,0.5-1.1C144.2,205.6,144,206,143.6,206.5z"/>
<path class="st0" d="M133.8,218.1c0-0.2,0.2-0.6,0.8-1C134.7,217.3,134.4,217.7,133.8,218.1z"/>
<path class="st0" d="M131,221.1c0-0.2,0.1-0.5,0.6-0.9C131.6,220.4,131.4,220.7,131,221.1z"/>
<path class="st0" d="M114.2,193.4c-1.5,2.7-3.2,5.6-5.3,8.4C110.3,199.1,112.1,196.3,114.2,193.4z"/>
<path class="st0" d="M107.1,203.8c-1,2.1-2.3,4.5-3.9,6.9C104.2,208.5,105.6,206.2,107.1,203.8z"/>
<path class="st0" d="M117,189.3c-0.2,0.8-0.6,1.8-1.4,2.8c-0.3-0.3-0.3-0.7-0.2-1.4C115.9,190.1,116.3,189.7,117,189.3z"/>
<path class="st0" d="M101.3,213.4c0,0.6-0.3,1.3-0.9,2.1C100.4,214.9,100.7,214.2,101.3,213.4z"/>
<path class="st0" d="M125.4,177.4c-1.6,2.9-3.6,5.9-5.8,8.9c-0.3-0.3-0.2-0.7-0.1-1.4C121.4,182.3,123.3,179.9,125.4,177.4z"/>
<path class="st0" d="M130.6,169.1c-0.5,1.4-1.2,3-2.3,4.6C128.8,172.3,129.5,170.8,130.6,169.1z"/>
<path class="st0" d="M132.8,166c-0.4,0.9-0.8,1.9-1.6,2.9c-0.3-0.3-0.3-0.7-0.3-1.5c0-0.3,0-0.3,0.2-0.4
	C131.9,166.6,132.3,166.3,132.8,166z"/>
<path class="st0" d="M107.2,257.9c-0.2-0.1-0.2-0.4,0.1-0.9C107.5,257.1,107.5,257.4,107.2,257.9z"/>
<path class="st0" d="M118.6,187.1c-0.1,0.6-0.4,1.3-1.1,2.1C117.6,188.6,118,187.9,118.6,187.1z"/>
<path class="st0" d="M293.8,66c-0.1,0.1-0.2-0.3-0.1-0.5C294,65.4,294.1,65.6,293.8,66z"/>
<path class="st0" d="M293.2,36.1c-0.1-0.1-0.2-0.3-0.2-0.8C293.1,35.3,293.2,35.7,293.2,36.1z"/>
<path class="st0" d="M481.8,277.5c-0.5,5.4-1.8,6.5-7.7,6.3c1.7-4.9,3.5-9.4,4.8-14.1c0.5-1.7-0.1-3.8-0.5-6.1
	c-0.4-0.9-0.4-1.3-0.3-2.1c-0.1-4.4-0.3-8.4-0.5-12.5c0-0.1-0.3-0.2-0.2-0.2s0.2,0,0.3-0.5c0.1-1.6-0.1-2.6-0.1-4
	c-0.3-1.8-0.7-3.3-1.2-4.9c-0.1,0,0.1,0,0.1-0.4c-1.3-4.1-2.7-7.8-4-11.6c0-0.1-0.2-0.4-0.2-0.6c-0.2-0.6-0.5-0.9-0.7-1.4
	c-0.3-0.7-0.5-1.1-0.7-1.8c-0.4-0.8-0.7-1.3-1.1-2c0-0.1-0.3-0.4-0.3-0.6c-0.2-0.5-0.4-0.7-0.8-1c-0.1,0,0.1,0,0.1-0.3
	c-0.7-1.4-1.3-2.4-2.1-3.4c-0.1,0.1,0.1-0.1,0.1-0.4c-0.4-0.7-0.7-1.2-1.2-1.9c-2.3-4.1-4.5-7.8-6.7-11.6
	c-4.9-8.5-9.9-16.9-14.8-25.7c-0.4-0.8-0.8-1.3-1.1-1.8c0.1,0,0,0.1,0-0.1c-0.3-0.5-0.5-0.7-0.8-1.1c-0.1-0.1-0.1-0.4-0.1-0.8
	c-0.3-0.9-0.7-1.4-1-1.9c0,0,0,0.1,0-0.2c-0.3-0.8-0.6-1.3-1.2-1.9c-0.4-0.9-0.6-1.5-0.8-2.6c-0.3-1-0.6-1.6-1-2.3
	c-0.1-0.1,0.1-0.3,0.1-0.6c-0.3-1-0.6-1.6-1-2.4c-0.3-0.5-0.3-0.8,0-1.4c-0.2-1-0.4-1.6-0.8-2.6c-0.3-2.4-0.4-4.4-0.5-6.7
	c0.2-0.6,0.2-1,0.1-1.4c-0.2-0.3-0.2-0.6,0.1-1.1c0.5-1.9,0.9-3.4,1.2-4.9c1-2.7,2-5.4,3.3-9.1c1,1.4,1.7,2.4,2.2,3.9
	c-0.4,0.4-0.6,0.4-1.1,0.5c-0.3,4.6-0.3,9-0.4,13.8c0,1.3,0,2.2,0,3.5c0.3,1.2,0.6,2,1,3.1c0.1,0.6,0,0.9,0.1,1.5
	c0.3,0.6,0.5,0.8,0.8,1.4c0.1,0.9,0.2,1.5,0.2,2.4c0.9,1.3,1.7,2.2,2.8,3.1c0.2,0,0.6,0,0.6,0.4c0.7,2.4,1.3,4.5,2,6.8
	c2,3.4,3.8,6.5,5.7,9.8c0,0.2,0.2,0.4,0.3,0.7c0.6,0.9,1.1,1.5,1.7,2.3c0.3,0.7,0.6,1.1,0.9,1.8c1.3,2.1,2.6,3.9,3.9,5.8
	c0,0.2,0.2,0.4,0.3,0.8c1.6,2.7,3.2,5,4.8,7.4c0,0,0,0,0.1,0.3c0.8,1.3,1.6,2.2,2.4,3.5c0.5,0.9,0.9,1.5,1.4,2.4
	c1.2,2.2,2.4,4,3.6,6c0,0.2,0.2,0.4,0.2,0.7c0.5,1.2,1.1,2.1,1.7,3.2c0,0.2,0.2,0.4,0.2,0.8c2.3,7.2,4.6,14.1,6.9,21.2
	c0.1,0.7,0.2,1.1,0.2,2c-0.8,9.9-1.5,19.3-2.4,29c-1,2.4-1.7,4.5-2.4,6.6c0.3,0.1,0.6,0.2,0.9,0.3c0.6-0.5,1.2-1,2-1.5
	C481.5,277.5,481.6,277.5,481.8,277.5z"/>
<path class="st0" d="M436.9,142.8c0,1.5-0.4,3-1.2,4.9c-6.8,11.1-8.9,22.7-6.6,35c2.9,15.1,12.7,26,22.9,36.8
	c7.4,8,14,16.8,20.9,25.5c0.3,0.6,0.5,0.8,0.7,1.3c0,0.1,0.2,0.3,0.2,0.7c1.4,5.2,2.7,10.1,4.1,15c0,0.4,0,0.9,0.1,1.6
	c-1.4,1.6-2.8,2.9-4.3,4.4c-0.8-2.5-1.6-5.3-2.2-8.7c-0.1-3.3,0.1-6.1-0.8-8.5c-4.7-12.3-14.4-20.8-23.6-29.5
	c-0.8-0.7-2.4-0.6-3.6-0.8c0,0-0.2,0-0.4-0.2c-0.7-0.5-1.1-0.8-1.6-1.2c-2.1-3.4-4.1-6.7-6.4-10.2c-11-14.7-13.1-31.3-11-49.4
	c2-5,3.6-9.4,5.3-13.7c0,0,0,0,0.2,0c0.4-0.7,0.6-1.3,0.8-1.9C432.5,143.4,434.5,143.1,436.9,142.8z"/>
<path class="st0" d="M461.5,195.1c0,0-0.2-0.3-0.2-0.8c-1.4-2.3-2.7-4-4-5.7c-0.3-0.4-0.5-0.8-0.8-1.8c-0.6-1.1-1.2-1.7-1.7-2.3
	c0,0-0.2-0.3-0.2-0.8c-2-3.6-3.9-6.7-5.8-9.7c-0.6-2-1.2-4.1-1.5-6.5c1.1-0.4,1.8-0.3,2.6,0c0.5,0.9,1,1.5,1.4,2.5
	c1.2,1.9,2.4,3.4,3.6,4.9c0,0,0,0,0,0.3c0.6,0.8,1.2,1.4,1.8,2c0,0,0.3,0,0.5,0.3c0.6,0.7,1,1.1,1.4,1.5c0,0,0-0.1,0,0.2
	c0,0.8,0.1,1.1,0.2,1.9c0.7,1.1,1.3,1.8,2,2.6c0,0,0,0,0,0.3c1,1.4,2,2.5,3.2,3.7c0.6,0.4,1.1,0.7,1.5,1c0,0,0.1-0.2,0.1,0.2
	c0.3,1.1,0.7,1.8,1.1,2.9c0.7,1.1,1.3,1.8,2,2.6c0,0,0,0,0,0.3c1.6,2.4,3.3,4.4,5.1,6.6c0.7,0.4,1.1,0.7,1.5,1c0,0,0.1-0.1,0.1,0.3
	c0.7,1.7,1.4,3,2,4.7c0.6,1.1,1.2,1.9,2.1,2.9c0.5,0.9,0.9,1.5,1.1,2.6c0.8,1.5,1.7,2.7,2.7,3.9c0,0-0.1,0-0.1,0.4
	c1.5,3.7,3.1,7.1,4.7,10.7c0.2,0.7,0.2,1.1,0.1,1.8c0.4,2.4,1.1,4.5,1.8,7c0.1,1,0.2,1.8,0,2.8c-0.1,3,0.1,5.7,0.3,8.8
	c-0.1,1.4-0.2,2.4-0.6,3.5c-0.6,2.4-1,4.6-1.3,7.1c-0.2,0.7-0.3,1.1-0.7,1.5c-1-1.7-1.8-3.4-2.2-5.2c-0.7-4-1.2-8.1-1.7-12.1
	c-0.1-0.4-0.2-0.8,0-1.8c-0.9-5.3-1.7-10.1-3.2-14.8c-0.7-2.4-2.6-4.4-3.9-6.6c0,0-0.2-0.3-0.1-0.8c-0.5-1.4-1.1-2.3-1.7-3.1
	c0,0-0.2-0.3-0.1-0.8c-1.2-2.3-2.5-4.2-3.7-6c-0.4-0.6-0.9-1.2-1.3-2.4c-0.8-1.6-1.7-2.5-2.5-3.4c0,0-0.1,0,0-0.3
	C464.8,199.8,463.1,197.4,461.5,195.1z"/>
<path class="st0" d="M443.7,220.7c1.1-0.1,2.7-0.2,3.4,0.5c9.2,8.7,18.9,17.2,23.6,29.5c0.9,2.4,0.7,5.3,0.8,8.2
	c-0.6-0.5-0.9-1.3-1.3-2.6c-0.6-1.1-1.1-1.7-1.6-2.2c-0.1-0.7-0.1-1.3-0.3-2.6c-0.7-1.7-1.3-2.8-1.9-3.9c-2.4-3.4-4.8-6.9-7.5-10.8
	c-1.6-1.8-2.9-3.2-4.2-4.5c-0.2-0.3-0.4-0.5-1-1.2c-1.8-1.6-3.3-2.7-4.8-3.8c0,0,0,0-0.1-0.2c-0.4-0.4-0.6-0.6-0.9-0.8
	C446.5,224.4,445.1,222.7,443.7,220.7z"/>
<path class="st0" d="M487.8,229c-0.1-0.4-0.1-0.8-0.3-1.9c-1.3-4-2.5-7.4-3.8-10.7c2.1,4,5.1,7.7,6.2,12c3.6,13.7,2.2,27.3-3.6,40.3
	c-0.2,0.4-0.7,0.6-1.4,0.6c0.6-3.3,1.5-6.3,2.3-9.3c0.1-0.4,0.2-0.8,0.6-1.7c0.6-2.7,1-4.8,1.4-7c0.1-1,0.2-2,0.5-3.7
	c0.1-3.4-0.1-6.1-0.2-8.8c0-0.7-0.1-1.4-0.1-2.8C488.9,233.1,488.4,231.1,487.8,229z"/>
<path class="st0" d="M486.9,259.9c-0.5,3-1.4,6-2.3,9.4c-0.3,0.8-0.6,1.3-1.1,2.1c-0.2,0.3-0.6,0.4-1,0.4c-0.8,0-1.3,0-1.8-0.1
	c0.7-9.4,1.4-18.8,2.2-28.7c0.6,3.6,1.1,7.7,1.8,11.7C485.1,256.5,486,258.2,486.9,259.9z"/>
<path class="st0" d="M449.7,167.1c-0.7,0-1.5,0-2.6-0.1c-0.4,0-0.7,0-1-0.3c-1.1-1.3-1.9-2.2-2.8-3.1c0-0.6-0.1-1.2-0.3-2.3
	c-0.3-0.8-0.6-1.1-0.8-1.4c0-0.3,0-0.7,0-1.6c-0.4-1.4-0.7-2.3-1-3.1c0-0.9,0-1.9,0.3-3.2c0.8-0.4,1.2-0.5,1.8-0.5
	c0.1,0.1,0.4,0.2,0.5,0.5c0.3,0.8,0.6,1.3,0.9,1.8c0,0,0.1,0.4,0.2,0.9c0.3,0.7,0.6,1,0.8,1.3c0,0.3,0,0.7,0.2,1.5
	c0.3,0.8,0.5,1,0.7,1.3c0,0,0,0.3,0.2,0.8c0.3,0.7,0.6,1,0.8,1.2c0,0,0,0.3,0.1,0.8c0.4,0.9,0.7,1.4,1.1,1.8c0.2,0.5,0.4,1,0.8,2
	C449.8,166.2,449.7,166.6,449.7,167.1z"/>
<path class="st0" d="M418.6,167.1c-3.1,11.3-2.3,22.2,4.7,32.6c-0.8-0.1-1.9-0.2-2.4-0.8C414.6,192.3,413.3,175.2,418.6,167.1z"/>
<path class="st0" d="M429.2,145.8c-1.4,4.2-3.1,8.5-5,13.1c-0.7,0.3-1.1,0.4-1.9,0.5c-0.4-0.4-0.5-0.9-0.4-1.9
	c0.4-1.1,0.6-1.6,0.8-2.1C424.8,152.3,426.9,149.1,429.2,145.8z"/>
<path class="st0" d="M443.3,151.3c-0.4,0.1-0.9,0.1-1.7,0.2c-0.3-4.4-0.3-8.9,0-13c0.6,2.3,0.9,4.3,1.2,6.4c0.2,1.5,0.4,3,0.6,5.2
	C443.4,150.9,443.4,151.1,443.3,151.3z"/>
<path class="st0" d="M449.8,167.4c0-0.7,0-1.2,0.1-2c1.7,1.9,3.3,4.2,4.9,7c0,0.4-0.2,0.6-0.5,0.4c-1.2-1.2-2.1-2.2-3.1-3.3
	C450.7,168.9,450.3,168.2,449.8,167.4z"/>
<path class="st0" d="M480.5,272c0.7-0.2,1.2-0.2,2,0.1c0.4,0.8,0.4,1.2,0.4,1.6c-0.4,0.7-0.7,1.4-1.3,2.6c-0.5,0.7-0.6,0.9-0.8,1.2
	c-0.6,0.5-1.2,1-1.7,1.5c-0.3-0.1-0.6-0.2-0.9-0.3C478.9,276.5,479.6,274.3,480.5,272z"/>
<path class="st0" d="M483.5,216.4c1.4,3.4,2.7,6.8,3.9,10.5c-1.5-3-3.1-6.4-4.6-10.1C482.9,216.3,483.3,216.3,483.5,216.4z"/>
<path class="st0" d="M466.3,191.2c-0.4-0.7-0.7-1.4-1.1-2.5c2,2,4,4.2,6,6.9c0,0.4-0.3,0.6-0.5,0.4c-0.9-0.8-1.7-1.4-2.4-2
	c0,0-0.1,0.1-0.1-0.3C467.6,192.7,467,192,466.3,191.2z"/>
<path class="st0" d="M465.3,188.1c-0.5,0.1-0.9-0.2-1.6-1c-1.2-1.5-2.2-2.6-3.1-3.7c0,0,0,0,0-0.3c0-0.7-0.1-1.1-0.1-1.6
	c0.1-0.1,0.3-0.2,0.3-0.2C462.3,183.5,463.8,185.6,465.3,188.1z"/>
<path class="st0" d="M421.4,159.3c-0.4,2.2-1.1,4.4-2.1,6.9C419.7,164.1,420.3,161.8,421.4,159.3z"/>
<path class="st0" d="M475,201.6c-0.5,0.1-0.9-0.2-1.6-0.9c-1-1.8-1.7-3.1-2.4-4.4c0,0,0.2-0.2,0.3-0.3
	C472.6,197.7,473.8,199.5,475,201.6z"/>
<path class="st0" d="M477.1,206.6c-0.7-1.3-1.4-2.7-2.1-4.3c1.3,1.3,2.7,2.9,4,4.9c0,0.4-0.2,0.6-0.4,0.5
	C477.9,207.2,477.5,206.9,477.1,206.6z"/>
<path class="st0" d="M454.7,232.4c1.2,1,2.5,2.4,3.9,4C457.3,235.5,456,234.1,454.7,232.4z"/>
<path class="st0" d="M449,227.4c1.4,0.8,2.9,1.9,4.5,3.4C452,229.9,450.5,228.8,449,227.4z"/>
<path class="st0" d="M480.3,212.1c-0.3-0.7-0.7-1.3-1.2-2.5c-0.3-0.9-0.3-1.3-0.4-1.7c0,0,0.2-0.2,0.3-0.3c1,1.4,1.9,2.8,2.5,4.6
	C481,212.4,480.7,212.2,480.3,212.1z"/>
<path class="st0" d="M441.3,218.8c0.7,0.6,1.2,0.9,1.7,1.4c-2.5,1.9-3.4,0.3-3.9-2.4C439.8,217.8,440.4,218.2,441.3,218.8z"/>
<path class="st0" d="M426.7,204.4c-0.7,0.3-1.5,0.4-2.6,0.4c-0.4-1-0.4-2.1-0.4-3.5C424.7,201.9,425.7,203,426.7,204.4z"/>
<path class="st0" d="M480.3,212.4c0.4-0.2,0.7-0.1,1.3,0.1c0.3,0.3,0.4,0.6,0.8,1.3c0.2,0.4,0.4,0.7,0.4,0.7
	c0.1,0.4,0.1,0.8,0.2,1.5C482,215.2,481.1,214,480.3,212.4z"/>
<path class="st0" d="M466.1,247.7c0.8,0.9,1.4,1.9,2.1,3.3C467.5,250.2,466.7,249.1,466.1,247.7z"/>
<path class="st0" d="M442.9,144.4c-0.4-1.6-0.7-3.6-0.9-6.1c0.2-0.4,0.4-0.4,0.8-0.4C443,139.9,443,142,442.9,144.4z"/>
<path class="st0" d="M458.6,180.5c-0.1-0.4-0.1-0.8-0.2-1.5c0.7,0.4,1.5,1,2.3,2c0.1,0.3-0.1,0.5-0.4,0.4
	C459.5,181.1,459.1,180.8,458.6,180.5z"/>
<path class="st0" d="M443.5,151.4c-0.1-0.3,0-0.5,0.1-1c0.7,0.1,1.2,0.4,1.3,0.9c-0.6,0.2-0.8,0.2-1,0.2
	C443.9,151.5,443.6,151.4,443.5,151.4z"/>
<path class="st0" d="M456.6,176.7c-0.7-0.3-1.3-0.8-1.6-1.6c0.7,0.1,1.2,0.4,1.6,0.7C456.6,176,456.6,176.2,456.6,176.7z"/>
<path class="st0" d="M456.6,175.5c-0.5,0-0.9-0.2-1.6-0.6c-0.2-0.1-0.3-0.1-0.3-0.4c-0.1-0.7-0.1-1.1-0.2-1.5c0,0,0.2-0.2,0.3-0.3
	C455.5,173.4,456.1,174.3,456.6,175.5z"/>
<path class="st0" d="M430.3,143.9c0,0.4-0.1,1.1-0.6,1.7C429.7,145.2,429.9,144.6,430.3,143.9z"/>
<path class="st0" d="M468.5,254.3c0.5,0.2,1,0.8,1.6,1.6C469.6,255.7,469,255.1,468.5,254.3z"/>
<path class="st0" d="M449,163c-0.5-0.3-0.8-0.7-1.2-1.5C448.3,161.7,448.8,162.2,449,163z"/>
<path class="st0" d="M483.2,273.7c-0.2-0.4-0.2-0.8-0.2-1.5c0-0.3,0.4-0.4,0.6-0.5C483.6,272.3,483.5,272.9,483.2,273.7z"/>
<path class="st0" d="M422.5,155.4c0.1,0.5-0.1,1-0.5,1.7C421.9,156.7,422.1,156.1,422.5,155.4z"/>
<path class="st0" d="M444,151.8c0.2-0.3,0.3-0.3,0.8-0.3c0.3,0.5,0.2,0.9,0.2,1.8C444.6,153.1,444.3,152.6,444,151.8z"/>
<path class="st0" d="M458.4,178.4c-0.4-0.1-0.8-0.5-1.3-1.2C457.5,177.3,458,177.7,458.4,178.4z"/>
<path class="st0" d="M446.7,158.3c-0.2,0-0.4-0.3-0.6-0.8C446.2,157.5,446.4,157.8,446.7,158.3z"/>
<path class="st0" d="M448,226.3c0.1,0,0.4,0.2,0.8,0.6C448.7,226.9,448.4,226.7,448,226.3z"/>
<path class="st0" d="M481.1,277.5c-0.1-0.3,0-0.5,0.5-0.9c0.2,0,0.2,0.2,0.3,0.7C481.6,277.5,481.5,277.5,481.1,277.5z"/>
<path class="st0" d="M445.8,155.5c-0.2,0-0.4-0.3-0.7-0.9C445.3,154.7,445.5,154.9,445.8,155.5z"/>
<path class="st0" d="M447.6,160.3c-0.2,0-0.4-0.3-0.7-0.8C447.1,159.5,447.4,159.7,447.6,160.3z"/>
<path class="st0" d="M482.9,214.4c-0.1,0.1-0.4-0.2-0.4-0.4C482.6,214,482.8,214.1,482.9,214.4z"/>
<path class="st0" d="M132.9,165.7c-0.5,0.6-1,0.9-1.7,1.3c2-5.5,4.2-11.2,6.7-17c0.5-0.2,0.7-0.1,0.9-0.1c-1.7,4.5-3.3,9-5,13.9
	C133.5,164.5,133.2,165,132.9,165.7z"/>
<path class="st0" d="M142.9,145.4c-0.7,0.3-1.1,0.3-2-0.2c-0.4-3.7-0.5-7-0.5-10.3c0,0,0.2-0.1,0.4,0c0.7,0.4,1.2,0.7,1.7,1
	c0,0.4,0.1,0.8,0.1,1.9c0.3,1.7,0.6,2.8,0.9,3.9C143.4,142.9,143.2,144,142.9,145.4z"/>
<path class="st0" d="M165.8,172.8c-0.9-3.3-1.9-6.6-2.9-10.3c1.2,1.3,2.7,2.9,3.6,4.8c0.7,1.5,0.5,3.3,0.2,5.3
	C166.1,172.8,165.9,172.8,165.8,172.8z"/>
<path class="st0" d="M140,135.1c0.4,3.1,0.4,6.4,0.5,10.1c-0.1,0.7-0.2,1-0.8,1.3c-0.7,0.1-0.9,0.1-1.1,0.1
	C138.9,142.9,139.3,139.1,140,135.1z"/>
<path class="st0" d="M159,201.7c1.1-2.5,2.5-5.1,4.2-7.8C162.1,196.3,160.7,199,159,201.7z"/>
<path class="st0" d="M164.9,190c0.1-4,0.6-8.2,1.2-12.9C165.8,181,165.5,185.4,164.9,190z"/>
<path class="st0" d="M138.3,146.7c0.5,0,0.7,0,1.2,0c0.3,0.4,0.3,0.9,0,1.7c-0.5,0.7-0.6,1-0.7,1.3c0,0,0.1,0.1,0.1,0.1
	c-0.2,0-0.4-0.1-0.9-0.2C135.1,148.3,136.2,147.5,138.3,146.7z"/>
<path class="st0" d="M143.7,141.6c-0.5-0.8-0.8-1.9-1.1-3.3c0.5-0.1,0.9,0.2,1.6,0.5C144.3,139.7,144.1,140.5,143.7,141.6z"/>
<path class="st0" d="M162.2,158.1c-0.5-0.5-0.9-1.3-1.3-2.4C161.4,156.2,161.9,157,162.2,158.1z"/>
<path class="st0" d="M142.6,135.8c-0.6-0.1-1.1-0.4-1.8-0.9C141.4,135,142.1,135.3,142.6,135.8z"/>
<path class="st0" d="M163.8,192.9c-0.1-0.4,0-1,0.4-1.8C164.3,191.5,164.2,192.1,163.8,192.9z"/>
<path class="st0" d="M165.7,173.2c0.2-0.3,0.4-0.3,0.8-0.3c0.1,0.5,0,1-0.3,1.8C165.9,174.3,165.8,173.9,165.7,173.2z"/>
<path class="st0" d="M506.9,326.2c-0.4,1.9-1,3.9-1.6,6.3c-0.1,0.3-0.3,0.6-0.6,0.9c-0.7,0.9-1.1,1.6-1.6,2.2c0,0,0,0-0.3,0.1
	c-0.8,1-1.2,1.9-1.7,2.8c-0.3,0.2-0.5,0.4-1.1,0.9c-0.9,1.2-1.4,2.1-1.9,2.9c-0.3,0.2-0.5,0.4-1,1c-0.9,1.2-1.3,2.1-1.8,3
	c-1.2,1.4-2.3,2.9-3.9,4.7c-1.6,2.5-2.8,4.6-4,6.8c0,0,0,0-0.3,0.1c-0.7,0.7-1.1,1.3-1.5,2c0,0-0.1,0.3-0.4,0.6
	c-3.4,1.3-2.2-0.7-1.7-1.9c1.6-3.8,3.4-7.5,5.1-11.3c0,0,0,0,0.3-0.1c0.7-1,1.2-1.9,1.7-2.8c0.2-0.2,0.4-0.5,1-1.1
	c0.6-0.8,0.8-1.3,1.1-1.8c0.6-0.7,1.2-1.4,2.2-2.5c0.8-1.1,1.2-1.7,1.6-2.3c2.2-2.3,4.3-4.7,7-7.4c1.2-1,1.9-1.7,2.6-2.4
	C506.3,326.8,506.6,326.6,506.9,326.2z"/>
<path class="st0" d="M488.3,347.4c-1.4,3.7-3.1,7.5-4.7,11.2c-0.5,1.2-1.7,3.2,1.7,2.1c-1.5,3.8-3.3,7.8-5.3,12.3
	C477,367.8,482.4,352.6,488.3,347.4 M482.4,363.3C482.4,363.3,482.3,363.4,482.4,363.3z"/>
<path class="st0" d="M494.4,371.5c-1,2.2-1.8,4.1-2.5,5.9c-0.5-0.1-1-0.2-1.5-0.4c1.2-6.8,2.4-13.6,3.6-20.3
	c0.5,0.1,1.1,0.1,1.6,0.2C498.3,361.7,496,366.4,494.4,371.5z"/>
<path class="st0" d="M487.8,357.7c0.8-2,2-4.1,3.5-6.4C490.4,353.3,489.3,355.5,487.8,357.7z"/>
<path class="st0" d="M505.7,326.9c-0.4,0.7-1.1,1.3-2.1,2.1C504,328.4,504.7,327.7,505.7,326.9z"/>
<path class="st0" d="M501.5,338.5c0.2-0.8,0.6-1.7,1.4-2.7C502.7,336.6,502.3,337.5,501.5,338.5z"/>
<path class="st0" d="M490.2,344.5c-0.1,0.8-0.6,1.7-1.3,2.7C489.1,346.4,489.5,345.5,490.2,344.5z"/>
<path class="st0" d="M498.6,342.4c0.2-0.8,0.7-1.7,1.5-2.7C499.8,340.5,499.4,341.4,498.6,342.4z"/>
<path class="st0" d="M495.7,346.3c0.2-0.8,0.6-1.7,1.4-2.7C496.9,344.4,496.5,345.3,495.7,346.3z"/>
<path class="st0" d="M486,359.9c0.1-0.6,0.5-1.2,1.2-1.9C487.1,358.5,486.7,359.1,486,359.9z"/>
<path class="st0" d="M496.1,336.7c-0.1,0.6-0.5,1.2-1.2,2C495,338.2,495.4,337.5,496.1,336.7z"/>
<path class="st0" d="M503.5,335.6c0.1-0.6,0.5-1.2,1.2-2C504.6,334.2,504.2,334.9,503.5,335.6z"/>
<path class="st0" d="M492.4,341.7c0,0.3-0.2,0.8-0.7,1.5C491.7,342.8,491.9,342.3,492.4,341.7z"/>
<path class="st0" d="M143,155.3c-0.3-1.3-0.2-2.7-0.1-4.4C143.1,152,143.2,153.6,143,155.3z"/>
<path class="st0" d="M139,149.6c-0.2-0.2,0-0.5,0.4-0.9C139.5,148.9,139.4,149.2,139,149.6z"/>
<path class="st0" d="M472.9,244.7c-6.9-8.4-13.4-17.3-20.9-25.2c-10.1-10.8-19.9-21.7-22.9-36.8c-2.4-12.2-0.3-23.9,6.4-34.6
	c0.1,0.2,0.1,0.4,0.1,1c-0.1,0.7,0,1.1,0,1.4c0.2,2,0.3,4.1,0.6,6.8c0.3,1.3,0.5,2,0.8,2.6c-0.2,0.3-0.2,0.6,0,1.4
	c0.4,1.2,0.7,1.8,1,2.4c0,0-0.1,0.2-0.1,0.6c0.4,1,0.7,1.7,1,2.3c0.2,0.7,0.4,1.4,0.8,2.5c0.5,1,0.8,1.5,1.1,1.9c0,0,0-0.1,0,0.2
	c0.3,0.9,0.6,1.4,1,2c0,0,0,0.3,0.1,0.7c0.4,0.6,0.6,0.8,0.8,1.1c0,0,0-0.1,0,0.2c0.3,0.8,0.7,1.3,1,1.8c4.9,8.5,9.9,16.9,14.8,25.4
	c2.2,3.8,4.4,7.5,6.7,11.9c0.5,1,0.9,1.5,1.2,1.9c0,0-0.2,0.1-0.1,0.4c0.8,1.3,1.5,2.4,2.2,3.4c0,0-0.3,0-0.1,0.3
	c0.4,0.5,0.6,0.7,0.8,1c0,0,0.2,0.2,0.2,0.7c0.4,1,0.8,1.5,1.2,2c0.2,0.4,0.4,0.9,0.7,1.8c0.3,0.8,0.5,1.1,0.7,1.4
	c0,0,0.2,0.2,0.2,0.8c1.3,4.2,2.7,7.9,4.1,11.6c0,0-0.1,0-0.2,0.4c0.4,1.9,0.8,3.3,1.2,4.7c0.1,1.1,0.2,2.1-0.1,3.3
	c-1.5-0.4-2.5-0.9-3.5-1.4c0,0-0.2-0.2-0.2-0.6C473.4,245.2,473.1,245,472.9,244.7z"/>
<path class="st0" d="M475.9,219.8c1.3,1.8,3.2,3.8,3.9,6.2c1.5,4.6,2.3,9.5,3.2,14.5C480.5,233.8,478.2,227,475.9,219.8z"/>
<path class="st0" d="M473.9,246.9c1,0.1,2,0.6,3.3,1.5c0.3,0.4,0.1,0.4-0.1,0.5c0,0.1,0.2,0.1,0.4,0.2c0.2,4,0.4,8,0.4,12.4
	C476.6,257,475.2,252.2,473.9,246.9z"/>
<path class="st0" d="M448.7,174.2c1.9,2.7,3.8,5.8,5.7,9.2C452.6,180.8,450.7,177.7,448.7,174.2z"/>
<path class="st0" d="M476.4,239.1c-1.4-3.3-2.7-7-4-11C473.7,231.3,475.1,235,476.4,239.1z"/>
<path class="st0" d="M461.5,195.4c1.6,2,3.2,4.3,4.8,7C464.8,200.5,463.2,198.1,461.5,195.4z"/>
<path class="st0" d="M457.3,188.9c1.3,1.4,2.6,3.1,3.9,5.3C460,192.7,458.7,191,457.3,188.9z"/>
<path class="st0" d="M470.2,209c1.2,1.5,2.5,3.3,3.7,5.5C472.6,213.1,471.4,211.2,470.2,209z"/>
<path class="st0" d="M443.4,163.9c0.8,0.6,1.7,1.5,2.5,2.8C445.1,166.1,444.3,165.2,443.4,163.9z"/>
<path class="st0" d="M477.5,244.3c-0.5-1.2-0.9-2.6-1.3-4.4C476.8,241,477.2,242.6,477.5,244.3z"/>
<path class="st0" d="M466.4,203.1c0.8,0.6,1.7,1.6,2.4,2.8C468,205.4,467.2,204.4,466.4,203.1z"/>
<path class="st0" d="M474.1,215.8c0.6,0.5,1.2,1.4,1.7,2.7C475.1,217.9,474.6,217,474.1,215.8z"/>
<path class="st0" d="M468.6,219.7c-0.6-0.7-1.3-1.8-2-3.1C467.3,217.3,467.9,218.3,468.6,219.7z"/>
<path class="st0" d="M454.7,184.7c0.5,0.3,1.1,0.8,1.6,1.7C455.8,186.2,455.3,185.6,454.7,184.7z"/>
<path class="st0" d="M441.3,155.4c0.3,0.5,0.6,1.3,0.9,2.5C441.9,157.4,441.6,156.6,441.3,155.4z"/>
<path class="st0" d="M437,159.5c-0.3-0.3-0.5-0.9-0.7-1.9C436.6,157.9,436.8,158.6,437,159.5z"/>
<path class="st0" d="M439,166.2c-0.3-0.3-0.7-0.9-1-1.8C438.4,164.7,438.7,165.3,439,166.2z"/>
<path class="st0" d="M466.6,215.9c-0.3-0.1-0.7-0.6-1.1-1.3C465.9,214.7,466.2,215.2,466.6,215.9z"/>
<path class="st0" d="M470.7,223.6c-0.3-0.2-0.7-0.7-1.1-1.5C469.9,222.3,470.3,222.8,470.7,223.6z"/>
<path class="st0" d="M443.9,176.7c-0.4-0.2-0.7-0.7-1.1-1.5C443.1,175.4,443.5,175.9,443.9,176.7z"/>
<path class="st0" d="M441.9,172.9c-0.3-0.2-0.7-0.8-1-1.6C441.2,171.5,441.6,172,441.9,172.9z"/>
<path class="st0" d="M438,163.4c-0.3-0.3-0.6-0.9-0.9-1.8C437.5,161.8,437.8,162.4,438,163.4z"/>
<path class="st0" d="M441,170.8c-0.3-0.2-0.6-0.7-0.9-1.5C440.3,169.5,440.7,170,441,170.8z"/>
<path class="st0" d="M442.8,174.8c-0.2,0-0.4-0.2-0.7-0.7C442.4,174,442.6,174.3,442.8,174.8z"/>
<path class="st0" d="M442.3,160.1c0.2,0,0.4,0.3,0.7,0.9C442.8,160.9,442.6,160.6,442.3,160.1z"/>
<path class="st0" d="M469.3,221c-0.2,0-0.4-0.2-0.6-0.7C468.9,220.3,469.1,220.5,469.3,221z"/>
<path class="st0" d="M472.1,226.9c-0.2,0-0.4-0.3-0.7-0.9C471.7,226,471.9,226.3,472.1,226.9z"/>
<path class="st0" d="M435.8,150.2c-0.1-0.1-0.2-0.5,0-1.1C436,149.3,436,149.6,435.8,150.2z"/>
<path class="st0" d="M473,245c0.2,0,0.4,0.3,0.7,0.8C473.4,245.8,473.2,245.5,473,245z"/>
<path class="st0" d="M489.4,239c0.4,2.4,0.5,5.1,0.4,8.1C489.5,244.8,489.3,242,489.4,239z"/>
<path class="st0" d="M470.7,196.1c0.9,1.5,1.7,2.8,2.4,4.5c-1.6-1.7-3.2-3.7-4.9-6.1C469.1,194.7,469.8,195.3,470.7,196.1z"/>
<path class="st0" d="M489,251.4c-0.1,2-0.5,4.1-1.1,6.5C488.1,255.9,488.4,253.7,489,251.4z"/>
<path class="st0" d="M487.6,229.3c0.8,1.8,1.3,3.9,1.8,6.3C488.7,233.8,488,231.6,487.6,229.3z"/>
<path class="st0" d="M454.3,172.8c0.3,0.6,0.4,1,0.4,1.7c-1.2-1.2-2.4-2.7-3.6-4.6C452.1,170.5,453.1,171.5,454.3,172.8z"/>
<path class="st0" d="M460.5,183.8c1,0.7,1.9,1.8,2.9,3.2C462.5,186.2,461.5,185.2,460.5,183.8z"/>
<path class="st0" d="M458.6,180.9c0.5-0.1,0.9,0.2,1.6,0.6c0.3,0.5,0.3,0.9,0.4,1.6C459.9,182.7,459.2,181.9,458.6,180.9z"/>
<path class="st0" d="M466.3,191.6c0.6,0.4,1.3,1.2,2,2.2C467.7,193.4,467,192.6,466.3,191.6z"/>
<path class="st0" d="M478.5,207.7c0.3,0.6,0.3,0.9,0.4,1.6c-0.6-0.5-1.3-1.3-1.9-2.4C477.5,206.9,477.9,207.2,478.5,207.7z"/>
<path class="st0" d="M482.4,363.3C482.3,363.4,482.4,363.3,482.4,363.3z"/>
<path class="st0" d="M477.5,249c-0.2,0.1-0.4,0.1-0.4-0.1C477.2,248.9,477.5,248.9,477.5,249z"/>
</svg>
