<?xml version="1.0" encoding="UTF-8"?>
<svg id="faixa" xmlns="http://www.w3.org/2000/svg" viewBox="0 0 468.27 400">
  <defs>
    <style>
      .cls-1 {
        fill: #bab6b5;
      }

      .cls-1, .cls-2, .cls-3 {
        stroke-width: 0px;
      }

      .cls-2 {
        fill: #323e93;
      }

      .cls-3 {
        fill: #ff2a00;
      }
    </style>
  </defs>
  <rect class="cls-3" y="0" width="468.27" height="400"/>
  <circle class="cls-1" cx="235.84" cy="200" r="200"/>
  <g>
    <path class="cls-2" d="M382.02,286.35s-131.76-50.82-290.35,0l24,11.76-6.12,21.65s116.24-40,254.12,0l-4.71-22.12,23.06-11.29ZM133.72,300.41l-5.47-3.71-6.35,3.71,2.29-6.53-6.18-4.24h7.59l2.65-7.24,1.76,6.88,7.24.88-5.47,3.35,1.94,6.88v.02ZM194.96,300.41c-11.12,3.71-14.25-8.65-14.25-8.65h5.78c3.01,6.68,9.71,3.18,9.71,3.18,4.94-1.24.88-6,.88-6-16.41-2.65-16.24-6.53-16.24-6.53-1.24-9.88,6.53-11.12,6.53-11.12,14.65-1.76,14.82,7.06,14.82,7.06l-5.65.18c-8.12-6.35-10.24,1.59-10.24,1.59,15,1.94,16.94,7.06,16.94,7.06,4.72,14.4-8.29,13.24-8.29,13.24h0ZM215.43,299.53h-5.12l-1.24-29.47h6.35v29.47h0ZM238.02,287c-5.12,1.06-9.88.53-9.88.53v11.12l-6.71.88v-30.18h16.41l3.58,1.71,2.6,2.7v7.59s-.88,4.59-6,5.65ZM267.67,298.65l-1.41-5.47-13.24-.71-2.74,7.06h-6.26l12.53-29.47h7.41l9.88,29.47-6.18-.88h0ZM297.67,277.47l-7.94-.71-2.65,24.34h-5.82l3-25.75h-7.59v-4.29l22.41,1.82-1.41,4.59ZM350.61,300.41l-6.71-4.06-4.59,3.18,1.94-5.29-4.06-4.59h4.94l3.18-7.24,2.47,6.88,5.65.35-4.24,3.88,1.41,6.88h0Z"/>
    <path class="cls-2" d="M236.84,275l-9.59-.71.71,8.12h8.88s4.29-4.94,0-7.41h0Z"/>
    <polygon class="cls-2" points="254.96 286.82 264.31 286.82 259.9 276.76 254.96 286.82"/>
  </g>
  <path class="cls-2" d="M168.14,319.76l32.12,34.47,15.18-9.18s-40.24-25.76-37.41-27.53-9.88,2.24-9.88,2.24h0Z"/>
  <polygon class="cls-2" points="256.72 346.12 273.84 354.24 304.72 317.08 296.25 317.08 256.72 346.12"/>
  <path class="cls-2" d="M190.96,315.65s38.47,31.29,45.88,30.71c0,0,38.12-19.96,43.88-29.27,0,0-38.47,20.92-43.88,21.27,0,0-25.76-10.24-45.88-22.71h0Z"/>
  <path class="cls-2" d="M205.55,315.06s28.94,16.82,31.29,15.29,21.18-8.12,31.18-15.29l14.24.59s-43.68,23.41-45.41,22.71-38.82-17.76-45.88-22.71l14.59-.59h0Z"/>
  <path class="cls-2" d="M147.2,177.18v16s-11.76,38.82,8,68l-8,.94s-24.71-44,0-84.94Z"/>
  <path class="cls-2" d="M96.37,194.12s8.41,27.29,31.26,39.06c0,0,1.56,20,9.62,31.76,0,0-18.59,3.18-20.44,4.41,0,0-16.91-9.59-16.21-23.24,0,0,3.53,8.71,4.94,8.94s-.94-22.12-.94-22.12c0,0-11.76-23.29-12.94-22.59,0,0,3.25-20.17,4.71-16.24v.02Z"/>
  <path class="cls-2" d="M125.78,216.24s-1.06-54,50.47-82.59c0,0-19.06-5.29-8.12-19.06,0,0,2.12-20.12-44.82-34.59,0,0,16.24,27.88,10.59,37.06,0,0-63.88,51.18-8.12,99.18h0Z"/>
  <path class="cls-2" d="M321.67,170l-1.76,11.29s22.59,27.18-2.47,80.82l5.91,1.65s31.15-51.06-1.67-93.76h0Z"/>
  <path class="cls-2" d="M346.37,231.48s-3.11,27.81-9.67,33.46c0,0,19.2,2.82,18.85,4.41s16.59-6.18,16.24-22.41l-4.59,8.12s1.06-20.47,1.06-21.88,20.47-25.84,8.47-39.57c0,0-2.82,25.94-30.35,37.87h0Z"/>
  <path class="cls-2" d="M296.96,134.35s45.53,17.18,49.76,82.53c0,0,39.88-31,15.53-68.76s-33.53-18.71-11.29-68.12c0,0-43.76,13.41-46.59,33.53,0,0,17.65,12-7.41,20.82h0Z"/>
  <path class="cls-2" d="M215.43,131.88l43.5-1.41s-21.62,14.12-43.5,1.41Z"/>
  <path class="cls-2" d="M190.02,114.94l-11.29,5.65s-9.44,4.59,58.46,4.24,57.31-5.27,56.25-4.93-12.35-6.01-11.29-4.95-42.71,14.47-92.12,0h0Z"/>
  <path class="cls-2" d="M174.84,119.83s.35-4.54,15.53-9.48l2.13-4.94s-23.65,5.19-17.65,14.42h-.01Z"/>
  <path class="cls-2" d="M280.14,105.41v3.76s20.24,7.9,18.35,10.66l1.65-3.83s-5.88-8-20-10.59Z"/>
  <polygon class="cls-2" points="203.2 112.62 206.02 99.53 227.67 112.62 227.67 114.82 203.2 112.62"/>
  <path class="cls-2" d="M207.43,94.59s5.88-9.88,6.12-9.88,14.12,20.71,14.12,20.71l-20.24-10.82h0Z"/>
  <polygon class="cls-2" points="219.2 80 231.2 101.41 225.2 76.71 219.2 80"/>
  <polygon class="cls-2" points="231.2 74.35 236.46 99.53 241.42 74.35 231.2 74.35"/>
  <polygon class="cls-2" points="247.67 76.71 241.42 101.41 254.49 80.94 247.67 76.71"/>
  <polygon class="cls-2" points="258.93 84.71 245.55 105.41 265.78 95.06 258.93 84.71"/>
  <polygon class="cls-2" points="245.55 114.82 267.67 101.41 269.55 112.62 245.55 114.82"/>
  <path class="cls-2" d="M231.2,110.8s-.83,8.47,5.11,7.29,5.11-3.85,5.11-3.85l.04-3.45-4.28-3.76h-3.16l-2.82,3.76h0Z"/>
  <path class="cls-2" d="M196.72,182.35s-12.97,7.69-16.02,11.26-1.4-47.96,22.49-32.78c0,0,8.24,6,0,18.35,0,0,5.29,9.88,22,4.24,16.71-5.65.12-69.88-57.06-35.29,0,0-24.33,11.8-10.59,85.06,0,0,41.5,56.47,75.45-6,0,0,8.55-35.65-36.28-44.82v-.02ZM192.5,235.29c-22.93-7.76-4.6-30.71-4.6-30.71,8.47-4.24,15.29,0,15.29,0,8.24-2.82,12.24,38.47-10.7,30.71h.01Z"/>
  <path class="cls-2" d="M236.84,170l24.82,2.82s4.24-27.53,24.71-7.41c0,0,5.96,15.17-23.65,31.85,0,0-34.85,25.68-29.07,56.03h78.48v-21.81h-49.41s98.82-70.53,21.18-93.54c0,0-48.24-3.24-47.06,32.06Z"/>
  <path class="cls-2" d="M197.78,92.88l-3.35,1.06s5.29-20.12,18.71-26.47l1.06,4.41s-11.82,7.24-16.41,21h0Z"/>
  <path class="cls-2" d="M189.84,95.06s.18-16.82,21.71-33.06l1.59,5.47s-13.76,7.76-18.71,26.47l-4.59,1.12Z"/>
  <path class="cls-2" d="M261.03,67.47l-1.5,4.06s12.15,7.41,16.68,21.18l3.35,1.24s-2.12-17.65-18.53-26.47h0Z"/>
  <path class="cls-2" d="M261.31,62s14.9,6.29,22.94,33.06l-5.29-1.12s.53-13.76-18.53-26.47c0,0,.88-5.47.88-5.47Z"/>
  <path class="cls-2" d="M217.55,68.94s20-8.71,38.12.94c0,0,5.62-8.47,3.87-19.06,0,0-4.1-3.29-8.81-2.59,0,0,1.12-11.76-14.26-16.47,0,0-9.97,1.88-15.62,16,0,0-8.82,1.65-7.71,6.35l4.41,14.82h0Z"/>
  <path class="cls-2" d="M216.61,52.94l3.53,12s15.53-8.71,32.24,0l3.29-12h-7.71s2.3-9.88-11.82-17.41c0,0-8.24,4.24-10.94,11.29v5.65l-8.59.47h0Z"/>
</svg>